<mxfile host="app.diagrams.net" modified="2024-05-28T11:24:24.862Z" agent="Mozilla/5.0 (Windows NT 10.0; Win64; x64) AppleWebKit/537.36 (KHTML, like Gecko) Chrome/121.0.0.0 Safari/537.36" etag="46ElB4rsU1XxoL-O7kgV" version="24.4.9" type="device">
  <diagram name="PÃ¡gina-1" id="_wpzTiSzdyVZ0gBbr-Ef">
    <mxGraphModel dx="1434" dy="782" grid="1" gridSize="10" guides="1" tooltips="1" connect="1" arrows="1" fold="1" page="1" pageScale="1" pageWidth="827" pageHeight="1169" math="0" shadow="0">
      <root>
        <mxCell id="0" />
        <mxCell id="1" parent="0" />
        <mxCell id="UUdcxtj-CU-N1sTjYldV-2" value="" style="rounded=1;whiteSpace=wrap;html=1;fillColor=#4D4D4D;strokeColor=#000000;strokeWidth=7;shadow=1;" vertex="1" parent="1">
          <mxGeometry x="291" y="100" width="289" height="480" as="geometry" />
        </mxCell>
        <mxCell id="UUdcxtj-CU-N1sTjYldV-3" value="&lt;h1&gt;PEDIR PARA EMBALAR&lt;/h1&gt;" style="rounded=1;whiteSpace=wrap;html=1;fillColor=#4D4D4D;strokeColor=#4D4D4D;fontFamily=Lucida Console;" vertex="1" parent="1">
          <mxGeometry x="325.5" y="110" width="220" height="60" as="geometry" />
        </mxCell>
        <mxCell id="UUdcxtj-CU-N1sTjYldV-4" value="" style="shape=hexagon;perimeter=hexagonPerimeter2;whiteSpace=wrap;html=1;fixedSize=1;" vertex="1" parent="1">
          <mxGeometry x="400" y="310" width="160" height="30" as="geometry" />
        </mxCell>
        <mxCell id="UUdcxtj-CU-N1sTjYldV-5" value="" style="shape=hexagon;perimeter=hexagonPerimeter2;whiteSpace=wrap;html=1;fixedSize=1;" vertex="1" parent="1">
          <mxGeometry x="400" y="360" width="160" height="30" as="geometry" />
        </mxCell>
        <mxCell id="UUdcxtj-CU-N1sTjYldV-10" value="" style="shape=image;html=1;verticalLabelPosition=bottom;verticalAlign=top;imageAspect=1;aspect=fixed;image=data:image/png,iVBORw0KGgoAAAANSUhEUgAAAOAAAADhCAYAAADRcblEAAAAAXNSR0IArs4c6QAAIABJREFUeF7tXQdYFMcX33IFFDX2buxRsYtBpSiCgqhYSIzYEBuxF7Ci0Ri7IvZusGOIFUVFUCyIGrFrLBg1YjfGCld39+9bd/iPmwPu4IC74/b7/Djvdmdn3sybefX3SMJ65TsFDh06JL98+XKJp0+fylJTU8kPHz7YaLVaCjr2/v37IhRFUSRJcgRBqOA7iqJkBEGk0jQtlUgkCvidIAhaIpGQdnZ28D1nZ2dHw/3lypVLZVnWpnDhwqk2NjayokWLaipUqPDBzc1Ny3EcKbSb7zQoqB0gC+rA82PcW7ZsqXLy5MmSaWlppe7du1fvwoULg0iSlHEcBwwEc0HRNC0hCAK+AwaiWJbl/wr9BSb84qIoiuM4joB/QhssQRDAWfCPhQv+TxAE+stRFMXSNA0/Mba2ttdr1Khxtn79+kmFCxd+U6NGDUX79u2fNWnS5G1+0KigvdPKgLk047GxscUePHhQ9siRI7UOHTr0k1KpLENRVGE4jeDkommaVqvVNBxBAuMgJvqiR/CzwFwG9fRzs58v9PkzL/IXYmROLpdzKpUKftBKJBKGYRg4GTUymexj7dq1N/bp0ye+Xr16z2rXrv1PnTp1PhjUCevNWVLAyoBZkkj/G8LCwqru2LGj6b179xw+fPjQRavVliJJsgjHcTKZTEZqtVo4kjKkOTAKzjjwZoxp9O9IJnfi70AnJ0iw8E+r1fJPggjLMAwnnJIqjuMUEonk30qVKm13d3c/EhAQ8NjZ2fmpUTpUwBuxMmAOFkBiYqLt0aNHy+/bt6/Z1atXh5IkWYtl2RIEQUgFcRLkQxITEQmZTMYzFSx2qVRKaDSa/5x4/BH1WaTM8vqs/v3/fvFz8Dv+/qwalEhAAibSmRFjSDglWYlEomYY5iPHcXcGDBgQ0rBhw0djxox5lFW71t91U8DKgAauDDCY/P777zXCw8MHUxTVmiCISizLFpFKpRLQ1xiGIXUtYnSy6WIsXWImOpUYhsm0hxm1h5+k+CmK3gV/4R1ZtQ/3oOfRs6BDwj+tVqumafotwzAPKlWq9FtQUFD02LFj7xtI0gJ9u5UB9Zz+vn37Vrl586bL1atXRzEMU5OmaTuGYUCVA6b7ohV0KsHCpWk6fZEDYyIxD04/+AwMBAsb7oPP8Iy+px+8FD8BdT2HM5CuoaLf4S/qH/QBiarwGb5HY4Tv4Tv0HBh7KIridUeapt8QBHHR29t7do8ePf7u27fvMz3JW2BvszJgJlMfGhpaefny5d4PHz7sSdP0NyBekiTJn3RyuZxQqXivAH8hBsLFPcR8upggM+MKPJcZI+KnG850Yv1RLMqKT2GcyeBevE/ivqP/42Iz+gzPgWitVqtZjuNgN1JRFPWCZdnjwcHBy7p27fq3s7Oz1YCjY61ZGVBElKSkpELjx49vHh8fP5IgCAeCIMoIOh24A7JFL3zR4joZEgOhC+iEwU/CnB4L6GRFpy46yYBpUT/gfeh3dKKiE9CQk1hHX3nLKkEQaRRFPaxbt+7KoKCgmAEDBqTkdFyW9Hy2FpQlEQCNZc6cOaWjo6ObnzlzZhJBEA3lcnkhcBMIPjqjDBk/NYEZYKGL9Sv0ImAeuF+pVOr17sx0TLEhBu6FTUGtVqef3uiUxkXNHDIg37ZUKuU0Gg0jkUg0Wq32Sa1atUJ79+59dMaMGVZdMbs7ul4rwkxuCg4OrrZo0aIBtra2PkqlsgbHcTYkSQLjGW0EsNiB0WBxw+JHuha8QxDd+HfB93AviLY4Y2bWEXE/xWIorr+htlF7WVlIs9If9SUQGi9JkqA0a7Va7RsbG5uTgwYNmu3r63sLonL0bcvS7iuwJ+CwYcNqrlq1KoggCDepVPq1RqOB8C6qUKFCRFpaGj/PNjY2ep9A+i4M3CiDmE8sdsLCB0bKykKJREZdboaMTkQklsI74ATELJu88Qf3CRpjE0Lt47SUSCRgQQVd8T1Jkn/8+OOPk1atWnW9IIbFFTgGnDx5cr358+dPIwiiNfLZQSwlbqrHmVBfxsroPiR24oYV3E0BrwY3HsuyfLgYOL/BCS6Ek6WHj2XUPsYk6RE1WOgaBNrABePjQ0pRIABN0/xneB76Bn3CjUrwvswMRYbQBW8ftwQLUTgQgfNRq9WeGTVq1OSlS5feLEiMWGAY8Icffqixd+/e6Wq12oMgiFIS2IZZlo8Eg5MGMQgySuCioSGLLaN7QRcCJgPm+szvrJYkSThq33Mc9x78aVWqVImrWrXqnyVLlvy3WLFiacWKFdNAVArHcTxTwme8ffA5on7CWLRarUShUFAKhcLmw4cPcrVaXejdu3fFUlJS6j979syVJMlCEGfKsqycIAj4DGFxcoZhwPvOMyhiUiMZYr4INtAlUQC9YbMBN4ZEInmn1WpPjBs3LmTx4sV3jUF3U2/D4hlwypQp5VesWDFIoVAM0mq15T7bBaQkMkAIhoL0iBS06+M7dTYnkT/RMHELfBZgik8lCOKf4sWLJ7Ru3fp3Hx+fl5UrV35ftWpVZa1atf7v18jmSzN6DKJ2KIqSsiwrUalUsuvXrxc+f/586aSkpG///vvvPkql8iuCIOwoipKTJAlMCZkWoLChQPEc9UjMfIULFyZSU4EU/78En6KGYZjXFStWXDV06NDNU6dOtWirqcUy4Pr168sGBgb6syzbSyqV1gEdT9jd+RkX6z5IlMPFrmwYIYDpQLcBowKsrn8Jgvi7evXqe9u1a3emQYMGb2vWrPnBy8sLvje56+jRoxWuX79ul5ycXDouLs773r17XQU3TGEUXicY7gxaN7jeC4NG/0d+SKR7giQi0BxEEw3Hcc+qV6++bOnSpVs7d+78j8kRzAgdMoiQRnhfnjTRqVOnbw8ePDiXIIhvBVELpfNk+H5xiBZyhIsZEhoQBUiD3sYzHcMw7wmCeFqtWrWIb7755oSbm9uzTp06vbS3t/9s7zezKz4+XpKcnFx99+7d1f/555/mly5dGsxxXFGSJG0hXQp0S4h1xTc0ZPxBbg6xc9/ASB9QXFUsy97x9fUdvHv37iQzI2GW3bUoBgRxc86cOVMJguhGkmQpELmysiTioqb4xENiExhSQGRFsZMgKtnY2GgUCoWCJMnHHMeBmBQ3bNiwQ35+fs9dXFwgJMvirvj4+FJ37typuGDBgq7379/vRhBEeYIgigqiLS+q4qddRhE7hlh5gYhSqVRLUdRblUq1a/369TMGDx78wlKIaxEMGB8fbzd8+HDvW7dujec4rr5gWMjW2MQxkTDRAmOCeKm1s7PTfPz4EcSha05OToudnZ3/atas2b89evT4aCmLQt9xzJo16+srV64027Vr13wQVaVSqa1Go5FA6hVkeeBuDGBMsbNfHz0bO0F5RACSJO81b9580vbt2+NyU2fWlwY5vS9bizSnLzXm8yEhIZXnzp27gGXZ9iRJFgPRSLCs6e1Hg/5klLIDWeUcx2mlUukbjUaTTFHUEVdX1/3Tp09/6ObmVuCYTtfcXb16tfCmTZvqhoWFzaJp2oFhmCJgZQYDDgq3wyURXXGzma0J3IAjl8u1KpXqY+HChQ8uX758irmHtpktAx46dKjo+PHjO928eXOiRCL5huM4sNwRdnZ2xMePn/nCEFcC7rgWjAMMx3FqiqL+ZRjmmqen54wffvjhwYABA14ZcwOxtLZWrVr1zZEjR1yjoqJmEwRRBKZBwKxJTzbOSi3IiCaYigCuHDXHcQ+8vb0HRkdHJ5orHc2SAVeuXFluzJgxC7VarTfHccXAsJbdCcCZVNBfwPkNjPeiWLFi27y8vCKGDBnyt/W0M4zCJ0+erLxmzZpvIyIiFoPflSAI8D3yeiIwEvK3ZhVtg1tM0b2YYx90wzelS5deunz58hU9evR4Z1gv8/9us2NAf3//Gps3b95AEEQLmFTw6YG+gVvbkMiij46BpgBy2sD0zTDMv1999VX84MGDf164cGFy/k+Reffg6tWrZcLCwhx27ty5RKlUgtHGRtgweUbUB3IDhc8hCyrMK8w5SoEiCAKMYYkhISFDZ82a9Zc5UczcGHCcXC7/UaVSVQXjmNiCCYTXZ0LxCUJRKQRBvKhVq9aiAQMGHJw8ebI1Uj8XVnFISMi3K1eunPb27VvnQoUK2aWlpWWZ4oWYVLyZ4tZWQIYjCELDsuzjKlWqzHj06NHWXOh+rjRpFgx48+ZNmbu7+8yXL18GsixbFEQZca6bWIdDLgNdSbHYzgkizEeWZS8sWLBg5IQJE6wnXq4ss/83CnO5du3aBqtWrVqj1WprQ3gcx3FgOU1PjxLHoOLMl5FTX3gDQ1HUu8qVK6/etGnTEjc3N5N33ps8A27evLmiv7//RoqiXFiWLSQOlBYDG+GThyYOmBF8eQqFAkRViK0Ex/lHiURyftasWUGOjo53CnJKTC7znM7mwVo9ceLE5osWLdpIEERVAa4RcFF58RJFx4hTqPDGcGZEKV8QbwsobgRBXFq/fr3f4MGDH+fH+PR9p0kz4KxZsypOnTp1l0QiaaLVakGJT7+A4DBJkM2Nux3EeoUIVAhCxNQkSaYMGDCgd0hIyM1q1arpl/GqL0Wt9xlEgQcPHtgMGTKk2ycc1TCSJEsgQGJdjaCAeZTHmFEys42NDadUKsGQdjc4OPj7BQsW3DGoU3l4s8kyYEhISMV58+btJ0mygVarBVN2un4ndi+ImQ4mCp2EQnwhyj54UbRo0Z2HDh1a5OTk9DIP6Wx9VRYU2LNnT+3u3buvkEgkzbVaLbgvaCTdwPyi0DY8ZhdZUvH5x4O8KYoCzMen7u7uvWNjY8+Y4iSYJAMOHz7869WrVx9gWbYOGFvwJFFdWJpAWBA3UZKpiNAoMDpp3bp1w4YMGVIg0lxMcbHp06fQ0NAmEyZM2MUwTAXwIWK5jfzjMM/AhCiFDCHJ4UwI98AGDKIsRVFalmVft2zZcmhiYiJs6Onw4Pr0J7fvMTkG9PPzs4+IiPidIIhaEE0BBMBBhXBAW7HhBe2OwKSg66nVao1UKn3m4uIy4BO62R/29vbWyJXcXlFGaP/cuXNlhw0b1u/y5csTJBLJV2CkwTdXDOKCZ0akC4KeD0wHoikOgAwZKiRJvnVwcAjetGnTDlMKjjcpBvT09Gx69OjR3yQSSTWtVksjS6au4N2MTkJBPAUjSxpJkjdWr17t/+OPP1qtm0ZgjLxuYs6cOXVCQkKiOI6rAqchVH+CDRjPXEFiaEbrAesznHzvy5Urt3HXrl0/mwpMoskwYPfu3ZsfOHBgp0aj+Rrkf11wCLjuh4scomgJkPtfdOvWbejcuXNPWguK5DXbGPd9p06dKj1lypQhCQkJEwmCgLxE3gWFrKS43xetA3FGBpKMZDIZSEWpFStW3HDw4MGfTaEClEkwoKOjo/f58+dXA8y7TCajULY6Qo+GKQUi4iKG2ASt0Wj4EDKJRHJ7+PDhPZcuXWqyli/jLtGC0Zqvr6/37t27wcFeTCqV0nhNDSSS4tZwMXAyUElYM+C0V8jl8phLly71zG9xNN8Z0M3NzTM+Pv5XgiAALoJCxBRHPoijXhCWi/A9iJyppUqV+n3u3LmQL2bSvp+CwTLGH+WGDRvqBwYGxjAMA6Xe+NJuuhJ8xUnU8H+EcSPoh3ASQvja4VOnTg3Oz/zNfGXALl26OO7fv38XQRAVxMhkYkZEJ54OMRSsnABqtPPevXtBVr+e8Re+KbV47ty5oq6urmfVanV1sZUUrZGMNnEYB2JOW1tbTqFQpJUtW3b7/v37x7do0QLQDPL8yjcG9PDwaBEfH/8bx3GVpFIpBZB44vAyMTUQ8ZAoASCv4Ofp1avXd1u3brU4uII8Xw1m9MIffvjh+8jIyPUcx/ElvMEmgAw06MRDw8HdEiIfMoijYKw7fOHCBX8HB4fPgLB5eOULA/r5+TWMiIg4ADqf2M8DYxfXMEDiA9IFhQqvwHx/T548ufPcuXNv5yHNrK8yEQp8KofWPCws7DDLsoDoxhvuxJD7sFnjCHjQdQQxgjZyjuNSv/nmm6lr1qxZmdchiXnOgP369au9ffv2IyRJVgFXA1KWcasm+oxOPEgvghNSsGZBMiZEvv+1cOHCjuPHj39gIuvB2o18oEBoaGjt4ODgExzHQRGd9LxQXcnYGSGdS6VSQOp+W7Vq1YkPHjyAVLc8u/KUAceNG1d58eLFxwiCAPmd9/MhYwqMODMoCYEZOajQShDE3ejo6I6enp4WjRmZZ6vAzF906NChSj4+PucZhikLsaRiA16RIkWIDx8+V0dDaw7Wk6gqFGRS/OPq6trj+PHjp/KKJHnGgPPmzasyadKkQyRJfgPVZHGxANf9RHpeutIMqNAsy6rt7OyObdq0KdDX17fAWDphUZ06darC3bt37R4/fiz9+PEjAOyi3R7C/yFNRFumTBlV9erVFQD0awo+rrxaxPCevXv31hgwYMCWN2/eABQlH0Gly5csyiPku4gdAlA85vGAAQPar1+/Pk9CFvOEAbds2VKlX79+ByQSSV2tVsvHduIOVLxWghjER4hw4BGxCIK4nJiY2KlVq1YmCWxrjAX3/PnzwmfOnCn75MmTMr/99pvzmTNnAgH6T4B04GvP6wDH5WtJYKDAICVAlser7777bqa3t3eynZ3dv99///1LU4uFNAbNUBvXrl0r7uzsHPX+/XtHiCHGHfMoZhTdqytPVDghIXb03ty5cztMnjz5oTH7p6utXGfAI0eOlPDy8jpIkmQzjuMguDa9OCQQBQ8hQnK7SAfkpFKp+quvvoo+duzYoIYNG1oc5ibHcdJPTuYaS5Ysaf7gwYPvnj17xuc+CmXSEKgwzJU+84XqR+BMqZJIJO/Lly8f1ahRo4P9+/dPrlu37t/57YTOjcUNTOjm5rbr9evXrjRNS3DGwzd6eDcuqqJ1KKQ8ASr3tUOHDnXw9vbOVRAufSY0R3QqUqTIOqVS2ZdhGMACST/5xOFCKO4TvQwUZrVaDcynUqlUN44dO9bV3d39SY46Y2IPJyUlFdu2bVu9ZcuWraEoqgowHawLoYKRsecGVV8CtDdFoUKF/hg+fPgsb2/vB61bt7YoXfrw4cNVO3funKDVassCPcUGGVh7sN6EbIn/pLkJoquyfPnym549ezY0N5eNsSf5i75SFDWRpunJGo0GkMvSKxBlFGQNA0eAO4JIBXGdN65everaqFGjLyt55CZVcrnt+Pj4rwIDA3snJyePlkgkFTUaDRRESYd5FzuUc9IdXJpAtJVIJHyVJoBdFGr0nY6KiprcuXNniwlav337dpE6der8KURYSZCBD0XOiHVBpAciqzzQSKvVfqAoag3LshCHmitXrjFg3759q23btu0Yx3Ff29ra8vGdkMOFjnqxricSPwFdV1O8ePHYHTt2DGnfvv3TXBl9HjcKURwzZ850i42NXaLRaMoL4LXppnOgDdAoI5Dg7HZXDOMh0sH52hZQIq1bt25BY8eOjXd2dn6U3XeZ0nOJiYkVfXx8fgOdEEq3IbsDHieKG/3EYW2Ce+L5mDFjvMLCwq7nxthyhQEXLFhQbsKECXslEokDDBx1XMjT4/+LW0HxbAYhigFOvvvx8fEebm5uFmHtHD58uOPKlSs3yGSymmq1WiaceOkbEr4xIXplhZmp74JACc2oRDba7YHuyFEtlFGD4IY3I0aM8B88eHCCJUgdsbGxVby8vM5B/KgYPxZtRLa2tjxeEJLSsCpN8JVGJpPdWrNmTafcQOE2OgMCYrW3t/c2uVzeXqVSydEgxZZPGJk4hwvugZOPIIgnu3fvbuvj42P2TvZNmzbV6N+/PwSbNyZJsrCAeZLuj0JGAryOPL5h4VH/+jIcfh++uMRmeXHAg7ARQlaJhqKohzt37vy+R48eubLzZ2cs2X3m4MGD1bt06fIHSZLFAS4fX5NI2kDRV3gkDTLSyGQylVqtPhUfH+/j5uZmVAwhozNg2bJlR7569eoXlmV5vQ9deHiZLiQzuA9qMEBs59KlSz1Gjx5t9vpI//79m2/evDmSIIiKYAyA6H1d4iUSiRCDGAIorM+ixCUMpH+LzfC4TiR8hgyTDwMHDgzYsGFDlLm7L9asWVNv2LBhCcK6TGdCoJ+ujQi+x05CUIk+Ojo6BiQmJu7Wh+b63mNUBhw4cODXGzdujKUoqgaMC8ncoN9B1AH8H8f0QJ0UJhyY7+XixYvbjxs37qa+AzDF+6CMV/v27cM0Gk0HgiD4OEVT7KcefUKFMu8nJCR4mbtuCHgzQUFBpwHbMi0NYrA/J/aK1iH/X9xyCp8ZhoEy4S8nT57sPnfuXDDuGOUyGgNGRkaW6Nev3y6lUulEkqQMx/FHxTjEO7swMH5wMpnsTc+ePdtt2bLlslFGlk+NCEEHEQRBNBPSZYxG43waEnLwv1y2bFm7UaNGGW3x5cd4vvvuu0G7du0C9DWZVqslUdI3Wq+4gQYOBtyPaGNjo1UqlclxcXFuHh4eRqlRaLTFQVHUfJZlh0GdcRT0CjsMnhqiK/oAYMU/mXkVjRo1mnj16tUV+TEpxnrn9OnTK8ycOXMvx3GNbWxsZEqlUdUFY3XToHYw1QEklNcLFizwnjBhwiWDGjGxmytVqvT748ePuwhlt/neIbUIPyRw8Cf4DBIcwzDKSpUqLXv8+LFRXBNGYcDg4OBqYWFh8QzDVKFpmkQnHjriM4MdB4No8eLFjyYkJPiac2RGz549K/z++++7GYZpStO0LLsluExsraZ3R9CTQC98GxAQ4BMeHm62JcGSkpIKOTg4/E3TdAmGYfhII3FgCHyHTkWx2wY2onnz5rlNmjQpx6pSjhkwISGhSJs2baK0Wq2TRCKBWEV+p0D6HkKuRiZwZGUSjneIu3u8d+9et27duuV63F1uLe4ff/yxzIYNG/YyDOMgl8v5ky+r5OLc6oux24XFh+ZU+MywLPtuyJAhXdatW5dg7PflVXvh4eGNAwICTlEUBZZpCIJIN8aILfaYcx5lUIA08AfHcc5gV8tJn3PMgLVr1+579+7dVRRF2eEB1igFRFdEutBh2E3fTJkyxX3OnDnXcjKI/Hw2ICCgdHh4OMDntwAEb+iLIYVB87Pv+rwb5g8/DYTTgmEY5t3IkSM7AN6qPu2Y4j2BgYFea9eu3QMl05CFGg8QwXVAxITCd6A2fWzWrFm/ixcv7svJ2HLEgCtWrPh6xIgRcTY2NtWVSiVfWAM5fSGBFi7EgDgjQmoRwzCp3bp167N37979ORlAfj67cOHCMpMmTYpgWdYZ+A52UdB/wXcHJ74lMSLSkdCYZDIZo1ar/1m8eHG7cePGma2vsH379pOPHj36s1QqlSKfK1qrsJZxt5EIlwhSl1I2btzo0b9//2zXJMwRA1IUteFT6kYfSJXRldGOK7TIICMMSEPT9DWtVvutufqXYmJiynh6em4mCMKNJEmI5eTF7swCD/Jzs8jJu8XziGWxgBTz9NixY27u7u7ZXoQ56VtOn4XsiSZNmtyAZF4aTgaO+2IeoX0c9lBk0VfTNH2IYZhu2e1Hthlw1KhRVT6ZpaHgBTiZM2wHd7oL1lHYOV7t2bPHpUuXLvey2/H8fC4+Pl7i5ua2lqbpngzDQAZDgb2gqjDHcXcuXbrUtmnTprmaupNbRF62bFmjcePGndVqtZCxw/sH4bTDM+YzeDdEDf0zefJkt+z6BrPNgDRN/86ybBfIZcuKMAgEB8LvCxcu/KFNmzZdo6Oj47N6zlR/r1GjRv+nT58uVCgUJfXM0TPVoRilX1KpVNmwYcOpFy9eDDVKg/nQiLOz89yEhIRgQGuA14tTlTLqEoROsix7jGXZTiRJgkRg0JUtBvTx8XGIioqKpmm6NMMwmbYh0gE1lStX3pCSkgL+QrO8hgwZUmXdunVHKYqqheAUzXIgxu00YPV86NmzZ6dt27adNm7TedNacnKyvFatWuBch9JoPPw9lhqXWSfACvquffv2PY4ePRpraG8NZsDExETbVq1aHZLL5U4qlSrL0w86hHxIJEn+u23bNqfevXubZZzn9u3bi/fu3RtiAcH8LDVWtoKhk2ZK9yOdF1KaSJJ89ttvv7X29fW9b0p91LcvS5YscQ0ODj4KyA0cx/Go21ldgnUUxn7r7NmzToYC/BrMgMLpF0MQRImsOocxHwSzKpydnX88efIk4Pub5dW0adPAS5cuLSYIopCu2gNmOSgjdBpFPtnY2Gjq1Kkz+8qVKz8bodn8auI+TdNVGIbRK35XMNDAKZg6cOBA940bNxrkljGIAWNiYgp/YsCDKpXKWYy3kRm1AMG6UKFCp86dO9fFXGv0+fv719i8eTOIGF/TNE2hwALrKfhZwoEL6rNDHb6RI0e6Llu27EZ+cVBO3gtJvK1atboFIZX66veCoRH0v4vx8fHubm5uetehNIgBe/bs2eS3336DLPfieOhOFszH+/xmzpzZ5qeffrqYE+Lk17MQKUGSJPgrPWmaluKZ/fnVJ1N7L+aq0JIkefXJkyeuFSpUyHOod2PQpXv37n0PHz68XqFQyPVpD52CkLLk6+vbKTIyUm9cUb0ZEHQ/FxcXqEzTMjPcRR0dhiq1VzUaTXN9BmOK90Dtwj179gCadwk8ZMnYeXumOPas+iQO20JBFkOGDPFZt26dWVq6k5KSpM2bN/+b4zgAdUKodBmSAgsyAXDfW4mJiXrrgnozoK+vb8P9+/dDwDW/COHCw5TEKNdCb0GLfbdlyxbXfv36maVIEhkZade3b99DGo2mJcuy6fAaaPxWEfT/IigWNcIvxMePHzua6yk4a9Ys559++glsHYVwYwweJSOI3enBFxC/LZVKU7t27drh999/1ytOVm8GlMlk0Wq1uv3nwAAJ/1KE64Lvgih+Tgjj0VSrVm39vXv3hme1k5rq7x07dnSJjo4+SFFUUXF0vJX5dGcRQIoZwzAfe/ToYZBQ/gzfAAAgAElEQVQ4ZoJrAGKU60GyhACTyUfJ4LVK0NrH6k5AoMml27dvu9SqVetzPGYml14MOGnSpJrz5s07Q5IkFEbk4xzxC+mDIqgJOP3erl271ikwMNAsqxfFx8fbeXh4gNjtCCC5OJyisZHLspooU/1dF9aP0FfIGLh6/vx5T0dHx9em2v/M+gURMqNHjz7DcRxEO5EwVjh80MEjTmGCNQEIdAqF4v2IESM8ly9ffi6rcevFgBUrVpz58uXLiRqNRoYHqOJ11/DkReiIra2tsnXr1oOPHDmyLatOmOrvwcHB9RctWnSapumvdOX36WuIMtXxGatf+MaLwfzBKfhu2rRpXr/88st5Y70rL9sB41vNmjUjXrx44fvx40d+A0bxvmgDhjUAY4awNWwzghPqanx8vGNW5c6yZMCwsLCqQUFBZ1mWLSuRSEj0IhzaDi1OzDcGp9+r6Ohox44dO/6dl0Qz8rsO0DTtxTBMuu6nKz3HyO80u+ZwUCM8egTcTyzLxnMcB6qLWV5QLmDs2LEnOY7j40TRWHX5gTExlJPJZO9mzpzpnFXSbpYMWKVKlRkpKSmTIcsbuB1VssX1H+gMMCFKvpXJZGqFQnECzPZmSXWCIDZv3lzR39//D4qiygNUvBhZTFdtcnMda076jUsBeH0FYVOGjfjl7t27W/j6+przRnzD1ta2DtSzhBhRXaInoiFiUIlEorG1tV3x4cOHcdnWAffs2VOme/fuUPq5EoKawI9cXfFyAsDru127drX67rvvzFL3A4J9ypZuu23btmghQp4XL3CoDRzrJicL2NyfxZGlUSoPHv8rkUjS+vXr137jxo2QOWOW14YNG5oMGjQIrJpQMOcLnCMYkC7dkIWoBI57tH///hZdunTJEMAp0xMwICCgVXh4eKxUKi0EnI+g0/G8N+gAzogkSaqcnZ2DT58+bbYAS0Jg7nmSJOsDkC6u4+jKjTPLVWXETotPQdioYI1gcJPnkpKSPPOjBrsxhglxoU2bNl13+fLlAQAomlGMqI40pg9+fn6dIyIiTmbUj6xEUDj9GmeFa4n5AEHkeLNo0SLn4OBgsz394uLiqnt4eEDUDoALZ0UjY8yxJbcBTuOXBw4ccDHn4i8//fST28yZMw8BfIUBxjctTdNnGIZpYzADLl++vNq4ceMuaDQaCLrOcBHiUBMURYHSDQu3hTmvKC8vr55HjhzZbInoZvk0LwofH5+eUVFRUfn0fqO8FiAoGIapAFInLg1m0jhvjFy0aJFjcHCwTh04Q8by8fHpHhUVtR04PlMlUkAXtrGx4dRqtSI4ONh9wYIFWfo/jEKR3GvkCkEQ9YUCmbn3lgLQsrBBg0/wLEEQruY85LFjx7ZfunRplFQqlYMxMhMfaPow5XK5okOHDp337dt3TNfYdTLg1atXCzdq1OgCTdO19U3LACh9uVz+4uTJk01btGhhFNTg/JgsYeyQklIKYUbmRz8s5Z3CIoWTIOXy5cuNzbl2fUJCQgUXF5ebHMcVk0qlpJ6Fc8AneOHBgwdu1apV+w9Ss04GnDdvXqMpU6acYlkWsoOz1IHgOOY4TlWtWrWpycnJi8x58WzZsqVa//79L7MsC3XZsxy7OY81L/ouMCAnl8tfb9q0qamfn59ZV+O1t7dffOfOnZFQdk+fExDiQ2Uy2b/z58/3GDt2LEhWX1wZLbCDUqm0vUajyTLjHStp9e/OnTudevbseTcvJja33rFkyZKGnwoyniNJ0tYa62kcKgN4LUmSHxYvXvztmDFj7hin1fxpJSIioomfnx/AbvDhaVn1QrCgQ8m9AwRB+GbJgJB21KZNm9tarbYSy7JZpmJAg+B0LFKkSHRCQsIP5gwvD2MZO3YsVEONApRvPVCxsqK/9ff/Y8OmTZkyxWnOnDn/OQXMjUhVq1bd8fjx4x7gmNez74yNjc3Dixcv1hPzx384ODQ0tHZQUBCk1RfVR84VamkrRo8e3Xbp0qVmGfOHE7FNmzYTT5w4MTsr14uehC/wt2GRIequXbt23bVr12FzJ8qkSZOaz5s37wRFUV+kKmU0LiFH8u2CBQuaT5gw4Qv81P8wYPfu3b/bv3//NoZh5Hr6O3jf3+7duxv7+vqafTnpokWLxqalpbWFSqrmvlBMpf+Cn1hbp06dqTdv3pxvKv3Kbj/i4uJKenp63hTKXuuLCqgcOHBghw0bNkCIZvr1xcMC9ALocNXkcjmF4OUz6+hnRG8N5E05ZHdApvScTCb7R6vVloD4z0zqWphSl026L9gmzhQqVOhmampqc5Ik1Sbdaf06lyiTyb5Vq9WZiqFY7ixYQy9zHAepbelwa18w4JYtW+r269fvHCSf6gPJBhYegiDS+vfv32HTpk1miQf5H6WYJN9yHMdbQK0MqN9KzOwuLC6U4Tju4fPnzxuVK1cuNect528Lc+bMaTllypQ4wRiTZWekUikUdPknMjISAtPTYRu/YMCWLVsOOHv27Gqhsms6Jn4mrbMSieRpVFRUS29vb7MXP2/evGlnb2//FBCxULWcLClrvSFLCmCW8kdPnz61N1eYCnyg169fL9ugQQOo5lwuM2sonkXDcZxCiLJKjwj6ggFLliwZ9fr1a2+pVMqnXehxAmiqV6++IjIycqKDgwOYWs36Sk5OLlqrVq0nBEEUpihKL2BWsx5wHnVeMMXzzvjnz5/bW8IJCKRzcnIaf+bMmTkIpCwjcgp+ckjXY77++utf//777yHo3nQGPHjwYPFOnTpBAHUphASlhxFG6eHh8V1cXFx0Hs1lrr7mr7/+KlazZs0nAEGAV/rN1ZcWgMaFjRwY8HFKSkqdypUrKyxh2P7+/q6bN28G4KZMwzUxhz1A+L+Ijo5u5Onp+RJokM6AixYtqjdp0iRwQBdBoLNZlFkG/e/9kiVLHM3duYoWw4MHD76qXr36Y2BA6wloXBaBLB6O41Lu379fR1dIlnHfljetHT58uGqHDh2uCvUkdFpDYfOBmopY7OjHVatWOQ0bNowvSpv+kIODQ78rV66shyqveoie8CzsaM9u3brVqG7dumYJuiOeJvwEtOqAxlnEGGo2mJUf3b17t44+aGHGeXvutgJ5giRJgsqSJX4olris8vDw6BcTExP5BQMSBAERCg3whEMx1qdIJIUId7NPPcKniOM4iO97A1XUrCeg0RcvmOEfJicn21sKAwKF2rVrNyU2NnYmRVG0Ls8BjiEk8A/Q4U+CIBqmM+Dp06eLu7i4gP5XWrzwcMgB/oH/V4JV+Pv7tzNnqAHxEgMGhApOViuo0ZkPGmRkMtkdlUrViCRJ2Lwt4poyZYpbaGjoEZVKJYMB4QHaYkkSK+Ty7I8//mj27bffPudFUMh+mDx58mmO44qIH0L/F2F+gv73ZuXKlY7Dhw83yyq3umYfGFAqlb7SarV8JryeorhFLKTcHATKCSxXrtzq58+fj8rNd+V12zt37mzUu3fvRKiUjECp0UkozpYQ6AC883bOnDnOU6ZM+ZNnwD59+vhEREREsiwrhwwAdGzCb6gWAsoMgL8AvMSy7LPDhw83RdacvB54br2vTJkyp/755x9naySM8SgsrCdN06ZNJ128eBHKu1nMdfny5a+aNGnyUCqVFtVqtSTOPxll05Akmda3b98uW7ZsieMZsE2bNpNOnDjxC0VRwFnpxBG7IcCaI6ACQ0HCuxzHAWy3RV1OTk4zz58/H2KNBTXutAJYl6+vr88ntLyjxm3ZJFqDIJTyyH0HoiZceDYNkqYEo5Ta3d19eGxs7AaeAWvUqBH9119/eYkRn3AUbBx8leM4rZ2d3a6PHz/6mcTwjdiJwYMH9wwPD98KCZdGbLbANwW7/oQJE1rMnz//uqURo1q1assfPHjwo9ghjxtgROIoBKbvuH37tj/PgLa2tu8VCgUffoXjXeI6EF7/AXYzb2/vbvv27TP71BLxYpg/f/63EydOPElRlI2e8bCWtp6MOh5M7/mwZs0ahx9//NEsy5NnRpRBgwaBMfKgRCKR4TAVuE6IMyO48GxsbP5RKpVlkR8QIhN4b74Y9RdnSOy3tFWrVrVEzkSjzlg+N7Zx48ZvBg4cmERRlJ2VAXM+GRgD/itkk5s1JIUuimzevLl2//79L6EiLmCwBPFTrAOiU1DID3xHEERxMjw8vNzAgQMfggEGi1xPf1gH3DhHUdSHo0ePNvnkUEyP6s75VJlGC2fOnCnj5OT0p1CMM0vIAdPoten2AoEyURT1LCEhoWGrVq3AzWNRl2CIeQA4snK5nERpfLgEKbaoS6XSj5s2bapCfvJhtAgKCgLk3kwjYNDpJ4QUvb148WKDpk2bQuaAxV0URd0jSbKaFRXNaFPLSKXSOxqNxt5oLZpQQ5BF06BBg/ssy5YUV9TNxJWlCAsLq0eOHj3aZ+nSpbtJkpRkcmTyUOPwO03TTOnSpaPPnj3rX61atbcmRAejdaVmzZqh9+7dA3+V1RCTQ6oKC1BTokSJbf/++++AHDZnko/fvHlT5uTklPD27dtmwIB4ChKuwkHnMYZUTpkyxYf09fX9effu3SEolEZseEEFN7CHte3bt58QExOzFM/sNUnKZLNT48aNa7F48eLjEonE1grMlE0iYo+ByhIQEOCxceNGwBqyyKtBgwahf/7552iWZWlgQFg3IsML/3+kB3Icpx40aNBA0s3NbVV8fHwgckHgD+mKigE4gYEDB/quX7/+oEVSkiCImJiYyp6enpBsmSksv6WO38jjghX5NC4urqWbm5vZJ21nRBsfH58hBw8eXAV2zMxiQtHzHMdpOnXqFAxVX7Zdvny5F5yOyIsvPjbxikASiUQ9ePDg9qtXr86w4ouRJzDPm4OKSOXKlYt68eKFl1imz/POmP8LtXK5/Ozt27fbW0oakq4pGTJkSNd169b9npHaokMX1LZo0WIxWatWrZPJyckuKP1GfGzCy+BIRTogRVGq4OBg5wULFkDlJIu9vv/++4579uzZDehwFjvIPBiYTCYDGAavqKioU3nwunx7xbhx49w/AQ9D9aR0YybuVYCOiWwsTM2aNXeTlStXPpuSkgJITenBx7pi2JA/hyRJ5erVq1v++OOPkIhosdf06dOr/Pzzz5CiVdxiB5n7A4PA41ehoaEOQUFBFuf/w8kXFBTkHBoaCiBNclHiAn8bfgIKEWZs+fLlD5BVqlRJfPToEZQTS69/LQKSwd8DGYhpe/fu/bZr166Q02TpF++OALhGNFA8pEjP2gAWTSOcBni0lOCIhtw3KGbiQJKk2WMGZTaR06ZNa/LLL79AFWBb8X26UpQgoaFSpUqfGTAlJYVnQHTyoQd0PAgM+PH48eNN3dzcLCYNKSPCli1bdvmLFy9+LFSokCQtLY2/zdbWllAoLALSxCgbQ2b10uVyubJ06dLzHj9+/LNRXmbCjcyZM6fe1KlT/2BZtjA68ZDYidMIi6lmS5YseYAsVarU5X/++aexrp1dh0UURIp3169fb9igQQOLFimAeFu2bKn/Ken4jIAT+oUuDL9bT8AvOQLFPgopbCzDMC/Cw8NbBwQEWFz8p3gvgJIOwcHBFzmOsxP/hjMg9hkqRr0gpVKpQqPR2IhlVLEpFY/pe/HihX3ZsmXNtgagvhsp1Aps3759xIsXLzrSNE0BDUC00hGep2+TFnmfro0ICvZotdrYpKSkrpYAWZnVxC1btqzGqFGjwHUFJf2+uMSHG2xQ3Gdx8xXEOkLRwPQ40Cx2dr7k7uvXr2uXLFnyfVadsoTffX19u+7bty+CYRg+WB2laMHfLFDjLGH4WY4BNiUdbitOq9W+69q1q8e+ffsAN8jir/Xr11cbPHjwFZIkiyJVDs8BxA80VDORIIjXYPnkGTATyydOPB4JjeO4r0mSBAXb4q/9+/dX6NKlywUh4ZLEfaIWP3gDB4hoI5FIGK1WeyM2NrZ1u3btIOrf4q/w8PCqAQEBV3EGxActDsyGmoksy77hGZCiKDnazXWJoth3LEVRjxmGqV5QGBCIWK9evem3bt2CcD0pfupZdcDP5nV0YSdhWoMGDcZcv359vcVznjDAiIiIqn5+fhkyYAZi6RugXnouINyka4fHFhqEFT1iGKZaQSEsjBPyvfz9/c8RBPEVCljQAzW8QJBIHLgBwfoURd0PDQ1tO2rUKIsNPRNP7t69e6t269btKk3TfGEjHEtJLJLCs8Kh9hbWUzoD4mIoIizSdQTGZGUy2d8qlaoGHKEFYoX9f5DHJBKJK0BVZCTbFzB6fDFctHFTFKVgWTaMIIiQgkSPqKioaj4+PsCAPLI8xmTpn+GDSNV7+58TUFcoGjyIEitJkvybZVl7gXELDI3HjRtXOyws7AxJkiWtiGn/n3aRxMRIJJK/QkJC3H/++ecCc/oBNQ4ePFi9U6dOwIB2OAPiDKLDzvJfEVQXA6I0CoZhwAjzN8dxdSykyKJBG0jt2rXn3b17d5xMJuPrx4MYimOAGNSYBd2MoYApKleuPDslJQVKfBeoa+/evTVABKUoqjCyeCILseB20EWPfyH8LI3jONvMrKAoGBvAZKDAxqtXrxqULl36Q4GiMEEQwcHB1UJDQ89xHFc6s5pwBYku2AkIUJX3xo8f33bBggUWiZSQ2bxu3769Vp8+fcAPWFiXzoc/Kxxy4Ap8DSIoVCstJJZZ4f8YDAWfDSEUZHmSkpLSuHLlyhaH7aEn4+ykabobwzA8FHlBvzB9GHS/eZ+0lZkFkSbr1q2rHRgYCAxYSB9wXqG69EtgQDjJ+PAZrJINT0MRFijPgCRJPr9y5UqTRo0a8fXNCtq1YcOGrwcNGnSKJMlKQKKM0I8LCl1gkwbLp1qtvh0eHu4REBDwvKCMHR9nWFhY3bFjx0KKns7DTIdqB0bM56RMJnun0WjSvfdi3xYOzguWT5IkX544caKJq6vrs4JIaBhzxYoVx7x8+XKWRqPhA28L+AUL6UOTJk0CL1++vLOg0gLqawYHBwMD8tkQ4kQGcbQQwLnQNP2MLFGiRGJqamoLlUr1Hwg+HVm8QOzX0dHRDh07dvy7oBL7yJEjJby8vA5TFNWUZdkCDdxE07SaYZjYQ4cO9fL29i4Q4Ym61v28efMaTJo0CTBv+LhqHQz3hQtCKpWyEonkHFmuXLnTz58/d8KrAeGnnoib+WyI8PDwbwtChHtmG8ygQYPqbtiwARIwy0skElIXCI8lbFBoE8bCzPCaB2AYeDBw4ECvjRs3Wnx6WmbzOW3atGazZs2CfEA+rhqP/cQTdDGjFVu0aNFEskKFCkefPn3qAXUBxWZ1MScLx+qHRYsWfRscHAz1BAv6tepTYEKAWq3+IpsEEVkul/Olic390iEJgd4HAM0fSZIMU6vV0819jDnt/+TJk1vOnTv3hC58XV1Jy6A3lytXbjdZtWrVmIcPH7aDE1AcXgULCYwMyLEo/J46bdq0lr/88ovFFdkwdBJWr15dZujQocdomq4LcHRC6bYvaGZom6Z2P1o8NjY2/GaCjE40TasYhjm+d+/eXt26dbNIfFhD5mL06NGuS5cuBYlIip4Tb1xAS/hO4CematWqu8mGDRtuuXbtWm8c/SuTjHhQLhUjR45svXTpUsgQKPCXr6+vw+7duwGisYxMJiOF8m0Wk6yrK+CcoiiGZdm7Q4YM8Vq3bt2jAr8IPqUIBQYGeq1duzYKMSBiPvwv+ixsYlAhaTXZsmXL5efPnx8KUHzY7vZFrhsuilIUpfH19f3h999/32sl/GcKlClTZsHLly9HkiTJ5wzChYJxLaHACxbnCUOD4qxv69Wr9+Off/4JMHzWiyCIbt269d63b98mqLIMBEHMpitoXzgJtY6OjvPJtm3bTj9+/Pg0QMbGQ2Z0uSOExcTUqVNn/q1bt2ZYOtCOvisrLi6upIeHRzRFUU04jpMhR6yl+AgLFy5MpKZCvAYBRrg0iqJ2JSQkDG3VqpUVHEdYJE2aNJl65cqVGXCQ6dKZdeAraTw9PSeQffr0Gbpt27ZlkImEP5gJMhrUNkv5448/mjRs2PCNvovU0u9bvHhxxaCgoKMURdVmGIbfBUFvUioh39l8L3xN2NjYqJRK5dHIyMj+PXr0KKiRUP+ZTGC6kiVLnnz79m1LlmXTa0PgN6IgF0GEgD8qf3//IeTMmTObz549+7RKpZLrAmYSv42iKMjkfXXlypWmjRs3fmK+S8v4PR87dmzNsLCwEzRNl0NGGeO/JX9alMlkarVanbh+/fqegwcPtng8IEOoDNWR7O3tkymKKgMMiER22LxQnQjUHubWUYSEhLiSW7duLR8QEPBAq9XyCNDgswArjS5QJsG/AdEw7/bt29e8S5cuBdr3o2uSatWq1Ss5OXmpVCotAXXmcV0Q9weZSjY9Hm6I+69EuouaJMmLffr06bl161ar0UU08XFxcWXbtWv3J8dxxWmaJnXlA8IjMpmMQEY6W1vbD4sXL25IQmkle3v7t1Kp1BYxHuJSMTMCZwNjsiybOnr0aDerJVT3Punm5tY9Pj5+AxRsJEmSZ0LcJ4h2SF0IyobsvLlxrw4LuFomk1328vLqExUVZd1wdRA9LCysenBw8DWGYQqLESXEGy0m0oP6VgKFn72DTF5INMUNCOKIGKxxVf369cfcuHFjTW4sAktos0WLFoPPnTs3H5gQ1YwDeqL8QV2Ken6NGzYC5O/FDUcQZkYQxJU2bdoEHDt2rCAgoWdrCnx8fNpFRUWBK0omtnpi2SL84YWlIr3kOK48z4AVK1Y8/uTJk9awUNCujC8Q7OTjO0jTtFYikRxTqVRQPch6ZUCBxo0b979y5co8mUxWSq1W03Ab2tTgsylYSXWJwoLbScWybGKbNm2GnThxwhr1lMkqL1OmzN6XL192BtbQYe1Md0lguiFTpkyZQy9evPDhGbBdu3YT4uLi5oA1R0cOYHpeINwrKJY87Ny5c+dcW7RoUWADcPXZedq3b9/uxIkTG9VqdXlUugptbqYSqoastUJqEadWq5UymSx20KBBI1atWmXxCOj6zGMW9zyiaboilDTXJdmIT0EALW7duvWYY8eOreIZsHfv3j9s3759K03TPOyecEzy78Sze7H/QypFSkREhFOPHj2sltAsZqd169YtT548+StBEDUkEgkPZ2Eq+h9useM4DoKrUz9leUQNGDAgaMOGDVZrZxZzm5ycXLpWrVq3KYoqDipcRreL6kOo/f39fcLDw2P4B8AV8dNPP51EJZkz8t7DvYJ1FHDt302YMMH5l19+uWmEHcTim1i0aNHXEydOjGQYphFFUTKYLFPxE4J1jmEYLcMwYBjYsXnz5l/8/f1fW/ykGGGAAmQlhGUCJP0XDIiHoSF0QeE7xbJly1qOGjXqKv/AsWPHKrq7uwMjgcGAv8QxbMgtAQ3BrglOoVatWg1KTEzcaoRxFIgmDh48WLxv377z3rx54ytgjKaH/+UXAWQyGYic4Ga4U6pUqbDIyMidbm5u5h09kIfEnDVr1rczZ848pVar+TQkXbo90guFg42TSCTvkpKS6oMfHefYFIlEUlGr1fLfZdQYNjYAP7yWkpLiVLlyZWtIkgGT7ufn1zIiIiKcIIiqYDmTSqUkWEfxEzEzETWzudGlg+B1+3AUN0iJIUnyvVarPdCrV6+fd+zYcd+AYVhvJQiiSZMm427dujVfqVRKcAOMeP7g/0LNRFYqlT7WaDRf83yGqPgprm9iYmLiLDAU6Kmf8NVdYmJiWnh6ej4oCLNx+fLlr2bPnt2Mpun3v/32W46yQXbs2FF2zpw5A2/cuDEWTkOwoKGkaDSRYispHhQP9BZj+OiaA9z5izZWiqIA20et1Wrv1qxZc9acOXMO9+jR42NO5tDX17f6mzdvKk2ZMuWOh4dHgdEdCxcufDc1NbUG7kFAc4O5HdJtKRRFaTt06DAoOjp68xcMCEfp1KlTT0IIowHWubSRI0e6LV++HFLxLfKKj4+XXLlypf727ds7JiUlDZPJZIB8rHJ0dJybmJi4OKeDHjt2rP2qVauWq1SqpiRJAsYMiKVf5GZiuJtfqAf4u3WhGMB3uMEHYBA4DgoXaf+hKGrfkCFDFq5Zs+ZhTsfg4ODgl5SU9ItEIimm1Wo/ODo6hvbv3/9kly5d7leoUOFzZVMLvLZt21apT58+UMa8BCS0wxBxVQ0xIMwfSB5CFoQyNDTUdcyYMfwGnn4CRkdHf925c+frLMsCQhr/vR7hUuoGDRqMvH79+jpLo29MTEzloKCgbnfu3Bmr0WjKgKgol8spATsHssE1LMumxMTEtPX09MyxqX769OkNZ86cCa6gJnK5vIRKpZJCTUKGYXRa1lByJx4ymJFfEQrpSKVSrVqtBsPKsQkTJsxesGDBnZzO2fnz50s6OjpulUgkzgzDABoYBbHCkC8IwcYajeZVo0aNVi5YsGCPJUpJ/v7+zbZs2XKKpulCQoRY+gYJH/D5EHgJpMaPsbGx9du1a8eH9H0xuTY2NklqtboJBJQicSULZzFM7PWzZ8+2cXBwMPsyVJGRkfSFCxeqHzhwwPf27dsjCIIoBeGxAiPwxAV9Ci4h3k9LEMSbgwcPtujUqZNR9Ke5c+dW3bp1q9uff/457FNdmGpw4gpOfIiy5+cLRygAsRROOXTBbgtMACjm8E8ikSi1Wu3TOnXqbOjQocOesLAwo/Tz3LlzZVu0aBFFUVQjIQULQJ75bmCnAOQOQufe16pVa3WHDh32//DDDylOTk4WAWnp4OAwIikpaTFJklLEJ2IUCfg/zJegh7NlypSJevHiRTc0X18wYMOGDRdcu3ZtnDg3MJOdEna7f8LCwtqOHj36Rk531Px6fv/+/WVnzJjhePny5YkEQdQBnFSapiE9i0I7m1j/gr4K+hUYMj4sWLDAa/z48eeNNYakpKRChw4dqvbTTz+NJ0myPkmSEGkPp4xMJpPRsEkig5mwMcBiZwedVQIAAB4aSURBVDiOg/AxsGIC3uulsWPHznVxcXnavXt3o7kVhGqw+z65LGrrwkBBkVMouFuoBssIMBYvq1atunn69Om/9e/fP9lcy9wlJCQUcXZ2BtULaPB558G8BxlIkBo3N7cx8fHxq3Qy4MyZM1v+9NNPx2matjGg+quqefPmIRcuXAg11uLLi3YiIyNlBw4cqL1nz56A1NRUH5qmKwDatVwup3VBNOJBtgiqHwtSAN1K4e3tPeTQoUM7cqP/AIV4+vTpIvfv37eVy+U2KpXK7t27d3Zg/pZKpWobG5s0Ozu712XLlk1t2LBhKiCXu7m5/f9oNFKnAgICmm7bti1So9FUgXqJ6LTD9VRdlliwK0AmgODs19I0/bFQoULx7u7uqydMmHC5VatWZpVfOHXq1LqzZs1KpCgKDGi8uCmWFvGcWgCxYhgmdenSpY6jRo1Kj6v94gQEK1+TJk1AKef9gXrogLxERBDEPY7j6ppDybLNmzeXjIiIqJuQkDD348eP9oDlD5ZfUF5wfUpXcjJu6MBhGlBwAkmSqhYtWizcsWPHnGrVqlmULw1O5DFjxvyQkJCwgCCI4hKJhEaiL2600xVLjJ8OaF0xDANxj4AtoyJJ8kGHDh2Cu3fvfn3gwIHmUldiO0VR37Msy4Mw4esFF8URbWiaBpXg0c2bNxvY29unW5z/o+A3a9Zs2cWLF4cLCvV/8gJ1bKR8fuDChQudgoODTTZi/pdffqk1bdq0sSRJenAcV0EAUIVUoQzDh/Q9NPBYP5qmNRqN5p8VK1Z0GjFixCV92zDl+1atWvXNsGHDIiUSCWT7A+SGzpjH7IxBOCWgqKeaZdmXYJ1duHDhqqCgoLvZaS8vntm2bVvRfv36XWNZtjIufup6N8aYak9Pz4CYmJgvJKT/LL7hw4e3W7du3UGNRiPTJ2VGOCVV33//vZ8pAjUNHDiw5v79+4e8efOmL8MwJYSAaJ2wATmZPNx3WrhwYSY1NVUxaNCgQbNmzTpYrlw5HlDF3C4Izh86dKjHmjVrthQuXLhEamoqD7VhgJtKryFj6wxiUbVSqfRtsWLFtnbr1m3d+vXrTY4Rg4KC6oWGhoK+z9dUyexCQRNyuRxyaB3nz5//Rejmfxjw8OHDVTt06HCdpunCGZnAdbyQkclkdy5fvuxib2+f77J8YmKi7YoVK77ZsWPHDBsbG0elUlmSJEmJjY0NqVAoeIuU2HqYFSEz+h2Pm7WzsyM+fvyIRHcwOYNB5MXOnTu79ezZ06xOw507d9bt2bMn7NZgZADgYT6xGI3RABUlS9Li6W62traEQqHgGdHW1vaNQqE43qVLl7nDhg277+npaRIbWdWqVZc8fPhwuEQikeAW6IwG+lm7YV+cPn3a3sXF5QscJZ3il42Nzd8ajaYSpFdkSb3PN0B824eJEyd6zp49G2qp58sVGRlZYvHixc7nzp0LJkmyAWwiUFIaQr2A4RAcgDHru4MEgBzeMGikG8JCAkAmuVzOqFQq1bfffjtr3rx5EW5ubjl2fOcmcRMSEipMmjSpU2Ji4hypVFpMpVLRsHHBWHC6GZOG4vEAPUGiUKlUsK40DMN84DjusqOj44KZM2cm5icjbt26tWbfvn2hUnJpfdQX4XSHzeS0QqFoKx6rTgb09fX1271792aUnpTZhGPxi9qKFSvuefLkyQ+5uUB0tX3gwIFSa9eubXT8+PFFaWlpEBZkS5IkH1EiFqPh/ygDXIjNy3F3CxUqxDObOPQIMaNgAdNC3OXo0aP7BgYG/lG3bl2juQVyPAAo8PDggU1YWJjTsmXLfqUoqizHceDbSgcYwg0LwHwghqal5TzIBeYDD5fT5XcG+sGJCIwok8kutG3bdtqoUaPu5EcxmKZNm464evVqKPg+9cF8FTaqtOHDh7dduXLlf9xUOhkwNja2ipeX1w2WZYsYkLUNRPp37969jt26dfvLGIsiqzZiYmLKDBgwoPvTp09HcBxXjaZpOcMwfFYyTCqCBESTjNdp0NPCm1UXvvhdEJ/479BnYHa4IBQJSlJBKJhUKn3v7e09YsKECeecnJzytcrUuXPnKq1atarxli1bVsnl8tIajQZcCzy2JdAQaKZrXAYRJoubxacpMDdsjqKSCLykJZPJIKIHalJcrVmz5ooFCxYcyytofMH3d4kkyeqwOekpBbByufzxqVOnmjo6Ov5n083QAti8efOFFy5cgEDhz6EfGVyoE8Jf5eDBg7uuX78+xpgTJG4LdutPsYZuJ0+enE/TNJx4POPBfWLGEoPkwGkFeiBsLOJA5ez0GbUhfg+esYBOXRCBhfsgGFrLcdxHDw+P6SNHjjzj4+NzJa/cOIDe/Ntvv9n/+uuvTsePH/+Z4ziIb02P+MElBF00QTQ2Bv2QQQdoBNIUzA26cJqK3ELoRARz/iVPT8/Zo0ePvpjbJ+LQoUMbfipCmqBUKiH3T99L4+LiMvz06dPrdT2QIQOOHTu2dVhYGDASD1eY2YVNBJiTb1y/fv1be3t7MEAY9QKR0t/fv/HWrVtXcRzXAKDgwVKHGA93hsKEoSRIseMc7tfHwmtI5+Ed8H4klqD2cesoohO2ScBCgggRPhl25MiRgR06dPjL29vb6O6c5ORk+Y0bNyodP3682vLly9fRNF1WKLNNo/JqOF1QrCmOkIAAu1CEiyH0yepefD7EQQ8ZBYUIcacQXA4n4h9du3YN3rNnz83c2shomo5nGMYZVH09Nx+YXyhm1CKjxPUMGTAlJcW2cuXKj8HpCutVHG2PEwx9huROhmHeDhs2DDIkrmZFdEN+h2Dln3/+eTmEZdE0XRSMK7khRhrSJ2Pci42BFYqeAODVx6ZNm65r0aLFBTc3t8fg1ihZsuRHSGWBU0II7QLxELImwCf3xTyC2Pjhwwdb+Hf8+PHKiYmJLS5duhSg1WpthOgVkIthTkl99BhjjDO32hCYFRAatCqVCiyMMYGBgb+sXbs22ZjvnDp1ao1Zs2aBDlcC6C0G3MWTboGmwmYFKscDjuNqg/ph0AkIN0N0wrFjx+aq1epMFzvMP+oQ1Ito0KDBjKtXr843Rpzf9u3bq4eEhIx4+PBhP4jQAdQocI+YCpyDsSYZuUaE2FOwHkEgNafRaMQTB7sqf4ILmyIPJYkX1oEFgszjYAEWAIL5TRSYDkEQGqvv+d0O5pfkbGxsNEql8nXt2rWXh4SEbPH39zcKZlH9+vVH3r17d5FWq003vuBSFk4DLAFa5e7u3uvIkSN7MqJRplEgERERTfz8/BIFUS9LOqOUe5Ik3y5ZssQ1JwHa586dKxoYGOh39erVyVCFVi6XS8UxmpbAhGgS0a4JRMZFZhEkJM98GVzpcwltokMRWWaROI4zL/7OLCfXRG9A4xQlMYM0AZE19xs1ajR148aNMQ4ODtk22QrB56dIkiwnk8kgJU0ncBkikWAxBt/fv5GRkc169OiRIZp4lmFYRYoUuZKamtoArD4ZlS+DFyNdBxaMXC5Xp6am7gLAtezM2/z587+ZOHEiZAw3kMlkNmq1mg99ykyny857TPkZASIw3XeJMw58xsSc9GHoslgLgEtflJsz5XFnp28o5QfGL0oHgmD0VJIkE+fMmTNq8uTJ2UL2pihqk0wm66lUKnl7CLwD5ge3qouNcOCjL1as2G+vX7/uk9mYsmTAYcOGdf8UCxhB07QMGsJym/h2cWsfrs8QBPF0586dbXr27GmQS8Le3r7f7du3f2YYpiL4IWGh4bs3OiGgH5agA+KTA5MI9MRxW3D6iidSl48T3aOLGbOybmZn8ef3M7qMabAuBOAwvpQ2xOeq1eqXjRs3/nnv3r3bDAmUBxWod+/eUPsdkrLTgavRuNH7dbgkUoOCglqHhoZezBEDgpXRxsbmuUqlgjhK/iSCCyYYF5Vwq5Cgm0BmwOizZ8+u1WeSli1bVmnUqFFrZTKZi1qtLownwaLn4R3AkEi/MbYlU59+5sY94nEgC6Q4xUUXU2XGhGiDRPdklO2RG2PK6zZR9AyMEYf/R7YJyEagKEqp0WiurFixoteIESP08r+2aNFi0Llz51ZIJBI5yg3FMz5wizDGG6xMJnsQExNTJ6uUsCxPQCDkgAEDfH799VeohsqfgvjEwkuRmVhUgATAR55t2rTJtX///pmegp06dWpz8OBBSFKsIWBmps8fEBYREV+AlsJ8MFBxOJuuxSvW69A9mUkBGdFIXGogr5nFmO/DxU/ULo5aIJIgkJHmca9evfx27NiRKZZRZGRktR49egDkBOSK/gclQkxfzBWl6t+/f+dNmzbFZjVWvRgQIgDatGnzgGXZEgj9V5wPhycfohOSoihVpUqVJj569Gipro5AXbXu3buPvnPnzhi5XF4c4g7x+3RFGmSWb5bVYE3xdzED4QsmI/Ezo+91uYrQXOh6xpJE+MwC7PEwOqDHZ0M686FkyZJbDh06NFNXhArcV7FixWnPnj0LYVmW1/1wox++NkUoghBk8eLatWtNGjRokCU6nF4MCC93cXEZ8SkjOxR0QbFzNpOFDSb0q5s3b+4sNgcDCJSfn9+y9+/ft4OxifFpTJFZrH2yKAqARVlpZ2cXs2/fvh/FUIo7d+6s0bNnz9MEQZTLbG3qCBpQtW7devDJkyf1AqzWmwGjoqLgOE5SKpW8Y96Aqfjg6enZNyYmZj96Ji4urrqHh8cRmqa/FqIxDGjOequVAsajAEhpLMveOnDgQKfOnTun+wxr1qz5071790JwtSurtwqxvoCV21xfpDxDGInw9vYedOTIkZUsCzrm/6t9ZtExcCjf3rFjR3so5LJ+/fq6gwcPjpbJZJXUavXnSGXrZaVAPlFAOMHUEonkr6VLl3oOHz48Ze3ateVHjBhxhWXZ0vrkxCLjIMuyand390GxsbF6nX4wZIMYEJJ1fXx8Lmo0Gr1PQUE+ftuzZ88BXbp0udy/f/84lUr1BaBPPtHe+lorBXAKqAoVKnR/yZIl32/atKntp6RuKK5qawCJwMr6Ojo6+tsOHTronfNpEANCZzw8PAacOXNmtUKhSLeI6tFJyIV7JVgxS8lkMilkBlhCJIseY7feYuIUwNKtVARBKACWEwCq8SD1jIaAWUJVHTp0GHj48OHthgzXYAY8depUeVdX12sSiQQsol8giel6MXRQyCsD/EyyaNGi1Lt3Zo/hawiNrfeaOAWQNTg7VmFY3+Bj1Gq1/8bGxjZDiNf6DtlgBoSGGzduPOHKlSsz9UlVgvvFAwMTLjAlnvulb4et91kpYEwK6HIn6FmcCO8GlOr7SRBbDepethgQ3kDT9F8Mw0CJpUwTdsX+p7zCFTGICtabCywFcN8pYjwDT0Ioz/A0ISGhSUb+xMyIm20GnDBhgsPChQuPQTY1KqtlrCzzArsarAM3SQqgQ0OcpCzkZaYGBwe3X7Ro0dnsdD7bDCi8DFKVmgPEAb5r4MGw2emU9RkrBUyFArCWIcQSqUu4+01AbEviOK5VdvubIwZcsWKF/ciRI09zHAdQ9jxIDfoHHc6GLJ3dcVifs1IgVykATAgXpCAJTAhRXv/u2LHDpVevXrez+/IcMSC81NHRcfjFixchUxjCyfgLmWYtKWA6uwS2PmfeFMgI+QwyK+rXrz/x2rVry3Iywhwz4M2bN2X29vZ/fkparIrKmkGsqDhBMSedtD5rpUB+UQAP5MayLKAg0YOkpCSHnNbFzDEDAmHGjh3rEBYWFo/D2Ysj0POLgNb3WilgDAqgAwUQ16Ae5OTJk91nz56dlNO2jcKAQifACtQMZbEbAOib0zFYn7dSINcogLsmBEMjlCZPJAiijTFeajQGhAKSXl5efwqY+frWlDDGGKxtWCmQqxTA9EAQPV8kJCQ0d3Z2NkodQ6MxIFAgMDDQde3atYcoiioEILpwCordE5DWr6O4Za4S0Nq4lQIZUQCtT11rEnfSAwgwADz169fPe9OmTZAnaJTLqAwIPapbt+68W7dujYV8JVSNCEXD4GCmViONUebP2ogRKICvRQRxAc0iNUqAWlF/8803S+/cuTPBCK9Mb8LoDBgbG1usXbt21wmCqAAgukiG1oUbY2DIjzHHbW3LSgGeAvgaxDGN4LBAa5dlWajj8TQ2NtbF0GDrrMhsdAaEFy5cuLDh1KlTT6lUqqIo5xDfZYxdYTWrQVp/t1IgKwqIAMXSkfcAglUikfwbGhrqlhOg6YzenysMCC8bPHiwz/r163fK5XJbBGCKV8LB4dyyIo71dysFcpMCuK6HM6JcLodaJwo/P7/OW7duPZ4bfcg1BhQ6CwVa6qFSvnAKwoVwPa0iaG5MqbVNQyiAr0F8fQoSm4am6QsMwzgZ0qYh9+YqA0KUTMOGDR8xDFNKKpXSAJiKwHxxJdeQDlvvtVLA2BRARkJgRrBVCLoflI17cu3atVq5UWoPjSFXGRBeEh4e3iAgIOAURVFFIYMevdhqBTX2MrK2l10KiNciRQHQA/smPDzcLSAgAAyKuXblOgNCz4cOHdp69erVB6VSaWGNRsO/02qIybU5tTZsAAXEtU0AWpBhmNThw4d7rly5Mls5fga83jBUNEMaFt/r5+fnGxERsZWiKBsAu0E+wpy0aX3WSgFjUEDAdQHbBDjbVb6+voN37969zRhtZ9VGnpyAqBO1atVamJycPAqqmclkMhJ0QmvMaFZTZP09tykgoPNxUqlUU61atbV37twJgkKzuf1eaD9PGVAY0A2ZTFbbCsqbF9NrfYeeFICTT0tRFOAc2WdUTlrPtgy6Lc8Z8PTp08V9fX13vXz50lUul0vwIocG9dx6s5UCRqAA1A+ESi00TafExcW5urm5PTZCs3o3kecMCD0DJnRxcbkMBWig4KjevbXeaKWA8SmgFZivlZub23PjN595i/nCgNAlSF/q0qXLdZVKVTYraMO8Jor1fQWCAiB2MjKZ7Onhw4dbubu7pxdmycvR5xsDwiC3bdtWr0+fPjFCCSjrSZiXM1+w38XrfARBPN68ebOXv7//3fwiR74yIDoJO3TocI2iqHIgiusCR4XvIHwto/zC/CKe9b35TwFd+abgVgDnOipVLQKDBkgJRqvVPjp16pSzq6vrs/wcRb4zIHYSHiMIojSIoxnFiKJSzsCIKL0pP4lnfbfpUABVyEV13FHPcGQ+SKqF1KJPVdcf7d2717Nbt26Zlk7Pi9GZBAPCQA8dOlSpc+fOF6RSaWmlUkkjwkHEDDjt4RREznsr4FNeLA3zeYd4PQBuJ5x+CERX8DUjsfN+dHS0Z8eOHf82hRGaDAMCMU6dOlXay8vrSFpaWiMbGxtaqVSm0wjfyTKqkW4KBLX2Ie8pIF4PolOPYFmWo2lawzDM3VOnTrV1dXV9lfe91P1Gk2JA6GJiYmJFJyensxzHlZdIJDRUKEVR6vAXdjXEmNZ0JlNZRvnXD3wNQEQLSEkghqKsG47joHCmmmXZa3FxcT7iWvD51/PPbzY5BkQEsbe3X3/z5s1+ELYmlUr5sDXxlRFqcX4T1fr+vKNARmtAMOaxJEmm2dvbh964cWNG3vVK/zeZLAPCELp27Tr0yJEji5VKpZyiKB5lDf5Za07oP8EF5U60JkD8FNAWGLlc/r5jx4799+zZE2WqdDBpBgSiBQQEdNm+fft2tVptS9M0hSVMWhnRVFdVHvYLMR76i0LLZDLZi969e/uEh4dfysPuGPwqk2dAGNH8+fMdJk6cCG4KOwCywhMoxZACCO7CekoavBZM8gFkUMGg4dEJx/cXzb8ginJQMoxl2QfLli3zGTFiRL452PUlplkwIAwGLKSurq6AMVMajDNarZbEJwUUcCiJZs2013fqzec+8YYLTCkuAARZ7HK5XKFQKBJOnz7t5+Li8sYcRmg2DIiI6eHhMSkuLu4nmUxmo1arSXEJNGsJbHNYdob1ES+KiUs8wtxzNjY2jFKpfOPp6RkQExMTbVjr+Xu32TEgkGvevHmukyZNOkgQRCEUyI2AVJGLwmohzd+FZey3i3FlQdVgGAasnACa+3DRokVdgoODs10o09j91bc9s2RAGNyePXvq9ujRI1ar1ZaWy+VSlUqVPhbQ/8AXZA1X03cZmO596MQTYwhRFAWFUhQcx53ftWtXf19f3zzN4zMWxcyWAREBAgIC/MLDw9dLpVJbjUZjrcpkrJVhgu0IoihAR2i1Wu2zfv369dq8efMZE+yq3l0yewaEke7YsaNhr169Dkul0lIajUYKoE8golgjZfReByZ/I+h7cOoxDKOUy+WHDx06FOzu7m4S8Zw5IZ5FMCAiQK9evb7ftWvXOrVaDe4K2pQjfXIyaQXtWalUymo+h0KlDBkypM+6devOWwoNLIoBYVJ279799cyZM8dfvXp1AEVRcgADxi2lyDijy10Bv0GkDeiP1su4FBDX4YPWcXqLc/jgd6lUCulDcOq9a9269bQZM2b87ubm9o9xe5a/rVkcAyJyhoSEtJo9e3YEQRBlKYqSkiTEdFN8mgpiSPRXl6gqdm/k7zSZ79vRRie2SuOBEnCPOI9PJpMxarVaQRBE0owZM4bOmDHD7Cyc+syaxTIgGvyAAQM6/PrrrxtJkizFcRyIpRTKMYTTToyMDAsBMaRVh9RnCWV+j5iGuOSBn4AQSAEIeZC9IKQOpQQGBvqtXbs2Kee9MN0WLJ4BgfRJSUmF+vfvP+zOnTvjJRJJMYVCIUVxpfjUoMUhALWa7qyZac+A4eDC3UPYycinDXEc97px48azFy9ebHHipq5pKxAMiAYeGRlZceXKlW1Pnjw5jyCIUgIkIiVeGCijGp6zInfnjNvx2usomwWkDpBChKAJKICp0Wq1r93d3YPGjRt3omPHjnkOD5izUWb/6QLFgIhMx44dqzhz5szuJ0+enEbT9FefcVnpdGMN2qGtemD2Fxb+JC7SYwnVwHjgz3vt6uo6PiQk5JSnp2eKcd5oPq0USAZE0xMdHV1uzJgxg+/fvz+MYZjiQs0KCnyIoAtaA7uNs5CxWE7AZQETs0Ymk/1btWrVxUuWLPnN29vbLKNYjEGdAs2AiIAxMTFlfv/9d4fw8PDlDMOA1dQGTKaQcWEMIhfkNlCaEE3TEDqmYhgmJSAg4MepU6deqVGjxruCTBsYu3WBiVZAUFBQs02bNk1//fq1ixDsLYFKTpB5gd+KjAdisKiMdEaE3IX0IFNZeHj/Ubyl2GUgzsmDvuPjxzE4sYx0uAeceFD0JK1ixYpRffv2Xdq9e/frDg4OeVJ5yFRonFk/rAyYAXU+ZeHX2r17d4sDBw78otFoSn5KwoBTkc6otiEsQtAdEXiwAIuQvlBxxjRV3VK8mcCmAd+hsD4gFe6m0aXngd0KQsY4jgOL5r/ffffdpL59+57v0qXLPXNgiLzuo5UB9aD41KlT6548edL99OnT48F6StO0HNDagBnhL2oCZWGgrHy8aeRvNDXLKjKQiP2hKOkV+mtnZ0d8/PiRHw6emyeMj5PL5ZxKpQL9TkNR1Lv27dtPb9WqVeK0adNukCQJ31uvDChgZUADlsa5c+eKbty4scmGDRt+IUmyOsuyEHNqA+4MiUSSrjPCIkWRHRmFteGimgFdyNVbRfAO6e/SEb4Hpxw66QACAtKCUsLCwoa1bdv2r0aNGr3M1Y5aUONWBszmZN68eVO2devWKn/88Ufz48ePB9E0/TXDMMCQODOScCqCaGrK8aW6dDyk50G/hYghSAPi1Go1GFNAh3szYMCA0XXr1k12cHD4083NDSDfrZeBFLAyoIEEy+j2pUuX1tqxY4fLw4cP27548aINSZJF5HK5HGD2wdgl+BlJPObRFHRBDMA2XbxElkvQ56CQCYSGcRyn+eqrr863atUqYty4cedq1qz5d+XKlSFW03rlgAJWBswB8TJ69ODBg8UfP35cfsuWLc3++OMP8DGW4zguXVwFFwdkaYis0PhcoM+5MT9inQz9H/4ChDtkHzAQnUKS5DsfH58QLy+va/Xq1Xvu5ORkFS2NvF5yY4KN3EXzbw7E1aNHj1a6detW6VevXhV/9epV9YcPHzZ58uSJC8dxMiEkDuYCmBIYAT7DX6iZiL6Hvxkxpi5DB3J64wwGTnAx43O2trbqhg0bri9VqtSDOnXqPKpQocI7Z2fnx46Ojq/Nn/qmPQIrA5rQ/MyYMYOqV6+e5M8//yyqUCg07969s1OpVNSrV69sAJ4fugpW1/fv30tLliypevXqlaREiRJqjUYDyGB8bCX6C0aSsmXLpkkkEk6pVFLgyyxevHha9erVQX/TBAYGWn1xJjD3/wOJwZ3XrxBk4QAAAABJRU5ErkJggg==;" vertex="1" parent="1">
          <mxGeometry x="390.5" y="170" width="90" height="90" as="geometry" />
        </mxCell>
        <mxCell id="UUdcxtj-CU-N1sTjYldV-11" value="&lt;h4&gt;usuÃ¡rio&lt;/h4&gt;" style="text;html=1;align=center;verticalAlign=middle;whiteSpace=wrap;rounded=0;fontFamily=Lucida Console;" vertex="1" parent="1">
          <mxGeometry x="405.5" y="260" width="60" height="30" as="geometry" />
        </mxCell>
        <mxCell id="UUdcxtj-CU-N1sTjYldV-18" value="&lt;h4&gt;VOLTAR&lt;/h4&gt;" style="html=1;shadow=0;dashed=0;align=center;verticalAlign=middle;shape=mxgraph.arrows2.arrow;dy=0;dx=0;notch=0;fontFamily=Lucida Console;fillColor=#660000;rotation=0;strokeColor=#000000;" vertex="1" parent="1">
          <mxGeometry x="304.5" y="520" width="86" height="30.02" as="geometry" />
        </mxCell>
        <mxCell id="UUdcxtj-CU-N1sTjYldV-19" value="&lt;h4&gt;PRÃXIMO&lt;/h4&gt;" style="html=1;shadow=0;dashed=0;align=center;verticalAlign=middle;shape=mxgraph.arrows2.arrow;dy=0;dx=0;notch=0;fontFamily=Lucida Console;fillColor=#660000;rotation=0;strokeColor=#000000;" vertex="1" parent="1">
          <mxGeometry x="470.5" y="520" width="86" height="30.02" as="geometry" />
        </mxCell>
        <mxCell id="UUdcxtj-CU-N1sTjYldV-22" value="&lt;h4&gt;NÂº DA CAMISA&lt;/h4&gt;" style="text;html=1;align=center;verticalAlign=middle;whiteSpace=wrap;rounded=0;fontFamily=Lucida Console;" vertex="1" parent="1">
          <mxGeometry x="312.25" y="310" width="60" height="30" as="geometry" />
        </mxCell>
        <mxCell id="UUdcxtj-CU-N1sTjYldV-23" value="&lt;h4&gt;CONFIRMAR&lt;/h4&gt;" style="text;html=1;align=center;verticalAlign=middle;whiteSpace=wrap;rounded=0;fontFamily=Lucida Console;" vertex="1" parent="1">
          <mxGeometry x="304.5" y="355" width="75.5" height="40" as="geometry" />
        </mxCell>
        <mxCell id="UUdcxtj-CU-N1sTjYldV-25" value="&lt;h2&gt;SUA CAMISA&lt;/h2&gt;" style="text;html=1;align=center;verticalAlign=middle;whiteSpace=wrap;rounded=0;fontFamily=Lucida Console;" vertex="1" parent="1">
          <mxGeometry x="305" y="425" width="132.5" height="60" as="geometry" />
        </mxCell>
        <mxCell id="UUdcxtj-CU-N1sTjYldV-27" value="" style="shape=image;html=1;verticalLabelPosition=bottom;verticalAlign=top;imageAspect=1;aspect=fixed;image=data:image/png,iVBORw0KGgoAAAANSUhEUgAAAM4AAAD0CAYAAADT/hkPAAAAAXNSR0IArs4c6QAAIABJREFUeF7snQeY3FW5/9/pM9s3W9I2PaGHgIgYUeKlClItiIogRVQQvaigBAj+EUGQcqWIoCiglCsWlCJFKdJLAoFAaAkkIXV7nT7zv5+z+917nLu7CZAASuZ59pmdXzm/c97zft9+zi9gmz+bKbCZAm+aAoE3fcfmGzZTYDMFbDNwNjPBZgq8BQpsBs5bINrmWzZTYDNwNvPAZgq8BQpsBs5bINrmWzZTYDNwNvPAZgq8BQpsBs5bINrmWzZTYDNwNvPAZgq8BQpsBs5bINrmWzZTYDNw3iYPFIvFmJkFzVxOLG9mBa/J4sBvvi0QCLjv98KnWCwG3kv9eS/Q5M30YTNw3gy1fEQUi2XpdHr84sWLtwiHw7FIJBKMRCLFaDRqkUgkFwqF8sFgMFdRUbEc8ESj0dwAiLJmxl9mAGiAjT9ApT+eJJANBbaQ1xWAqnnkmz+A7LDq/VWk0+nyZDJZnsvlQtlsNlAoFPIVFRVd1dXVbwQCAfqz+bOBFNgMnA0klC5rb2+vSSQSDZlMZutnnnlm/5aWlq3MrDoajYai0SgAKcTj8WI4HM6HQiHAkgZAwWDQASYYDPI7FQgEUmbWU1VV9bqZJWFcrisWiw5IgUDAAS0SiWTz+XwpeAaBkk6n44VCIRQIBMLFYpG/6MBfxMxiLS0tk3K5XCKfz8ez2Ww0nU7zF87lcpbP5zP19fWvzZw5856qqqol0Wh0nZm1BwIBX2u+SQq9Py7fDJwNnOdisYiUr+zp6dmroqLis8lkcvINN9wwcfTo0dWBQCAeDAYtFAoN/gWDwUIwGARAfBdgxoFjaCJ+Aw5AAYgAlQAD0w7+PwCkQeAUCv087eysYjGQSqUigUAgCHjMLEQ/9Wdm4UwmEwdQnM/n80Hvj/tTy5cv7/3CF76woq6ubl0ymfxbRUXFLWbWFggEejaQNO/LyzYDZwOm/cUXXxwXCoUmTp8+fe9CoXBIMBicbGY1v//97y2RSMDEBnD8P475fwKW/835cDjsrtOn9P9sNgtSHHCKxX78FPv/cTcVCoUgPwHRwLd/naVSKDZ33f/54/qlS5faUUcdlamsrEzm8/mWUCj0xurVq68Oh8OPNTQ0LAXgG0Ci990lm4EzwpQXi8VgV1fXtN/97nd7BgKBPT//+c/vFgqF6ru7u622ttYee+wxa25udoBB2wCCSCTivvnN8Ww2OwgsaSRdD0gwmQY0yD99q1tcWwKaf/rN/QKMrvN/8wxAk8/n3bP4o0/85ngmk7H999/f9bGsrIy20vfee+/CcDj88Jw5c843s9YBjfi+A8dIA94MnCGog4/Q1tY2+sknn5x+/vnnn7Rq1apZV1xxxaiddtqpAg3T29tr1dXVtnr1arv77rutoqLCmpqarKuryzEx52B4/gdIAoavgXRMplfpNfqtdoYCBcc4TxsDPov739deaBwAy3dVVZX19fW5Pr3xxhvuN32aM2eOawfAd3Z2un5vv/32PYcffvgThx566K922GGHPxLM2Kx9/pdZNgOnBDjFYjHyyCOP7PD73//+4AULFuzZ2to6MRqNNnzrW98KHXHEEbZq1Sqrq6tzDNbQ0GAXXHCBY8qxY8faVltt5aR5LBZzzCrtU4pN3xwrLy8f1Bgwfam5hWYYCjQy2zhfaiqqfR2nXUBNv9AwL774ovsfU/PSSy914+ED+HTtJz7xCZswYUJ3c3Nzx2677bbw+9///g/i8fjyioqKjs0a6H/DmO97NYxZ9uqrr2510UUXHbRo0aJP4Pxns9n6UChUBpNuvfXWdt1111lHR4dVVlYOap0777zTvvSlL1lbW5tNnDjRAWjHHXd036NHj3bHABFhapg1Ho+7P0DFcRhZmmMoP0mm3FD+i2/i8T8goj2AzB8gXr58uQPN66+/7kxLfgN6tObhhx9uV199tdM0yWTSffO8u+66y04//XQHKLRpT09PX1VV1ZoPf/jDzx955JEXNjU1LSBaSJTw/ZoLet9rHADzxBNPTL/++ut3ffbZZw/M5/PbEW5ubW2thonwZWDA5557zp5//nnHSJg4MGk6nXa/jz32WPvtb3/rftfX11tLS4sDA4yIBAcomG8wYmNjo/vmN8cBl+8jyU+Sj1Tq35T6M/hY9BMTDFCvW7fO1qxZ43yvnp4ed0xt0Rf+ByR8nnnmGdt2223d8+m7NORhhx1mCxcutGnTprlr0Vy0M27cuL7e3t6uww477PGDDjroipqamuX5fL47kUgQhet7P0nf9y1wisVi1fLly+uvvvrqmffdd9/nM5nMLEyyzs7OOqQ2DA4zwtx81q5da/vuu6/99Kc/tfb2dgcoGBNNggT/6Ec/ai+//LJjQvlBfItJfb/DN9V8n2Q4P2co8PjHFJiQPyTnX5oMQACMmpqaQW1044032mc/+1kHJLSPAhovvfSS7b333jZ+/HgXLKCv0EOmKUIDATJ37twXjzzyyFez2ezT4XD4/nA4/KqZtbxfAPS+Aw5h21WrVjX98pe/3Oa3v/3tl0Kh0I6JRKKxpqamJplMhjGncJxhKLQJzAgDwVgPPPCA8w8mTZrkGFCRKMDx+OOP2+c+9zlnsqEVuAbzyPc35HMoSCDzqhQwfhABzeaFof9PBA3gcb0idr4/pGgafedPoenjjjvOfv7znxvRQQQD5wAWQD/00EPt0UcfRbs4rQo9GD/mKdoMoYGWxGxtampKpdNpqg6WBoPBJ80MAC0xs+Z/9zzQ+wY4AGbRokVNN95441a33377Z5LJ5M6TJ08eWygUalKpVBypjFTlb9SoUQ40y5Ytc0yDv/Lqq686k2333Xe3X//617ZixQqnldA4MCj3/+Uvf7FPfepTjhmR4phkMKcPnlK/xNdIQ/k46wsOCFTcO1TUjj60trY6rUEf8WuuuOIKBwqFqjnOGBAMn/nMZ5z5Rr+gAfcpgsh1aJyvf/3rttdee7nxQZNisdhdLBaxTxcXi8WFkUjk4Vwu92osFlsdCAS6/h1NuH974Agwd91115Tbb799nzVr1uxZVVU1Ph6P16ZSqTImHmnNN4yBRIVRkMKAAtteuZIxY8a4hCGRNMwcmAuAAC7MNoB0zz33OOYDMD5ISsEjZkKi8/ETlH4ggH4Mp3G4Dy3Bed0/XFSOsaFNCAbwTPoHMOjXkiVLnD+z2267ueP4aQQUiPhBD65RaB1a0cbkyZPdMYSEwuGFQqE7EAi0hkKhl0Kh0FPhcPgBM8OEWxcIBHr/nQD0bwucdevWVXR1ddVeccUV2y1YsOA/1qxZ89F4PD7BzEYVi8UyRZAk0YebVEAj3wDmw+kGTE8//bRjLNrhgymDdIaROXfqqafavffe+08M7fs2CgjAdACUD+YSH35zLWCW3yJA+GYZ52B05WPQlnyUO1LyFWCfdtpp9p3vfMedp//cI/+NY6eccoqLuil4wFhoH/OOMUoD//jHP7YvfvGLzv+DNup7iWCgXAewUHmwMBAIPBIKhRbjKgYCgbZ/BwD92wEHDfP0009P/O///m9MsoOmT58+q6Ojg0LHmlwuV44kZZJhGuUtRppIrgVcMAgaBoDAiIsWLbJnn33W+QJ8aJdzfHMtALr22mvtzDPPdIlSmUryNWBQNJtMNYWSeR4aAeYHLGgy3yeSdlGfeZZC2vSLdrlH2oB8zEUXXWRTpkxxIOM81/HhOp7zwx/+0JmZ0IT20DL0H8HAPfzR72222cZ++ctfusAI1/h5qmE0ajKZTHYGAoFVwWDwqWg0+rdoNEooGxPuXzoK928DnI6Ojtonnnii/vbbb99y/vz5+2UymZ3r6urGrF69elRFRUUZTKHw7EDp/2A0aSTgwByEl+X34PDj+MNYAA9/AWcZJoP5pSHQJBxDut9www32q1/9ygENLcCH68T0MLkfOFA5DNeh7fitSBnXKsvPtyJ79AcAKR9z4IEHGmFlzEYCFoCa/kIH7pNJSv8vvPBCdxzAyixk3DxXvhACgXF8+MMfdkCiDe7ReIYzRQeuZZlFWzgcfi0SiTwWDAbvDoVCiwa0Un8x3b/Y518aOFQBL1mypO6ee+5pvPfee3dZvnz5xwuFwqxwONxAqX8gEEjAIJLEMBWMwW8YAoaCudf3wYSCqTBbSGhK6r/wwgsuMXreeefZzjvv7DQLEh0zCMbiGfhA/OYbU+i2226zBx980F577bV/SjrSB6Q690kT+jVtfs2aymtkItI253fYYQcX2aP2DJ9FJhvjBlSAh0ABZhdjILR+0003uefhsxBNFFihDfcAXATHJz/5SbvkkksczfhAN9GE38MBp8Q/yxaLxbZ8Pr+8WCw+USwWH6yurn5sIIz9L+UD/UsCB//l4Ycfrr/vvvumLFy4cHZXV9eu2Wx2Rnl5eW00Gq1KJpNRmFwJPyYPJuA3oGHCkZSq41qfxpHEhomQvGiYlStXOq0DqIi+Ubpy5JFHOtsf8CBp0VKqE9NxmJdzDz/8sP3jH/+wP/zhD04r4Z9IetMfmXvqu0LJOgfzMw4Au8cee7g/QC2/hX5xD+3A+BMmTBhMyNLfiy++2IEYehAMgD7ya/wgCYCgzOj+++93piUfxiUzT8AYDjiKOvpFprlcLpfP51sLhcLSqqqqu/GBzGxJLBZbFQgE+rOz7/HPvxRwlixZUv3II4803HLLLbNeeeWVfcLh8PaFQmF8MBisADBBVoLlco6ZkcCKHimJx1zIBOGYSmdGmiNpmVdeeWWwYoD7BDqFa+fPn2+HHHKI8xdgYJ5NIEHRKZiOZ3O96tlkXpFcJXmKBiNPBGNzrzQF9/FM/Kktt9zSZs2a5fwNfsPEjJfnMHYAJfAo0sb9MDp9+utf/2o/+MEPnOagto7jfAAuUUM0Ev1Do6Ap6Qs1emecccageeebcCOF2kVXBTZKI4dmlgqFQuR8XgkEAvcHAoH7EomEonDv6cV0/xLAKRaL8VtvvXXslVdeucsLL7ywb2Nj4/bxeBz/pWbatGlxTBUmXvY9DMlHdVtIVU0ax7kOTUD4GFNupI8Sf4rCUdiJhoB5YFLux+ehPZif41/4whfsa1/7mjsOgAUWmAwm1jGOy99SlbP8Hfk1uoYxwfgSAoBFUTwVh/r1b4BINXKAhJAz+af77rvPgY22FIWjbfksXKsqA9qARphz0AxgqYoAuvif4TSOau10bel1PIvVsKFQaE0wGGQ5w+3kgcxs+Xs5ifqeB87jjz9e95vf/Gar+++//5B4PD5n1KhRTT09PbXZbDaG6YRE5BtGwBxCEyiRCENpCQATxyRyDibgHNEhzo/0UQ2XwEcbMBwlKUhrmFN+A+AaSAg65vzgBz9oJ5xwgjOTkOAqruR/aR/6S9u+JlRuh2cr3D2U9OaYn/3nt6oEBMA77rjDOfWYhjA7IAGUaCWu4X8txkMgQBPapF+M9eyzz3b5H8w9BAV0g4bQjT4PE44eJGnpMgdO+FFC2lFgJBwOd7OQLhQKPRwKhX5nZs8OrEbtj6i8hz7vWeBQ3n/DDTdMuOyyy/Yzs0+Y2cxisdhQLBYTvsOpxVjKeUii87tUIsvZlt+g80oyAgRMKoVzfSZU6YsmWeAsZWi/b5zjvu22285VHOy66642depUx7Q8G2BI+ym0CxAllf3Q81C+hK5TEhcA0ibFm7fccourBEAj+kscStsXLXg+gGXsVAQQ6KDPl19+uRuizDM/4se9gEmFoHxj3gE42tKiOdXu8QwljPlf/fdNOJ4VDAabg8HgolAodHdra+sTsVhsUWVlJfshvGc+70ngrFmzpvyqq66a+uCDDx7c3d39aTNrKhaLbtGI7GX/f5iQSZIpxDe/Oc4EypQRELhXwNLkKfGHNhAzcx1A8heK+QysjLqf2CydWTndfAMYoleEdMnS46egufSRA61vhbQFID9srYpntCw1ZFQzk3BFs1AdDYgAAL4PIPeB6YMdRkbLqIqa8aNduB4TDaBLQ/jjFB1oS5oXEHGfkqP0ESDTvo7xG/OPj7T5EMChz33BYHBVPp9/KpVK3RAMBp+oqKhY+15BznsOOGiak0466YOvvfbaES+++OInqqurR1NZUhLWHMw3QEiFZ5VVl4SUaaZCSCZVGknSkHNyhmXC8A0DqQxH/oafS9EEqm0xV2nNGMwhKS8wC+QcJ0KHKbf99tu7PwILPFv9kzkk0w5QEKigipn/n3jiCdcVjV1hcJ7Ln0LxEhp+WFs5IVVHY3bRJs/69re/7era/HOcp88SWqId35iB3IsfxHMREpiwCB4JJRWTqsqCdjg3DHAc4Ds7O9eWlZUt6OzsvLK8vPzR94rmeU8BhyXLJ5xwwoeWLl16wsqVK3cbP358XUtLS2w40GjipVEkkZkQHfNNLC0mE3MBBI4hDTExZL+LETguPwBGVn5Fz4FZVdbiM67MOI6ppEeVAXwre69wthKXfghdINc1MDAMybPRogoWKDKnfjAe/pSIZQwyUf2NQaTFVBXBPRSuojUAMglbmVZ863n0nXt9YcU46RvA4X58TlUdABKul++n6gvV8slv8oM3op/GkEql1lZWVi5YsmTJD6dPn/7kwNZZ76ryec8AB9B8+ctf3nnZsmUnFYvF2b29veMkmUuBI4k3YA//H5/AN6dUoMnkDgUcGAJTQ5XAmmQmXonFkSTiQFTonyS+DxzVnckXUz7J136+6VRqivrFolp3I3BIksuEkolHG1pmIGGg3zIvJVgYI3kcAhfQgPwUOR7yQvwmLA7gVAYkYSDzGI3GvSR0MUMJraNFASwABCjQmOdzjN88T36k8jzDAYfnQuPm5ual48aNe/Kee+65fNddd32xsrKy+d1EznsGOBdeeOEW11xzzanV1dV7FIvFcT09PSGIq8z+UL4NhPN3lPFNB0lZX+Oo4plzSEC/MlrVBHJqeS7Mge0/ko/haxwFDnyfwDeRBB4JBFUJSBD498nkUxTMd8p9iSytx3mNTyFrgVS0kJlWKgikcfGHqD5gkZtMYEUppa2kgWW2Ai5C2ABCZqW0GDTlHO1ishFp5Fl8OEa4XtUcpeOTeatkbEVFBRs8Np955pl3JRKJm+fNm3fHu7ls+z0BnAULFow75phjTqyqqvoUa/17enqifnRsuKAAxyW5IXSpOaSSE4VEJbH94IA0At8wA2aGcicwGo4y92tifQd9uNyFLwm5l7ZVIyYBIA0AMP2PzktrqoBTvwUaBQdgPBhU4XK/apln+uH5oaJYEgoEElgejubAvOJaNIlyYqVaURqLsUnrkhrAx+FehfqVzEUL8UeUDy0KcHbaaSfX7EgaXQES2iQXdcQRRywbN27c3w877LCffPrTn3753dp19F0HTnNzc+XRRx+9d0dHxykdHR1bFQqFKr9sZCT/RsBh8pCIMDeTiET3tYsmeahwNBMsB9WvcJYvov0FAJXset8UFDhLGV7XKBRMHzmmKJuCCtICYkw/yCBTVIw1VFQNJoS5+eM65V+U/NRKVQHO9224XklTonLsm0DOhjYBopYf+NpegQhpRGl5qh7QKJTnsBCOcZIsJogBjQEUZh+mIKYamgghBWBHAo7q9/ieO3eu3Xnnnb3jx49/tays7Obzzz//6ilTpqx5N0y2dx043/rWt7ZcvHjxvNbW1j0KhcJoOeQQSiFcX9r5/o0YayTCycFUSFb5A2XzAalMLNqRnyBTRNpquGcMxfhiLv97uP8FsA1tv/Q63/wSKCQouFYFnYwboYIJSvgak1Shd2i+yy67uCJOaKGSIuWblOSEJgIb32g7mYiY1QCO5+DrEO3DPOM8BacAC/CwmpYggtYQqXRJK2+Zd/oDyLRDEG3efvvtbjehLbbYAg3eWlNTM3/WrFnn/fCHP3zg3djv7V0FDlUBZ5111sFr1qw5JZVKTWXjcCYH4kEsvwhzOAYbKYcC42gtvTae0ORLIvtl+TAIE83EcRzG8Bd7DcXc7zZwFLWSVvAjjByTc442BUQqNkXa48gzPkwgGF37wkEDBRE4rwV2WnbAvNA29NImHiwtx6xlayz2LJg9e7Yz/QCPAIWpBoDoE7kstBN5IlVPoOEUJSQBi6bSIkKCFQg7ckCxWKyQSqVeLy8v/+t3v/vdi/bcc8+l77TWeVeBc9JJJ8285557zs1ms7sEAoF6Jl1ZZ4DjJyJ9U8YnUinjlhJQuRyZTDJNxGj81nPlx/haxq9YHmpySoE7lN/jX1P6/9vVOCOZspwTs0MnBQsAAwCCqQHNN77xDZs3b95gaF1+EcID5lVltkqB5Hcp0kZbqmFDU1ApAZDY3RTQYI7RF/rAnAIwAE/bHFMCFYGphYAIuqeeesqVLf3oRz9y4XGVOdHvaDTaU1ZW9tz06dN/8t3vfve+KVOm/LOzuImR9K4B54477qg655xzDmppaZkbiUSmEo6GgFr7omSZJqs0ey0GXB9wFAUSE2GeKASq3IwfqlXki35I+400BxsCnJFMtvXN7/o0amlgodSsZWwwNZIbpmXsjFvMznoiVn/ic0BzLU5T5FGaGfoJQKptE32gFUIHkOD8Y4bxTMCBVqEtbcYIILiPeziPX6TCUkw5QMX1nIMfyC2xFgjwaftetA50iUQiK5LJ5J3f+973zjvkkEPYXecd+7xrwDnppJOm/uMf/5iXy+X2i0QiDUwqBJTGUf2YL8HlkOpbYBqJWlqTwsRxn/IaSuhpabLa9KsEFGR4M7Oxvkjb+s6XPmt9wFFwYjgAS4IzFpiP8crvY+MR1gThN8g8k7Ov/RRUFiMTlv6pmlohfa6FqVUxQK0c5USYgjLn6J82YNT18nMAmyKAjAcfjP5iOrKXHfu4AVytUtVclZeX9yaTyUV77LHHmRdccMFD7+SGIO8KcB555JHEKaecsmc6nT4zlUptHwgEIkgrLY6SAy9zzY80KTJWqoGGY+7S8LEfJFAOSBIQKQmD6BmS1m8HOH4Ebihzc33AWN95le0PpZE5pjIZVTMzVqQ+635YY3PSSSc5KU+kiw/Ci3vwhyQ4ED7QRtFH/odGClUzRv2Pqcb9lAWhGaCnTD/Vz6mGTVpFiWktyUbLsNbov/7rv+zcc891iVTliLQMhBwQ4ysUCssqKir+NG/evJ/Onj2bl3S9I593BThnnnlm0x//+McTgsHg4ZlMponJRDLyUfhXZoUSjKX5C1/rjEQpVQyrZkyaxjfhBBS+lQvyo24jtV/qo5RqFP/8+vyftzLjSqb6wsUHEcwpzQCNlaeCzqzNYQ0RGkdmEHRHO2tTEWkHBQQEBJhfFQEqpNVzceypU9PyCfZpwD8h2qaIHoECzDg/BwWAAAbPImzN7qhE1jiGGadxMAaARXRu1KhRXalUasH/VHL/4IQTTnhqzJgx78gS7HccOOwTMGfOnO2TyeS5HR0dHwmFQpVawcgEaGtZCK9SD4WL5Yso+bchppq0F9cy6dIoPEvmW2kRp8+E6wtHvxXg+D7P+jTK+sCk/pWasfL9lJwUaMoTZY5h//jHP9rEpia3T1zTxIlWW9ef1a+prrFUb7eFAkELR/oFCe+9AlAdHZ2WIeoZi5uFwpbOZq1pzFhLxBOW7Ovr3z0okbBVy1daS3ubVVRVDm5S37x2jVVWV9mUaVOtl72rc3kb3dBouUJ+cD0TwgqrA1Dvt99+rm9E7QAZ49CSbYSFdhetrq4u5nK5pWVlZTdceeWVV0yePHn1+mi2Mc6/48D505/+VHPaaaftX1dXN7elpWVrJlQJMGxYJKS2jtXeAKV1XTJBOF7KuAKVvlWYCbEEPElNJgNJqHUxTBxtK8fBNyFSv3JAIJaZJ8b0J6MUDAp0MNkwp7Sg2vDbF6ikYRXBGkqjcK3yKOFgf/GlfLhIzL3E19o729x3PBqzPgpF+5J28ne+a0cdfYw9/cQTVhYvt9r6OisfVWMFK1olm5fkc5bvaLdQWdSSne2WaKy3Xra4yuatGIlZvKbW0pGYRaJxC6dYLpGwzrYOS8Tj1rW2xepHj7Vla1Zabzpl48eNc0GDQiZt5dVVVkiELF8sWKAvZYF8wTK5gjVNnOD8IcaIlvrTn/7kcjbTp08fLA7VPEMX0Y35RNDmcrnWYDD4wLHHHnvmsccey+45m/zzjgPn9NNPn3Lrrbd+PxKJHNjd3T0G21thYAGHsg8xMIzvA0c+i5Yc+9W/soN1DsJqPQqUVFk/bShXxHExqZ9MVJ9k1+u3r/24XpEmHfe/aVsVAnzzTPkNOs6xkYCj63zzy/+f57txh/tfYDWogcIhC0V4TaJ7zaG1tbRaLpu1HbefZb/51TXW1d5hmWTKGurrLVJTY2veWG6NDQ0WSKYsRyKzod6sZZVZbZVZqsfS7Z0WicasO5mzcEW1peMJC7CdVDrbv4tPX8oBJ9+dtkRttfWlU9bc2W5t61ps3JgxVlNeYa1dbdYZSFsxULDRiSqrKktYOme2Zt1aBxiSo5h5H/rQh9y8UXmgqupS4KiiYGADEV7F+Nz2229/1oUXXvi3d2LPtncUOK+88krsK1/5ysd6e3t/mEwmd2DPZiZeJpSAg4oWcJSplskl4IjxfWdeBZWSSLQhjcME8CwVdjJR2Oj+CkyVzGt1Jtf6Ze/K/fhmkUpaBBj/nBiZMaiWjnHQJz1rfcDhOmkhX+voGNLchXqj/S+zEi2LAbNAiChif+g5EgpbV2en/e76Gx14AkWzQiZrxWzGQuGw3X3nnXbfHXfZDpOm2/iaaqsvK7MxjTVWM67RcrmkhesbzeoazNa0mVXWmkWiZuGQ5SujZmUxy+TylojGLdfd/2YDK487Uy7d22dhC1g+lbbmjhZr2maaWbBoZVmzTDppXb1p60slnebHdznxxBPtZz/7maM7Jhpz4Zf8SOMIOGgctH5dXd0yM/vj5ZdffuGWW265clOrnHcUODfccMPoH/zgB18tKys7Kp/PT1YI0098QjABR+tKfO0giQoDctw3wZRMcqavAAAgAElEQVTc9HM7XAM4eJbMGjm/MKKqj+V4lvoMMgc1eUMlLEdKYsLMCrHTD5W50Af1ZySNUxp6L42eac8BfJfBQtdc/zs+AU9Xb1f/orI16+yUk0+2b574LetubrHKUXXW17zOysrLnGlmObNFjz5mf7n6OutbtdaSa9dYPBSwUaOqLBgyF3WrrWkwy4dt2tbbWrx6lOUaqq36g1tbugqTtssmNk2yaCBikXjCitGArV3bak2NdZZPFy3Z1W3LV6+whsn4Va9aLF+w6rIKW8Vit9oaV9/GGxCOPvpoV02A1cGOPtpQxNc4KtblW6tcKysreVfpA6eddtrp+++/P9vtbtLPOwqcz372s9u8/PLL52cymV0TiUQN/oOy2TAXQIGxAA4fmVwCiSJhnJN2kamiBJuulZ8Bs6o4U6FomV8cJ2SKxNJaEZlUerZA6ANHPplyC/It/GJFlb5oq12+VcmsUh7fbJMpWOrjCMg+YNQnjqX6+suCFOGizXS2P6wOcDL5/t09t5o2w/77ppusorzSCn1Js2zenlu00Gpqy23SpAnm0JHM2ZL7HrLrfvJTq8kVrDyTs8aqSgtls9bd2m7BYtBy+bAFYnFrTWUsP6nRKvfYyfb48qE2aeIUC4bCtvz1lRYvr7BwZYXlMlkr9KYtEYlaLBiyVc2rra5prK1Yscwayits9LjxtvjFFy2Ty7oxsL2Wlm0TFifax++RNI5KjsLhcF9tbe0zu++++2mnnnrq/ZsUNXrl96Z+CO0/9NBDlYcffvinxo4de3JLS8s2iUQigB0r00KrMQEOZSAQC+aFIWR6+SFkSR1fiyhnoetgOgDhMxbXa3EbDKh1OAKXfApJehWBMgYBRG1wLfdrYn3NoWMK1cq/kakmE63Uh1pfcEAmoa4r5Pr3tdbyCOgIIzoJHQxYb6rX0eC2P/3Zttl6a4uFImaFolm+aIsee9T+/Lvf2ve/+x0L8daESNwsGLYXrr3B/nTl1dZQCNjkqlobX1XjgFNWXmnNvUlb0dlp8XHjbPqeu9oHj/2s2fhGS3X2WEt7hwXiCYvX1FguGLSayiqLZF03LN2XtpWr37CGieMtk0k5MKaTKcsHgpZMp9xuOgQF0CBE/aALQk1h8OGCA8wTJh7zVF1d/VI8Hv/Vr3/9619v6oVu75jG+cY3vjHl5ptvPm3MmDHs6zxWmkBhYiYcpoIRfeAog+1rCYgo4JT6NZxT6b78GcBHu1w76AMM7Nfsh7SlpXztwvP9axS6FtBkLure0vYU5eI+HzTyzVTNMJzG8aN2Q1ZMFPoDHaKPW/5QGHihbjhk7V3tdtRRR9n/O30eyLf21eustnG0WTpjzc8tsh8edbQdvOdetvtxx5hFw2appNm6Fnv2tr/as3fda2U9SZs5cYq1rFlr2UjYFrWutcKYOtvnq8fYjE/uYxYOEK40iyZs2atLbdKHPmiZfM6ae3qtobbOUm09VhFLWDFo1t7TYcE4y7rNogGzYi5v3b1Je+DBf9hXvvIVF25GwyhB6r+9eyTgQFfq4qLR6Kr29vY7zjvvvHM/9rGPbdLCz3cEOK+99lp83333nUOlQD6f36GmpiZBggtpLLvcBw4FgnwgCD6Pzxhy9hVaVvBAppUCAkpgamd+BRvkN8mnkQ8j06o0aiZJLmAIOKoykIZSf/xQKfcgIEYKR3PN+sLRw0XUOF7M9+9z5o+bsHIw3P/W61hZzB57+BEXVcNPSbV3OYZNlJXb0r/db3+cO89qrWijt9rS9j/yi2ZbTWMnR7OnnrHrfniOlbX32C5bb2dtzS2WLovaC8kOmzjnw7b7Kf/ZH3Hr7DPLBc2SGbvk0ktt/+OOtvHbbm0WL7NirmjxQtgyybTlg0ULlUUslSNIwz1Zi/IC4XDUeKMClQZoFzQH4BnQIIPafLioGoKNUDYrV0OhUPfatWsf+9rXvnbGV7/61cc3pSX1jgDnRz/60egLL7zwhEQi8aWGhobJOHySsCrfgJFhAEKblFxIMyB1ZCIpouZn+hWx8iNp8jVog6hL6Ucg4Hh/gu9/yVD6f+l6Hd8MlD+k9n2to2MqRdHeY3prANlwxsxvAYe+6KMQuQAtU7E0SEH+BuEAHfnu6ul/A1w23//q9VvvuNUS0ZgRPAgWiladKLeQC7kFrXv+M3bDsSdaWW+PdQSLVjt5vO198AHWuOtss76ULbz4Elu54Fmncdo6Wi3aWGcPrn7Nvvz/5lr0P2ab5Qpm+bhln3jW7vjL7TZ/yat21u+vN6uvtSxgtogF+tiSOGPBsqh1E53jlYqZpAtFlyXK7PTTznA7jAIW5l4Fo1yHBtLS6uEEG2PFvCN0HY1GCz09Pa8WCoXrH3rooYs25U6g7whwZs6cObOlpeWCioqKncPhcC1EgXEUaoRJVP4/FHBENEkdSXeZOX5FgZPCAztU8q1CwuGY2weK/Ab/m75KC6ltX0P4jvpQ4WJpRK1MlbkGaBTd84HjCweVAAk0Q30TVoZ2WvcSjvZvsUtu5OSTT7bjvn6cxcL9eZ58OmNRfJxMzvk5nU8+bX/65retMVuwVCRkKztbLVAWs+lTp9peu37EQsGI3flfl9qsGdPtteXLLFhbYX2jKm33079vNqXJbHWzrXjgcXv9+SX2wsLnbe3/gHXebb+zrkTI0sGI1dY2WDgfcjmjqgl11tbTZ5lsysrLEy4UzQu4PvepQ119HP4MY6fWDToisJg7P/Ai2vjzr2vRpvx1dHSs6e3tvfunP/3p2XPmzHllU2mdTQ6ce+65p3qvvfY6dOLEid+Kx+NbBIPBCAMnjOpvfyrgwAC8bkIOuLZt8iMrPuHE5H4Zji+VMfV0jW/y+PeVgqoUQD5wOFcaPfMBU5pM5Xr6huREUGiZBH1UBUFpUMF/nq+FfCaQECkjEckLqPr6XCClvbPDgWj6FjPc1rfFYNGiobAh/3OptIWDYbN01gUH2hfMt99/92SLt7EUoMb6kmkrBgOW7Om1MitaTSRi0+sbrCYWt5dffsnqJ4yz2kkTrHHGDHuWvd2WLLVUd9JSfWnL9OYsU19jJ/3tT5YpD1tPMGQ11Y0W6M5YMp2x+NgaW7ZurY0b02htLc2WSvfZ8ccfb3fe+lfXb+2gqs3hEVjS9iNZHDL10U6EsVtaWrrXrVv39Be+8IUzzz777E0WXdvkwNlnn33GLliw4PRoNHpwKBQah2miMnKAIxNNSUEiJPg/WisjU8ZX1aUSp9QH8BlMxPeZcSgnezhzjbZkGuo5/kSqTMcHDP3TtUqgIii4j/HJ+aVtaDCSxlH181Da0PWt0L9AjPovmA0rjN/X/uY62/mDO9va1rUOOGgcEp4V0bgFeQ9AIGS9Tz9tt55xukXXrLO6yhrL9GWsvr7RAlawdG+PVcVjluvssHiYF1G1WtWoOuvOpq2tq9e6u5KuksBivFC3xgqZgL0RKNiRt/3GkhVhW92TsmRf3iZUNVjVqFH24toVNmH6FOtsbbGaqgo7++yz7Nxzf2wzps1wNCA1oSUM0iyAQVG14eafMTMHXDtjxgwKP4vNzc1LJk6c+Itbb731FzU1NSPvqv8WVdImBc7ChQvLZ82atcPUqVMv7Ovr2y4Wi5UjcfW+GQasvctUWiPgSOMo3DucjavMuq81fCD5ppbvGwk8kujDAUeAEFhlrkmrCTilWke/FZXTMnDGxwcg8Ww00UgaZ6hlA/74kt39RZF9qZTTZoSieS3Hd0852VqpNE73OeDEIlEHHHyciAXNQlHLLVxo1xx9rE3K5Gxa01RL9vZZLFHmtFdze7NFwgHLpbstwT7QgbyVVVRaH75UosJq49WW7EtbW3enlZdXWKora68UUnbUnTdYpqHK1vSlHbimjWqynt4+60uErG5co+V7eu2Z+U/ZwYcc6MpqakfVu/Frtx/GAE2gu1Z8+nkzxu4LTq3gxcchskbFdGdn5+pMJvP366+/ft6cOXNee4vYGPG2TQqcK6+8cuxXv/pVVylQU1MzEe0BUWTuwBSqNVO4FmeeOL6iV9q9RYwqzSHTzEnZYn89VmnwwGcwgcYnOse0bGEoc03ahusUfChNiPoaYTiTT+DnvGPugVcOKoQ8ksbxgelrNY2tLNrfXiyRcNGlD3xwJ7vyF1e5rkTZLyCTtDCVzsGQZZMpq4zEndkGcArPLLQbj/2K1ba2W3W82gEmGE9YPly0WGW5xeJhi1jWsqmU9aX7rHHMaEtlchYJhCyQLFrb2lYrq660XLZgPe09tqoiZkc/+GcrjK6yzkLQQhazWB97qHVbYnyDdad6bVSs3PbYbVe3MXxtXY11dvdaWUW5q5CW8GTusRS0WlTAEX39OdRGInpXED5Sd3d3T09Pz5PHHXfcaWedddZjm2L/tU0KnI9+9KNbLF68+IL29va9mpqa4gxYzA1xtK2rnGCIoAQYRISpIeBINq7CyS5TPpCb8YMFfr5EzK86JwUXfNFSGhnjfuWMSrWOBIAPXF86clyLtBiLhIMWzmlbq5E0zvpMwZqKSldpgXRuaWuzX13za5ux5Rb9m82bWTwRtZAFXG1api9p5aGo+1/A+c0xx1hNe4fFImWWLhYsE4tYLly08ZMmmuUzVuxst6po3DraWlyEsq2r21J9KQumzOpqRzmmLxTMulp67LVIwQ7/+++sszZhramcFbJmNbmEM/+W9bRavCxuv7zwEjvn/82z2ppaK68sM96zTU2dIqnQWGkI5cqGm3+u1VJw1u2gedFcbW1tRV5WNWXKlJ/dcsst120Kc22TAefBBx+s/djHPrZfXV3dqdFodEY8Ho+imlmQpPdyIh3E2HyXAkdlOEMRTsyvnWnEsFLlAokWevkJ01IfaaTggBbAKdEq/4V7BFQ/RK0wukxLChUBCmOmL9rsT5pXGlXheV9rMpZS4EjTytTMpNLOuZ6/YL5ddulldvw3TrDW9rb++rT2dqut7t9cEC3jgMNyAEw1NNWzi+y6rxxvxZWrLBcJ2sStZti2sz9k46dNtMjE8VZ8brFdf/Eltt3EifbG0tetvqHBxk2fZuX1dTb/meechkt1ddm4hrFWyAZtSSFl//m3P1ph8hhrTmesrbXbRoUqLJspWOO08fbIE0/afrt93Bqray2T7LNILGxp9qG2otM40ubQDpAyt1gkI5lqCAgEMIEBRRapsK6oqFjV09Nz54MPPnjmjBkz+l9uuhE/mww4LB8499xzT66srDygWCw2aY2LHGJlxFVd7JJ1AysPYTSIIeYSCLhXppEYWTauGFVmVSlwSn0VMR6M6ptxfsiZNjknYMhBp20VlGpZgeZE0S59q7JguDnjGSN9aAd/CKaQNoQuCCDA1tbR7vrIpht6n6hyR0jflnXNLtRbWU7tWMaZbOVl5ZZlg40Vq+3qr37X0mvW2Y57fcTmHLKPBcfUmtVXUR1qt5/6A+uY/7zNbJxoLctXWs3oRmsOm+1z4TlmUbNHb/+LPXTzLVYdiVvBIvZSa7Nd/OA9Zg21toqXBjeOtkxv1l5ftsJGT2yyffbZxzJ9vZbs7LZItj/PlAkWrSeVHAySIBgAPfRlXOsLDhB8gV/QuJh22ik0nU53xmKxR/7zP//z1O985zsLNyJmXFObBDgsH/jiF7/4oRdeeOFc3tNZLBYrRwKOmF2mC+AYCjg+A/vA8TWSDxyZgPIHfGkt4MiPKQ1n+7kj38YWyHxgDgcajr9d4Kj+jv6x7JhvQIO0dytYwyFb/NJLbh2L86HIxmPuhMLuGuhIxIkEqKsHHNhAnbBvz7I19r2DvmAnf/142+HzB5pVR8x6W52J1vnofLvuh+dZfVvKdp2+nXWsbrFiZbm9kOqwfU88xmo+vb9Zd4d1PPKU/fG6G2zV2hZbl0raJQ8/aBYL2eqONmOX6HiswqKJuP3q19fa9+eeYttst51l2c2opdPyuZzlI0EHHGkW+q5tp6C13tDgC0bfYtDrWAAOgAM4jDmTyeQikchLM2fOPP+OO+74w8beyGOTAOfWW2+tP+CAA77e0NDw5Uwmw9ZPg6sqSzWOTBHZq6onU7Uy94pJBRwd0wI3SXdpBJ+wEHyoiNeGahz5TjKhSqM6/rOH+n99wPHvGUoqwgyMgTHpzdQKsiBtF73wvHsh7sc+9rHB15XAbJhwfKN1uJ6oGs/SdrlosY5Vq+2u6260r592mhVWL7NgIWdWWWb2+jK7/rSzzFassfK2Pps1dQtbt67FcpVl9lTrSmvYZXv73CnftNCMqWbZoHXc+6D99LLLLRUJ27xLL7Hw6AZrDxQsE47Y6Maxdttf77Sjjz3KAZj+TJnQZOuWLLdwKGC9+ZxbKaroIvSSAJWpKh/SF3Iy1aEPc0RwwK14HdizYKBOcUUmk/nTvffee87MmTM36kupNglwvvzlL291zTXX/Kyurm67XC7H6weHBY5MLxhZ5g+MAiFVfiH/pBQ4IrIAMxRAfP+lNN8js0xaygeTJJxvSimiJ7OP36Wm1ps11dYHHJ6lZQgwFKaLC+PW1roylb322duuueaawVcjqj8VZf1vVoNRndlj/WFcHGjMPuje09Fuha4ui+VzVjNlqtnKVWZt7Xb3pZdbdukbllm+yspTORszqt46enpdyc0TK1+zwLh62++YL9m0A/c3e32F2aQp1jZ/oZ1x7jl2+R//YFZZblZTZV29fZbN5G2ffT9hi19ebBMmTbRcLuMWzyUKQetF65GSSKcGTTLNqeYCAMif5LvUV5Vg0mbv8iUHfNv2XC5335lnnnn6CSecsFHX6Gx04Kxbt65i1qxZB2Uyme/19fVtGYlEoiMBR2YWTCjzi8kHNCpTkQYZCjiodZ+hfXBIQvngGep/mV9DAUfHfLDoGbSliS011zTZ69M467O9/SUQmCUK0xNYQdo+9NBDjpkIQnAOEwz6oY34XwlW9ZM2yCW5MG4u27+tU0uLWa5o2ZdetRsv+ql1vPSqVadzFurutS2bJlqIF0ch/Gpr7P4FT1qwtspmzNrePnns0WZbzxiojo7Z1T+91I753smWzGZsXbLXmqZOtdPmnmFXXXWVNY5psLUtzTZhUpNLrqa7uizV22cpNjpM97+vlfnVeqpS39K3JmRpMG7Nscav7aMGLIV0PB5f9KEPfeicm2666fZAIEAQb6N8NjpwrrvuuolHHHHE2TNmzNh9+fLl42HskYDDKCQlBRCOaWmA9vNSKFumk0CmnWr8ULHPxCKuT61SKT8ScGQS+P6R377WxL9V4PiJ16FmVFE6AESoHnONvuC//OQnP3GvhscUo0zJf0WJ9lqgfdpQtTjP0DKLWDRs0WDACj099tpTz9h9f7jFws2tFu9LWaGt3aL5gqV6eqyzp9sKwaDVNY62V5e+bmVV1dbbm7TtP/4xO/TU75g1jbO+tg4rGzXK8hSYRsOWC4XsjTVr7WMf/ajrX66QtVAkaNlC1hLRiHU0N1uSDTvCEbcJiEx2zav4QnMl4ajAjKwThfhJgCJoAY5yewNa57X6+vrf3n333ZeOHTt2o72MaqMCh62f9t9//13uv//+n1ZVVW3V1dVVIckxXHBAuRRFsCShVfavcLCAI9NOKhupWxoQ8IMFyvNIA5SaUiNF1eTX6FkCj2xuP2gwnK8zFHB9gKwPOLQrbUERI5lxaPKZz3zGrc3v6ep2gQHKTTDNYEAApm2XZAITRIB2ilI58FRUWLqQsVyqzyLJtDXEE9axdLnVNNRb79IlVsTnMXOhYgAbC0atY22rpbr67LWXXrHuQtF6x9TbwV8+whVYBkJhq6iptUA0ZsVw0PbcZ29bvOh5i5UlLFEet2w+Y9Fo2FavXmljRjfaqjdWudKfXK7/Pay+1SHrws+raSzalAXaqv6P5+MXAxzVA9JmoVBojsfj955//vnzDjvssJc3irrZ2FG1VatW1W+33XbHR6PRL7e1tU3xCxqHAw6DVw5DAJAJpIn2TTWZLpJMAMe3ewVUMTVE9kEjpvcZfSSNI8fc389AwFTgYThtpiDGSJO1PuAw+drvmn7CwAAHEw0NwwpQ1ufDODjImGeAgz3NuJ7kKBJfv7VntANOVaV1ZpKWTSctbgHrXttsMyZPss5Vq6y9udlGj26wxNgGtwSB9TYst7ZcwKw7aRaMWb67y94oZK09m3WRPj6j6hstGova+T+5wL5/+qm2xdTpVl5V7mrdCtavWUh8ptJJy2Vy1tHe5YCjfJvC0D5wRCMXLWRHn4EVr/AAY4W39HpEgKNwvHtWeXkqk8k8e+CBB55x+eWX3xcIBPqdprf52aga56qrrtri+OOP/0VZWdlW6XS6UQNVclOLynB2tTqzdBcTP2rF/drh09cUfpQFJ1nEFOBUf8b9kmK+xuJ+gU2vsODe0qoBHROwpD38JKd8LM2DDwT+932g0nPcQ1v+c0t9NOgDI8Ag2PG8AIqq54MPPtiFp9ndZqgPxZ58GJ9b/1QsOJMZcMlf6+ztsWhFleWKOQtks7Zm2TKr5e1ukajVj6p1uZ7OjjYXiAgFws6XKaSyFqyqNutLWzGXs8CoWksXCq5MqqGu3oGBV4Z89tOfcpov4DQdeyCwhrqf7mwPlcmmLZvJWU9Xr2XZr22g6qN0k0jfVJaZpiirwtV6TbyLJg7sjYdQ03L8ysrK1/5nc5hrnnrqqUs3VhXBRgMOZtoBBxywz2233farurq6ikAgUK5BjAQc+Qjyc0rDvXp57HDAQer6wFGZhmxiJkLHBs2Wga1uN6TOrDSSJttbGk0rRIcDTukzSsHpj3so8NJn6AjzolkADK+8QKCgPQgzjwQc7nUFpcV+qQ4z86HfyXTWgpQ0UZLD/gw9XRYLBd1Ct4pIxOVZiICN4p5i0DKFnLW2dVh5TZUFQuxmE7O+dMbCvLQql7VAoWjd7R32xc9/wdqbWyybTVsh0C8cAI6b2zC113kXQKBvfd19ls/2g5rzWqGrIl9pIN+qGAo4HBNwZP7DWwjrSCSyLpfL3X711VefvbHepbPRgLN06dLRW2211fn5fP7gmpqaKg1EKheCDKVxZHop/CtGlbYgKiRTq9Tk4jfhVX/ZtLSB2lEtk0p7NBGaGJ/phtIIpRE79cEHznCgkUbxAVH6/3AWg/pCfwkpY5IiWe+66y5HR2ljbURY2o40jsxdllNDS22HhflXDIQsGIpYgRWw+YKVl5e5spxCNueSlLFAyIqZnDODQtGIFSMhW9vTYaGKhFvhCW0LqYxbFIdPRV/OP+dcu/rKn1vT6LFOS+aDAKf/TW6ExNlMh0BBX6ZfO6R6U1bI/W+BrjSMzzcSpjLP/UCQTFmZbVpRzP2MnXEWCoWebDa74Nhjj5171llnPbIxij43GnAuu+yybb/xjW/c1NDQMDaVSjmxJrNjJI0jBvQz9TIl+NZbiofTOLL/ZTLJXxKx+e2HuQVUmZHrM9UUjvYZ3u+LAD4ceHxfajhg6t7SwAXHAQt2OxqG/Z5JdMoBdoET/I8hPgKOGIitZrhP5g25nEiYPR/6N0hk503K8tvZ8TOTtc7mVqstr3SrRqExmxaW11Zbr+UsXFlm3bn+yG48H7D21mYbPX6c/eXPf7avHfMVG9tQb6FC0ArFnKUK/aU1Ak7Yim4zj55Mql9D4Dux684Av/j0VjRW/CDA+BFO+o4g4Rq9VUHXcw5BkcvlisFgcMm222576U033fSbjWGubRTgFIvFwEc/+tEjFi1aNDcYDE5OpVJR+QNy/ofTODJ9hityVC3YcMCBMKpALo3Q8Wwkkl954AOH40ioUqb3GVy+ka/1Sn2Ske4fzm/SPaKTH7Tw/0cgwPCEnXntBeYaDO6iXAObGg6ntcSM8ulYBwWdEUZoavyjWDjmGK69q9MmT51iq9escbvhsLnH6PoGiwSCjimd9K6qdJttsOQgF+hPaucGtjAORiO211572asvvuQ2vmka22TJTNIBpIAZRvlRMWDBQr/f15XqsyT1cuw1gak4sO+DTDZpen/PBz+II4ABSL3oinHJdxbfKTRdUVGxJh6P33rttdees+OOO77t14FsFOC89tprY7bZZpsr4/H4B9vb28dpe1kt3hpJ40AAmVfK0fjaSow9HHAEGjmVYjpF6CRxhzPVNoSxFUVTHzSppRGxoTSKH44e6rzC5X6kzte+SGUm/4EHHnCbkD/55JOOOdjVRa/mGAk4ej7PAWy0TeTN7VfHRh/RiNuIva2zw8ZNmmDrmlvdRmj4ReRG+DjaWsjKE3HrbG8f1CBorWw6ZdX1tfa9M063n/38cmtqGGfN69ZZdUWl5a1oaefRFN3SBrbCDecClsqkHXD6WJtFOVEw9H+KaeXTKEImoEibyJpxWi8ed/3UimLfwhDNq6uru4vF4hPf+ta3vnf88cfPH4lmG3JuowDn/PPP/8Cpp556cywWq8/n81ViYkn7kYADgZhMOfCKiIkwpSUXpeFkiMTzVFmt81LrfttDBQf8CRjK/6B92pBG5Bpf8pWW5JS2obzUUAAVU5aCxq+PI3J2xx13uApnmIhiRl5KS5j5oIMOGtz0fbjJlsaEubTaFrPP0T2ftfJY1LLZjPX2Ja1+dKN1dvU4v6Q72WdVNdVuV1BoGw3HbBTVCM1tlunps2Jf2ioqyixanrBHnnrcPn34F6y2oc5yfWmrrap24HF7S/OqkIBZxMKDwGEDws6+pKXYw80KFg79775wfroBsEubaJ4EID/6qCT7QHHn4Cb90l7MUVlZWT4Siby89dZbX/iLX/zidw0NDd0bApDhrnnbwCkWi8GPfOQj3168ePHX0un0NBxJJJs2XdB6meFMNRhLjro0j2/6KCo1nMaBASCc8jm6TsDRvmbDhaOHChf7mkHAoR8CibSZtOVIpprySENpm6GAI4BK61CKf9FFF7kAAf6O7PmXXnrJJUN5y/P6NA40UUib/gAcjqVTfVYWi1oRrZArWA3vyEkl3dV6dMUAACAASURBVPqY7mTKYom4FUP9Fcps9NFQXWv5nqSF2MYqieOdcMDZbc/dbU1nm/ODejq7+nfw5DmU1rBuKRhwJp+rmMubA3sn5TapVD9wwuHBzSIFHJXVlALHB4yEmIADz2GhKFjEGBWk4ruysnJVOp2+7bnnnjv97e70+baBs3Dhwilz5sy5KpfLbZ/JZBqRjEwyA1Q4moFBADGamJBrlPgSY0lD6JqhfAAxsLSLIk5IHG2GwTO1k7/i+RBaryuHkDrvA4FreTbEx+SkTX5rD2ieyfVaF6/ggB8kUESIb5kRw4GL+7Rgi4nnVRd80CiM5fHHH3dMyIdxAxZCygCI3/Pnz3dVx6zH0TJ0mS/Q1DdVZWJyTCVN2Uxq8PUjNbW17jhVBmvXNrsNQOgboXBq46ZOnmx9XT0WCQWsoa7RIomYnXjC8fabG653L5RiLG6Pt4E6wzFjx1pXT/9rXKAhQQeqtt2ztTH8QE6NvknTQl+SttDffxvEUBFO6KuxaG7k69Ie5qTeSBEOhzvLy8sfPu644+Z+85vffFtrdN42cC6++OLZZ5xxxrXhcHh8JpMp06vvmGxN5EjA8ROAYg5fA20IcLS9LYQdkCz9EjWdHizH4ZwSrwIxjKqkmkAtR1rPlQk5FHAU3fEnVGOQxlD1xHAah77QT64DtDjw0JBviiOJokkY0CYMrG2lYCpMN/weGG377bd3Y8TxZxthEqYAX5l2Maf8PUXYGMdAlt3dL60kRuY8Qob+4fcAVIC9bNky+9znPud+w6AKWEArTEyqCfTiMOjo1x/Slt8+fVP0jTmBBhqnr2V8H0ca2weO5kTCS0vvB/YIz+ZyuZf23nvveVddddVtb6eK4G0Bh2jaxz/+8TMef/zxb5SVlTX4GXUYQi9D3RDgDKdxIBQf37cp1TiqGtZqQCSyonFcy3EVAEJYfvM8rUL1iwJl+nGfXvrKuAbCmq4vXCMpJnNBE+oDhzYEHN/38UEEU+tVHfQHAPBeznnz5rk/GJTx8WHytU8DWp17AT9aHgaF4Vl7LyDybM6rTyr05Pn+XgiMH8ZmDLTvR6ToD7VwjH/58uWuJo5rATD7oj366KPOXIRW1MoxZvpA/wAHfZIgLAUO1/qgkJlNf3ietMlIwGEcGpdMM8Yh4ChBLcGXTCbf2HLLLW+89tprL347rz18W8B5/vnnp8+ePfu6XC63lXbo1FavDFzJy5GA4xNPE+zU+oBPISYbCTjK4Qwkuxyj+ZqMvsBAYlBXUj+QPec6ST8mTIRmMhTREnAEWK4TcHzzwO/rUAnSocDDOCXxXUKxUHDS+5577nHjkKSHMZHgPA+mBCgwKFodoGGq+eOTY6yggLaj0g6ZCA+eBxiUrefZekMezMdxbdkLUAAoIEIw/fKXv7SzzjrLvVIdemgdDOBB0+laJVxLNY40uW/iSnNrHgCdb8oPZapxrQqCoa+femA8Agz/D1gRnQ0NDQ/MnTt37mc+85nnR3QQRzj5loGDtvnxj3+8x1lnnfWrSCQyOp1OR5lo1Z5JEsB0IwFHEzycxlHfhwOOzstpltYROBS107oUX3NgYkB0vedT5TsqlNSkMgb5FDIHYWQFNkYy1Uqjaj54+F/00TcbzvO6i2222WbQaaZ9LYGWpsQsgoHZvJH3yKCZeIU5dFJ9H7Rwrxns7XXH6LNLRHpanHFpfugDwkJ7Pch8ZV55HjSFfoD629/+tnuW8iwykTAxoR9mI0wPbX2NQ/vyI+mLX72uELQKamW+jaRx6KPag55azyMh7AefXHQwGs3W1NQ8N3v27B9ceumlt77jwOno6Kg98MAD573wwguf47UdEET7h0nty3QbCThipOGAM1Q0zTfVRFxt/AfzI10FJJkfENflLga0BccBDkBnsvmN/U572OeMB8bTGDQ2hbS13IF2ZaaJIaVt+BZwSgGj8XIPzEX/kdqHHXaYS3TSB5iA9tVP2lD9FRoAMEibIvmhMwlSaKA9yXgLANcwFqUJBHRFHumDrueczDvNo0xWAIUm2XnnnQffZcqSA/ws6ATdGQcFnyRpibBqjzzaUi2ZGJ259ZO4Si34wRCfP4bSOJyXhSITlHbEF5yjPX7ru7y8fEVNTc1NN99880WNjY1r3gp43rLGufPOO2cdfvjh14VCoSmdnZ2VSCM51Arx8k2HRwJOqY2rnIlU+YYCR1EwaTr6ovXoMAK/ZcoBFk0SfZRDDMPxXJiWb8wUzg/kARx9feDQhmqjlF+QPybwiCaaHAHG/wY4jHPy5Mn25z//2dEMbcJxGJpxiKb0lX4CGvqJz0FoGpON+wHZggULnBmHlpBWGCh2dN3wzUv6JyHgvzGO8TA2vQkB4UKfzj//fLv00kudX4PZBjMCSp6lN2orMUs0Tu94pf++j6PAgOaIPjF32uEG+kkojaRxFDUUyP26RfESYxRoBoDYUVZW9o+zzjrr1IMPPviFdww4mGnnnnvuQXPnzr1+1KhR8fb29qDeECwJQKflI2wocIbycUoDARDKPyZG4Ft7mEEoiO62hu3rc8DQJhUKCEiaK0+k81yL5Jd5Jl/LFUUOhE6ZHI1N7Q0XjpYWGsq/kQaB2YlQXX755fbJT37SaUCeha8D8yHVGQe/+dZG8gKnooOcB0SEtJH4mHHQAOZlXIyJcTMfAjTtA0LGSTu0oVwIY1OEj/buu+8+l3SdMmWKu1ahdADO/wCajQWVg9G3/MjBELgXUZPpLOAI4PRnQ4ADDaRx1B+BRMECCTeZcrlcLldXV/fcfvvtd/rZZ599xzsGnJ6enjGzZ8/+0Zo1aw7KZrN1Q2kFMfT6fBw/wjTUAOS4+yHq0utkKsn00LfUtTQF1/khZJ0XE8FgMKbUu5x12d4ChxhWAQiFPBUYcUWRAyFemFJhVTSUmAvpLccWH4QVnSQ6YUgmnskGwIAKZoTB3eKzsjIHBJ85ye1IOMHsPJP7dFwBGPko8v9kSio6J21N+/STthgjwAXYvG6QY2ga5lwM6udfGLdSAb42lpCgbegrrcdxzZf8Ez/IQhsysVV+JeDLPJRG8X0jn0d8E5rjA9bJykQicdvNN9981sSJE1e9WfC8aVONSoFHHnlk+89+9rNX5HK5HdPptFtJVQqejQkcX6pALN/sKTU7fPCUmkUyp6T61Y4/2ZLMyu9Iy5SC0fdjmAiuky+gsn8mGlDQFlpCzjb/4w8AUvlA99577+Aun7SnBCvMIOAA0FLgMAbagrnoI30AfIAXfwdLQIwt81Tj5ThaGkZ22fzOTnc9/XvhhRdcxAzQMNbTTz/d1ctpXwOeoferrg84mgc9R2anGJpv0VuCTfwk4CgIQFtaLk97Cp+X3u/zpOadcXiarTORSDz2ox/96OS99trruXcCOIHvf//7X7rkkkt+Ul5e3ujXkiny5Xf67Woc+Tp+iFqROD0HYpZqG2khMaYmwu+bpJ00j0wJhS51r+/8+0EM2lQ9nv7XxNIfBRYwf2RvKzyKNkGLIMkvu+wy++pXv+r+l2+mkiXa84Gj0hkxCmNQaJy+COg45mzgQXuioRiUbwkjrtM+bRxDWyHRXcV0e7uL2N188832ta99zYGGrWYH9mcedOx9f045FNFSDr00jqJqsgL0zXj052sc+q5wOeMTfbhGKQNZBNI4ftRQ7WuOpSkTiUQ2Ho+/eMABB5w2b968vwUCgf63AWzg501rnK6urrrZs2df9frrr+8ZDoerShmyFDwQdX0+zkh9lY8h4JRqHJkhMsMUx5eUUR2T+iUfSf1W8tM3BX0t5kvFUk1Fv9Uftcs1YgCBFOCoABEmJdchM40IFYvTMKsUSochNC6uI9cCyFSTp/o7JRf9LaBU7Iqfo2UEoqECG9J88u/ok2r90FJoMIIOAI9nYEYuXrzY+UvTpk1zwOEa7pM5J5oNZ6rJiS8Fju4bDjjyy7hO/yM8pOE5JlNtKOBJkDAvmiOBLxqNrpw8efJNl1xyyUVv1lx708C5/fbbd/nUpz51U3l5eVMmkwn76B5K47xd4EhqD6dx5GeUahz5I7LnfcD4IJJmkFSG2X2AyP/xzUNJUUlGmSp+9EdSUBUMMDS0gMlhOMwizj344INuHwAYV30lWoapJU0HcJD2tMGfV3vlGFeJZhiHdmBqmFwmm/on55nrpAEVPEGToNl4rjZAJAhwwgkn2BVXXOGSr4AbUw4QI/0VlJDGkfCCviNpHAFWzCxNOBzjC+g8R+aqaClrQz6f5l3zxdhpV5pQAonro9EotWuPnHfeed+bM2fOmzLX3hRwiKYde+yxp9x4440nJRIJkp7/9OJZnyElbTn2djQOAx/Jx1FmWcQXgKRx/DzKcOaaX7Kh+wU0Jeg0NoFGE6SwLec1QZKCylGo7IZ7FCyASSmp4T2dmERoG3IzMC50VS5DGgetpTIZ1QDqedI4nFdoWNpL4WBJXq7xtax8MKJmAg5+FHSlnIaXVDFGjgFovgk8MCbGQltvxsdxlda5/m2nBBxfS9OejvsmuQIKPB8a8RsBIfPMB44vzLlOgJTW0lxFIpFsLBZ7+Utf+tKpJ5100r1vZn/pNwWcVatWTdptt93+q62tbQ8zq1QRpQ+Sof5/O8CRZCzVOCK8Dxw/+iXglGoK3+b27WRFbMRYeq4ia3Is5Rf5UgzmlICgTdniCq1iWsi84hxAwURjz2fMIfIven2jH5SQfY/GcUudB7ZG8oEjjan+o5noD1pNwQmZamJQ31RDa6BFFI5no0MViR5++OEuwMBvBSBknpL0pF2ZlfILR/JxuH444Mjc8jWGzDja1vgQCAAHOgJcmZhvBjjq64AGXrvNNtv8+dxzzz1n6tSpyzbQxdnwtxUQTbvvvvt2PuSQQ34dCoW2DAaDQYVOfbBIqvvfGws4MttKJZGvBUqjajLl/GtkAtFvmIw/aU/5CNJyMrGk+WQayJeCGWBk+qRoD5NMPwQcaRRAiN/BszDRttxySzf5mG1IcRiY/2UqycwoBY4WpNEHaTDGwnNlovGbiBjOvXIiYkQ56jAfgGCsAE2vDqSf1KGRV8JXIvwMzQCX9oCgpAYN6UcXN8RUo4+lGof+lPo40vClgsHtEVdR4caqiguBbqhwtApNpWV9f2+AV5LhcHjhtdde++0PfOADj24K4JQfeeSR37rtttu+FgwGJ4iR6JBUJkym5atyXOkIDMGAlScRoUqd6+F8JB3XM2UaSPUqHKwIF89iEmFQSRdpEkVX5NPo9RICoyZB16sNPbtU40j6C4y+E6o8ia+NYOaTTjrJzjnnnEHG87Vi6f/0R5sQqopAmkRlQdJwyneUmooCjujuM5jegMBz0Fb0lc0ODz30UNcVmWly6rUkgzYAu8poZLIp2cxvBAZ9gy+UcNZbCeSgwy/yDf3opcwtCWV4h2er8h2hrbVO0EWWge/zSsjJWvDblyk+UIa0Yv/997/qnHPOOScQCIz8wqKBCdpgU2358uXT9tlnn5+sWLHiI6FQaDSEUB5CziBEZDCEOJksnEllqlWSIyKpBANijKSxNGhfspUCR/6AgKOcCf3x7Fkn1Xi+H0FjIn3/pTS0qaJVX+NIsnLt+oADPXgu1ynSxdJnmW6MS2anzEvfzJSw4TpMFJXfyESS9hCDS0LzG6bQ6/1kHcBkPPv111934e+ZM2cOmpYECNBg/1MA6frEtZiSWjPEM2lTJh9BAv7X3hLQUTxBP3imeIL5hyd4Nt/0j2P+QrVS4PhCiLll7ErMAjh+u80SBzae1FwrkipLQu36Prgf4CkrK+ucPn36gxdeeOEpkydP3qC3GmwwcG644Ybtv/jFL1JN2hiLxeJiHkVoVLMEUVDtMJrsUQ1MfgoDkNRbXx6oFDhiYP+42pdpI6motn0zQFpOGkfg8plX4GGMyo3oeQK+nqmk53Aah/uQzPQJf4GyFZgVoQJTy0TURPrgUV/9jDnHtCBPET+VpigJKsb0o3DyR/2qBEwdTDlMQfpCgAATjSJTaEY9GolQGJxn+MEgzjO/siQUYQQ4kvr0A/BIU0ILbcEr7adw/lCgkXUgf1OBAfrBn8Lzsg5oQ7VuWEFod2r2oB80ky9K36UFoUFdXV1vIpFYdsEFF5y02267kdNZr9bZIOAQTUun0zMWLFhwxapVq3Z65plnqm+88Ua3ypCPSjX4H4lA51W6wjEmhUnVAHxb24+ADGWqSbsMp3E47ktoP6Qp80vHYDSZdzCCgCzQlDIvv2WPy2cTgwhAflmJ+iEzQKF4FZKSRLzwwgvdcmey8mLGkexqGF1AENNrzYxKXmiH/vgZdX7DHFoOAdPATPzJB+N+mbX09emnn7ajjjpqcPkA7entCMyDHHuZv7SvygPGwHEYVMsSZGbSjiwL+ZQ+PUcy1eRrSqOKBgqcwHvwF8eVK+NZKntCg8qvEmB4HmOhn5yjT9lstnDKKadcduKJJ14wfvz4FevzdTYIOK2trVWBQGDXYrF4eSaTmQKx5RCzTzAq/+6773YOryp9eTCExb9RgSTntOZfJoWfZ9kQ4JRqHD+kSZsCokAgJ17neIaiQaX5F/9eEc53ZDXBMi35FlMPp3G0bwHPRXrLqUXAUKIvU9EXDPpfpocSfwpUKDckgUWbAo6ienxzXiaStAD9pH35JiRjYTS04m677eashQkTJgzOkx9NBKDSKIoq6k1o9NUPtKjv+Dn0Qet2lN/xNY18KV/riNYSbrShpR0aL2DB5xG4ZF7KtERI+HRBCOiNDrQHH5944oluHdPs2bPTW265JZrgADNbu77Q9AYBp6urq76ysnKn9vb2i1Op1JaFQiHIICAywICImiCkFpuC33777W4tBh8mBUaBWAxG0gJiMoEj+TiK3w+ncXi2JC59kJbg2w9RyrSiHflXtO3nY3ztJ4bxGa5Uo0izlE64r3HUH95l8x//8R9ubzQWqyEd9XY0/3p/nByXphYDQCsVSiqC6JtyXOf/1ryIjoyHZ2t3UBhvu+22s2OOOcbtFAoTYUYS/iZvg78qE5g2tJJUJjrgpw36SpvyCWVVcEz9lH/pR0dFU1/bi57y35gv30zjGTLPaIvr5UurAFSWAcJKlhApgE984hNOQJACUNIZrcQ4k8nk0nQ6fVZNTc2fA4FAx0haZ4OAUywW67q6uj7U1dV1eqFQ2LFQKCQgrBxX3wRiomEICAaDEJ2RltGbk0V8qe83A5xSjQOhBD5FWfSb9lXn5ANHUg9GkLnjayTZ1PpmYiRh1Vc/yjYScGifzQNZZwNDqlKa55FwxK/Qx9domniux0+grwqVyxyiDyq6lMnMt5+TkuRX1Etmixib9tm3jVo5RdUAAsED7tGaJDnczCt0kd/DXMOEtIegpJ+qFueY1gSVWhMSEL5PN5TG0Vxp1xtoAZDkzynIoGAEfg0fQv2EzIlgapmFQtIqoFWggz4PCJwXi8XiZWVlZb8JBAJdGwM44aVLl+5QX19/ZDKZ/EQ+nx/X1dVVhn0LASRVFPGhE6ononPY9bwECTUpO5yB4lz6PsRQppocfJ+ZfVNGyUUGKeDIlOGcnqcJgtnkW0jzKdDBt3wgBQ9kzws4clglNUslpUxHX3NQVawdX5D2A9LNTSgJR+6RVPZNS0lohYz95J/scxhXUl5mr35DewkraVrd55tKO+2002A0jHFjXuJUw4QyayXkBBzaVoiY/Q6gG2DjOTC5TGKBnnY4J+Eg+ijAMVxwgLEgCBkH/UI7MH8qSWI82kx+jz32cG9z+PCHP+zMTa1F0rMRYn4UV74eNG9ra+uMx+PPl5WVnWlmT20sjRNYuXLlqL6+vm0DgcAnYrHYbuFweFIgEMD3qUKj+DVZcgaZSLSLlv4+8sgjzoxTUSPEgiCSfoq0MVCIAVG0fFmlIwxSFcZ6pp/Fl+RVGFj+gXwq2eHybxSiLjXDpFEUAfRzRYq0wQQq84cR1A9pNyYZiUe9l1ZXcgyawJjcrzyGwCsAiZF4loTGUMEOaC/w+qBV/6WloIfv2ygsTBSNeUEb8kwYEppLCMpnLfXBJOToLxoKrQNwRH+FnukfDKxMv68ZBS5pV/GBgjmiAX1Q2Fn7QXAPgD3kkENs1113dSF0hd6ZY+YLkIin6L8ECsfk6w0IxlQgEFhRLBZvKBaLv4nFYisDgQC7JQ772SBTTXc3NzdXrlu3bvTy5ctnsgFhJBLZOh6Pbzt27NjG2traukwmE0I60GnVZ2mjBwjJ4JkUbGek8GOPPWbXXXfdIEikNWBGqVURl4mWCSYmZ9C+pOJamSm0wbNkqjDB9EGxfUlc38cZivG4X/a0zCD5C/JfpPLpD0wEE9J/zAUEBX2RhFY0DwBRaUwlgRhfoJHZqPbFtDxf2kkghZGGA45MObTEtttu68LhXKvymWeeecaOPPLIQdOHNuVQ+1toCSRDgQf6M2aqDrAomCP5nQKJNgvhfiVCOcf/Aov8GX7rPuggs0obwWB+0efdd9/dVXArYsk99Jk2Fa4WvXiuqlc4JiEcjUZ7w+Fwpqur66X29vZbMpnMnbW1tUsaGxv799TaWMBRO8Viserll1+ubG9vH/P0009/PBAIbBGLxaY1NDSMmT59+qimpqaxmiDAAuFUwavqVojLB8Ij8XBM//73v7vdWmB+CCDJw28IJPNoqPHA3EqEaoKQOL4mkBRU8tBnuOE0jiZYQJaPoL4zIXJW5evJ/Lj44ouNLWzZMAM60H+Fh2FmEo4w21COsW9a8iwxrwSFwOW/JFeSW3Ri7DxPz+Ve6M9cILxOOeUUR3NpGmgMUzEmMepQpqcCJ2Jyxob5KbNdAkbWgiJ4Cr7wfN3rz6W0BM9Uvoc2aJuNGffee2+nXTDD6KfMT5mAtK+QuQIvqmTgGoRCsVhkD+nutra2lStWrHju2WefXdrY2PjsjBkznqytrV09YcKEDVqX86Y0TinDFovFyJo1a2oWL1486uWXX96qra3tA6FQaOuGhobpO+64Y82sWbPYyMMNUGaG/Aj5EL7GgAFJxt1///3OmUYj+X6PzCpJfJlfpcSXmcZx+QxMhqSTTK3SiM5QGscPDGiiFGnj+bQvoYBtz+Tw+fznP+98O0k32pEWxonGfFUNm0DoA1m+gDSjQOE70zL1REP13wcOfUSAUFdGRE9ChWXQbLwhU9mX0tomS6Yw/RvOVOM4TAqDKxInv0ihYvoHjdCufOiTtA3PVamQX1WAT0jE9jvf+Y6L+qFpuA9Bg7CQmcxYdb9vVjPHqumjgHbVqlWApXvdunXNvb29L48dO3b+1KlTH91tt90WmVlXIBDoL9newM/bAo7/jDVr1pRns1lANHbx4sW7pFKp7Wpqaqbvs88+WyUSicqysrJqMbrvI/jZXNUcIW2QiDinAIhdW0gaQni/7ol2ZK8yWfzmGUwkbQksAqsPHJk8jGEkH8H3OfQMBQw4JwdZ/ph8EnJamC84/0hk1ZVxHSYT2obFYdjp6oPAIpBwXBEfHzC6nm+F4ofTmIqmyVykH9CS5QL+FsA8048UypGWeTwccMS4XA+z448MJBRdlI7+qw/yT+irniWwMxYijLvssotz7gE5goj5RuMosS7tq7llDuTHyaKA5oShX3zxxXw0Gu1OJBJtuVzujUwm8/L48eOf2GWXXZ7YYostqITuebOAEc9vNOCoQaqoV65cWfviiy/WvfLKK9uuWLFil0mTJs3Ydtttp06ePHlKRUVFtW8ywVSKnPhMIgIx4UhxqhQefvhhtxkeL5DVenc/guabd/pfZSJyDn2pJvNrJOAImGJiAYN7lcXWxKkyAhNo7ty5g2UeCsf7fgPSWRsH+gLIBw3HVdIj00xCQKaO7+cNpXG4HhNISWj6wn7PaHMlZ33zj+fIT0FjSJuOpHFER+00CkDUL2gkH4P+IfzoA30CDGgVSpAwxfhWTkg+LX2ERwCRFtBpc0T5QICVnCLhfUz9lpaWZCKR6GloaGiPRqOvBAKBZ8aPH//Yzjvv/GJTU9PrbxUs/zRPG6iZ3tJlVBysXr26ZuHChZOffvrp2ZlMZoutt9564gc+8IFxTU1Nk6LRaDlgkbRUYlJJLQiD9PDteyYVAqGFkCqACGece1RyrpArkwbw+HCee/3k4YYAR0lVSXcFH5RcpV3axDzkG0l56623DtZRMTaFcGWeKAyvwIWEhCd8BuntLyFQIIOTPiOPBHzGjMTmGu5h/wB24UQra0ND+uELIK7jo62ihgsOqN8K4CjRrQADDE1ClT5AJwAF0zMnRMFISH7kIx8ZfAO4hJEsE6UqiNjJ31WCk2c8//zzjg8GiklzwWCwOxgMdgaDwbWVlZVLq6qqnttuu+3unz59+orx48ev2pAatA1l9I2ucYZ7MDt/vvLKK43z58/f4o033vhAOBzeqqamZvKOO+5YP2rUqNqGhoY6MZ+qan0nFCnFRGsSFL8HWDAqO/bDkEgsfwcWJe7E4PI5ZGf7juVQPo4fMQPYyisBApWyy9eAISiQxIlFmuLLcJ0SwoqscQ5AMR7tkSYN4vt00JJr5EvJx1Ouib6XmnKc03G+GS99oJhz0aJFzhTi+VrLwjVadcq1PEMBEPoth344jSNNrEAE5pb6rH3daIdnyOGnLx//+MedmQqQOKcEp4ChMQJe+ss1/I95S3mXVp+yyQYvx81kMuuKxeLypqamp2fOnPn3qVOnsltnR0VFRcvGeFluKV+/Y8DxpGl4xYoVjatWrapZt27dpHvuuWe/urq60ePGjRvf1NTE+3Wqqqurq2OxWAyGgfmUPRZDyNGEePwBnp///OdO6msrWVUkwwgCmTSZrz1USa3wrgIAYh6dV40W7QuE9A9priTmvvvu617NARPgo8E4hEzl4HMv1/ItLchzlW0XKOU7CSha76QImULrOMowqpKM9BW/UAvOuJ9ncR56UMUBeGBO+WvSfggk+Z6S/HzrfUfySbQ9LucAGu3TP5mQY+dBbwAAIABJREFU/7+9MwGTsrryfld19Uo33UCD3QgKImoEjYOMTtRRExO3SGI04i5xVOLuMEB0/OI2aIzGfcHRcWEiGf181LhMMsngRsyi0YkLKqIiSNibphua3ruqPn9l/3juvF91t4qJTdn9PP1U1bve977nf885/3PuufQH5pfTGHh/HKu/Q5vx7w4//PBMgijHmozKtcz0cACxoimmGJbFxo0bWaqjOZFItObn529oa2tbO2zYsHfGjh371OjRo9+urKxcU1VVtb63OMzH1SzdHfdXB07YkHQ6zbIBBe+99972b7311uj33ntv38bGxjEVFRXbjBgxomrYsGHlAwYMKGNqSGdnZzGAcbU3R9o1a9a0pVKpFVdeeeVg2O2CgoKB2MLSvJZhBTyyYaG/wsvSKdf0CFkpBMsAr1rKe1t0Q+oWIgNTDYFilEWIefFhUqIxFBM2NbskKzjXumsSIbJIBmF1tvEXAISRcUd1jjPVBYFmpKbgBqVr+Q7DBrgseCgLFrKVBg5tv1S1PhftDU1UnoN78dwmifLbgYhnEpwkBZNciQkGeASOqTpcl3fN8V2EQntLS0trZ2dnQ1FRUW1FRcWqioqKxeXl5W/utttu/1NSUtJQXFzcUFFR8RFt91f4+1yBEwVRU1PToLVr11auXr16yNKlS8euX79+54KCgsHV1dWDqqurawoKCqoot7tmzZqy+vr6gvb29saWlpZ3v/a1r939+OOPj7nzzjsnr1+/fvfq6ur8ysrKzNRuhUITj3tq7+sX8XLDTIGQ3UIQrCXNi+U4hAhBYBQFVAgw6fgU7dOkAVRcBwEGOGou/TkTXA0WGg/iHLcZzDP+wn0tEGiwj+dRA6kNaYPA0cQlHcVESVNXNM18JoEjBc91uY/5daGvZr8as+K32diYYmGyp0ma69evT5WUlDSvW7cudfLJJ8dHjBhRxsAWarhUKpXs6OjoaG1tbevo6NjU2Ni4DmBUVlaurK6ufqW6uvpP22yzzZri4uIVLIiL+/qXMMV6w16fAU4ERPkNDQ3lyWRyQDKZLFqyZEnZe++9t11bW1vVgAEDWAo+0dTUVFZXV9fa2Nj4/owZM15OJpPtN910055z5869sKmpaY/q6uoh2PGu22LcSOB4P9d/CZMfwxeJ4GBySbuGmQkyRhzD0hyAgX9GdQUJ6hlBBmSAwuRYBM4cK00pNAEaBO1o3p1ThBFKvqNJuTbXQ+j0QcJAnwFGwAhwLrvssrzHHnsscyzTAOgT2mLRQzUsn8bbZPG4L+YaAw9mpiydQWn6UaCrMVyihHPQsGit2tra9qqqqpUdHR3LLrzwwgfXrFnzlW222aamqqqKopYUfslvb29v7+joICu5Lj8/f008Hl+28847zy8tLcVX2Tho0KDG0tLSulgs1t6bYP+l9/dJ4GR7aCbTkVWxbNmyBKNpQUFBPJFIxDds2NC05557tjDqUCxxypQp5yxduvTU1tbWUQgBDJzmUBiINT6DcIVJnxxrirrmismOmkgGVZ2wdd1112UCnggO2seUIzUEn6b3Y9ObXMgngmi0nuuZ3oNg8512chxCzqf35jxjVgb70Gqch7ACUI6dO3du3oUXXpgRfil8wQ9Q1AxhDMfBRbYOsAFWNK/9YyYHfWq/0F6ug18HsAEw2gpTs6amZnV7e/sfp02bdvNXv/rVxa2trVgN5bW1tcPj8XhFPB5PFBYW1peUlKyuqKjYUF5e3lxRUVHLsq2fl1bpCXxbDXA+7ghy3nnnHfXcc8/NKi0t/dKqVativGzNI80ohdIXraOsDyRjxqdTbnXwNY24BkJ3wAEHZDK/9SWkvTVvOF5zCYCgUSQiBIWsnH4RCaCWyJU8cB6TlXMUWO5rHMz5JYz0mGNM6zjqqKM2585xbwYdfBCpaBxuHfHw0/6mbTj8tNWiIRIBMpKSLsagACn+C8erfRsaGt477rjjrpw5c+Z/lZeXw4AhewUbNmwYgAWRTqdTgIWYL2x7LMb61H33L+eAc8stt/zd1VdfPXvMmDHjfv/73xeGsQF9GV6wZpXlkUIzJTwHAVZQHIk5Fk2FIOJ0Y5pwba5FtoDslJkMjtZSv2aNc10E3OAs2wEZgifBoNmmaWTaDs/gamuyjabX0D5MOsiAe++9d3OpKkHjsoQcI5OniEZBxHZ9I47lGjyPeYGylvw2S4DnIEUGTd2VQ5hub29fOGXKlAtnzpz5i8/DJ/msIZhzwJk9e/ae06dP/9nYsWPHfPDBBwkEz2ClAobAYtbwj/CECYc659r4vHzOl/UyWMhIShyC5FT9J85xFEagdNARdkw4U4q4Bin4nIcjbdo8oz8sk/NPaKdpMU5VB6xqKpk5U1gQbJ6Jz5dffjljPkoXc0/uT7sBOFoEAGluqi2MAwkgzTV9NM4BmPaJvhefgJs20X7iRfZtVVVV56BBg17fb7/9/s8ll1zyq89aiD+P6+UccO64446/mT179t2NjY171NbWxgUFGoYXiwAiPCZkdmXMbi57hOA7EQsh0azSTzGqzm+ynvmtv2FkPxQ+U1iw9xEqq8KoSQzQel2EwBQYhBYhlCiQ1pZYQBsSx5HlkzygzUTlvZeBWlk0np/7AgCzLMwYD81atbBsHb6OwKENxm9ou4BVGzEAMG2CwWDw4MGQOK9ed9115xxyyCGvfpYR/M8DNBnL4/O68V/qvvfcc8+Xb7jhhnvq6+v3FBS8WE0JXiwmDoKDnY9AG5lXaBECjnNmq/Qt7BDb0SSkrUydOnWzkKuhwuwDfSr9EE0phNTJVk7KY5t+lD4WANChV8vIeslYGeTkWWH30F4Eg++7777/tSQG16btXId7mhFhyj+fDgIhXU+fyJZBbBhMltRwkLB/+c0+NCMauasuW2sikfjjnDlzzp8wYcJrf6l3/9e8bs4B57HHHttt+vTp92zYsOFvjUtoxzuSG7lHyMIRnZeOQCkUxn5ckBfhI5ERoWchKACooIRaIkxPQdA4DmHUB2C/iZSyehxnO52Xwj7MHU08WUEDi84DAvz4RQAd+vtb3/pWpp0yfFLtmmN8yhyaHxgCR9NPp19NigajLWgd/T3PE2ySGQw+1GVjcNq0aVN7cXHxS3Pnzj1/4sSJf/prCvhf6l45B5z58+fvduyxx97b1tY20dHflxtOp0VQnSvkhCvzrRBwkysRMBMg1QhMNyYtX/pYPyBkm6R30QSYLTJ0BlfNPlDQpHd50WyTlnahJxNEo7Qxz8axtBGNSPIk3zGR+M0+yxIDAIDOvdRUUtLdmWr6bRImAJJ4jgSJNd7sG4BldVPMRfp07dq1yXg8/vpFF110/tSpU1/4LLKT/1KA+LjXzTngvPDCC7sfdNBBjxUWFo6mExQUXqzTqY2sCw5nZUpTAwhePiM+IyeaCcEl4Mh38q9C0iDMNDA5MQoc2Sc1E21AKBU4fYuQ3eJ7yPZxH6P8khDcj+tQ+OOKK67IMGm0G60KgHg2C/UJHONIal7p7GymGufo33F/kzg5hz4RlGYyO1WBtn/5y1/OHEOfdXZ2vnvAAQdcM2fOnJ/GYrGOjyugffW4nAPO008/PeHggw/+TWVl5QADfQKIl4p2MUkUIUSgDSryiSBagkimiPMZvQEL2c/f+973MuCxNJPA8T4IkfljCB0mDkLJd01BfpstbQ6c6Suyf7TPyV9cm/Yb5NTXcZmQF198MVPiycxknpNzXTUtTIERbLZF4Gh2Rn0ctQvtMinTpFfz+CQ3ZNVoL3l7EAoAp6mpaWlRUdHDTz/99LU1NTUf2Xpb8V9OASedTuc//PDDex9zzDFPVVVVlZh6YgTe6i3Y/kGMISPklpJCEJz+rBkluAjqMf8DPwIhMzcrBI5OuMDRxLIaDYLsn0mZoX/kPv0Z2to1YmfAy7+pPrQB7Uj7zj333MzMTsCn6WZbuKbZEXzXDNQsDLPPs7Fqgpz7QRQwx8ZqPWY1aBbrf3FtzDr8HPy01tbWPzc0NDzx5JNPXr3HHnus2Iox85F/t7U/QNh+otH33nvvN0477bTHq6qqivFh+NO5Nm0dG519CIG+h/NBEFJGaoU5NG8omG4FHs4DbLJTtiMEDt/VcF1pQhlzT80ELYzgh2QC+0wH0kknpZ42oeFgqxBS57YwolM19R/+4R8ygsoffg/ANX/NAcBSVPQD7dcEk1nLZqoJYAOvgAcTjH5yfRy1nMc6kPB8EyZMyJAUJSUlf25ra/uPW2+99dZ99tmnHzh9CXjpdLrshBNOOP2RRx65YvDgwQMFDoKDgPH5zjvvZEZcBA8BQnhgvbTlGUERMATLQB8CeMIJJ+RdddVVGaFkn0FEA6ycj7BKRMhaodm4jzNRnRIcMlvO6wcUCCTtkaCgzbQHTUOyKc8RMmAACkLAWBLAZGAQLMZrQvNRM493B7DpD4Tf4C73dxqGfpjxLe7DNWmPJEEI5FAeOI4qpgwwGzdufD+ZTP77ww8/fMfYsWP7TbU+BpwBRx111PRf//rX55WVlVUhVFLMCBygoIqOo63BTT7ROAiLOWGaYggFAkDqChUvEWIZJjOgESb+dNz5lGlTI+k3OK9F+hmh5d5dqSkZIGsuATaAh1CbOGqaDvcDJKeffnreE088kckEcKCQeDB+xG/aJGERkhmmHvFcFk7RTzF7wP4yzQZgmXkguWFOnyabJiH13AYNGpRauXLl29XV1bc8+uijDw4ePPgjU2Ar/ss1U6304IMPvvSll146JR6P1xhUZFSFEsbWZkR3dEZI0QYGRSUNJAUsr3vMMcdkSAEES9oWoVVraZ6ZpaBzL+VsgFWzT4BpTmHK0D7aqXnFiG6CKu128Vxnd3I8U8Yx0WgvIOPZAILr7pi8GjUFTR/ykz5Ai5kWZPsFnpkDPrsrLTjFXU3FNQyI6j8x23O77bZrWrBgwetHHXXUP8+ePfv3/axaHxsx0ul0+b777nvlO++8M7mjo6NaapgXzT9TDAyKImi8eGsrAyL2GTcRDAgzawEhAOy3LoJr/oQgQNAkAywMgh9gcTyzsR2NGdlpkz4N17e4hSwV4Aw1p2YcAGOqNv6PGoJn0IfiHgY+1RyaaA4cagdTjFylgHvyJ3Cst8w9JQjQONzXJFmZOUkRGTo0/U477VT7yiuv/M9NN910wZQpU97pY2LzqZqTUxqH5Uj233//q1auXPntlpaWbRzhESYEGupW1kenXYqaffo+fPLiEQaoZwKe+BeYaBaT57uL3QpGtulEo534RwsgmAi8foe+E/dBmxDxh7FDkDke0JBlDehoN23GxEQL0V5iNrTpxz/+8eZlI7mWKTVmP3Mfk0MFjyak2QD6LrQNDcfAYDkrJEoAS1QYr2HAkWp2kJGdsz+4J5pxl112Wbp69eqHHn300RvHjRu3+lNJah87KaeAw6SoAw444Mp169Z9s6WlZZjxGc0qTBGBg8YxIREQka3MNn0M9vHSKaeEwJrUKEvHdQCRxSscxRUwmSpNFqlrwazfYe4YAu0UYx1z2s8228S90HyURaK0bkgdQywAVK6Dr0ObrZzZk6nm8zjhzHvr13A9g51qKDMPSOLEvA1jVpwvcADUkCFDUrvsssv/7LrrrpfdddddT/eF2ZufBQZzCjgrVqwYedBBB11ZV1d3aHt7+zCEEg2AmYZJ4wtFkBRkPhFyswPM/0IAcLypI8BIjHZx9Oaa5pjJshk85bfMmQFWhFAn3HR8fQHub0zJIoUWEOG+5KAhnGggwA1YmdH50EMPZahpiQi1mQmctIFnsn52d+SAfWSQVs3L81mM0ACoz6N5illpZoZmsUBy+8CBA5t32mmnZy+77LIZkyZNevuzENq+cI2cAs7ixYu3O+yww/6lrq7usGQyOYwRmZEUM4mgpeaMrBOahn+EJaSTnXLws5/9LCOwVsoxHR9wcYx2PUIGIPhtySoj9ezjHppqCrAZ0PgItEu2DLPNjGmDmQiKUwKopHP++edn2oVGMeNaXwOtQHsZKPTfokHZkI6WzZN8YKqE4AuvqW/H83BPAELcyAFEVtECKZq6rOi80047/ee8efNmDh06dFVfEPrPog05BZx169Zte+CBB16xcePGSZhqvETKqgIaF4EVNFadQajxCTSTLGRBCduJEydmnHXNKMqrMp/eIoLWCjOICVhcTwYNgLAbPzLPTPrWRE7aaDwJjeiMUBNIrYbDdpx3go8W/HD5dwUhJAFk+NgX3R7+dhU22k6KDJVRNUNlycLrez23MftVAHNdnxvgdlHoG4YPH/7U7NmzLzzooIM+Wm05B/5yCjj4OB+u73h5U1PTt9rb27dh9Gd1ZxxrRk/NKU0n3h+jJ4E8Rk5rGmMCObMT4Xf+PCM5OWoIP4XBMZ00dQAm2xFwgMi9mdsPGLgGGgIhxfzi/oAPEy3MZUPw0Ez8GU8y3YfPSy+9NMPw6WMYpP04wNHRD0HDNqlrhByzkPYBBNqn1owCJwQPYNN0M3OAe1jLoLi4eGNNTc2zV1111Q+OO+64nGDUeP5cA07N/vvvf+mmTZu+nU6naxBeCl8g7OZ0MfLrb/DC0TA64NK6F1xwQWaiGvucVoBpAnVM6VanAAA4aNkwnoPQIYzcA8AiTDjqpv2Y2GnGAQIK+PSLXLKCe6g1ADJlX08++eTN7XH1MTOcs2mWzAuOxXrUOMaqGBTsF7IrnLwm0LKBh22ADf9PNpDncOIf/ZdIJJqHDx/+3DnnnDPjwgsvXJgDyibzCDkFnMbGxmH777//D2pra49LJBLbItAImEUpZNlc8gJNoEnBd9eZpEaaphvbXaYDIXn77bczgo7JxvWdqAawAKqTvRAk/hnJScU3i9ja1uyDtTPDWuCYGqNWQggRwDPOOCOzip0sHM+gZuhJ4zhHqDtzzVgNz6jWoUyu8Rrp56iJJqgBHnUTLKGFpgRI9B8VO2G0a2pqnj7++ONn3nDDDTkx+zPngFNfX1957LHHnv7GG2+cW1hYuD0PaFCTkV+zh1Ge77xkq1MiAPy+5JJL8o477riMucWoi0ZBABAOhFuGDqE3YGjMhuO5rkUwXJ6CdoQ1qPltMFT/yZQawEebzAcDiNRtYyEotQD7dPA5vzfgZNNGAsnsBq7NvXg+nos2SICEoAl9JzUafg59R/84GxWAU56qs7MzWVVV9dykSZN+cN999+XE7M+cA046nS4688wzD33ssceuKy4u3hFtgznFC9Wf4YVanpYR24RO7HlGykceeSRj26MZzN1CKDD5XDUbf4X1Zchd41hGW1kpiAjuZy0yzEFAY2Z26Gsw2pvubyIo90I7AW6uyejPSsqupUO7OIb7yvb1BBzn+IQax6Am26x9QFvoFwAEGGEarffck4/DsfQNwKc/AaLsI6ZtY2NjcsiQIc9997vfnX7nnXf2a5y+aqv+5Cc/+cq1115714eTpsZjIi1atOh/JU4qIAiNNaElBojZsIqxJp4JnWoAfiOsCAuBSHwBTCqAxDH4UgBAatvlNFzSzyi98/ytmwzQNKlgsowT0Y7LL7887/7778+YdYAHoaQdXMvKMj0BBw0YapzQgWe7vp+UOPemXWgdtWGUoQvfPc/KM9MHmr3cEwBijq5evTpZWVn5zMknn/yPt95661t9VW4+abtyysfh4alyM3PmzDlFRUW7jh07thB6lVHfDGaBwzZeNC8Y4eHFM68FwdVsQ0ARfoQJ1gygMb8EtozR1MAoWs25LuHI7XXRSKbicA4jOVSyINGPcB6NszdZCwZtQ7zEoiIGNbkP23yubOYY26LAifo6ghbh17G38AfayLZ1Bx6ZPcw1yBADqfQh5y9dupSaak+fc845F1x55ZWLPqmA9tXjcw44b7755o5HHnnkbel0ep/Ozs5yTR/MMIDCyI0wWUjd3CyWH5w0adJm88x1ZxiJGXkRZsBjjIPtxHUQalk5hcwYDZ9mHgMc9mtecR3A5qpnxHOkgDF5ACfL+wFQ/ZhwOoD+hSk83Tn/mmVRYPmb8xFwNSXXAdTcC21t3p4CHLJ0XNvZqFD2nIeJhxlJv/D5+uuvU9L27enTpx9z/fXX92cO9NWRgLSbww477Np0Ov2N9evXD0EoMHkYCRFwM31x4MPsX7QN2sClx60P4Jx9ntcJYhwDRWzav3lnfJqqj0Ap1OZ96TPge3EsoAXArgbAtGyW9mM/K1YThOWcKHAEDZ89sWahP9UdcNRczmxFE1tXAFIkOivUvLcQuJzDgIT5Sh+hCWUXX3rppY50Or1w+vTpx/YDp6+i5qMo+YDDDz/84tWrV5+yYsWKEYyg+iqmz5tPxj7ME+bbkP8FmBAaRnxMN/bxL8OlGWcWAKaJaS1qA8ASpu1bCB0As49r64DL7uEb4S9xb+boQwh8GMjNjOAmkXYHHk0oNU7UhwmJgOixvkY0AwOKeXs8k3WpIUQcBACI5qRTKLiGs2hdF0ciA9LgD3/4Q0NbW9sH06dPP64fOH0bOLGLL774sCeeeOL6tWvX7sILRvgQPFkjfA7+MOPwYVgKg/0ILsczamKzQ6cauJSatdgGQqjWcqKacSKzlh3lEV7n/2gaGrikbWgaZkpi3iCcJJf+4Q9/2Oxz9GSqmcLTU1pNFDDhb9oIcMxPA+DS8AwY5viZqY32xuTkGQEaf5p6DDZoTwYCAEYlz5dffrmhoaFh6bnnnnv8bbfd1m+q9VXssFz8f/7nf+4xbdq0O5qamvbs7OzMN++Llw/DhabgD02EtiF2YzwHIeXlAyq0A7lmOtlcBzMNwTPaj9AgRGFqTOiwm2AJcEwOtTQvoGEZerQMgEQoobmZ1cl5YfkpTSM1m79DDRMFj6ZaaKZFv/M7ZPJoI8/GIML9AQ7PJsPG86Jh+O1AIX1ujQFSkeirnXfemZXBG9asWbPk3HPPPaEfOH0VNR+ZarHly5eP+frXv/6vmzZt2qe5ubnEER+BxgTBduflA6JrrrkmE4fwD2FhH9qE7xbdMD3fyD8CZNqMQsz1w3k5+jv6EYKD7RAVCBxaxrn8mG577bVXZh/tVEuFPk0UOLa7O1MtTJmJ5qnx21iSOXf6aZhrFv7QhzOz20/OR+vQD/qCVO+E+UOrQ3CsXbu2funSpe9PnTr1pLvuuqtf4/Rh7GT8nH322Wfu+++/f1BbW1u5qfPa7bxURlm0zWmnnZYxNQAGgosJhRYANAiDfpHJms7L0WlGeKLkgNoHYbRELedzLf0tc7sQXEZq9l177bWZYulsw1wCvL2RA9kCnNk0TzYAqUllAwGw9LXTIdBAAMNgsPdzarjZElyfY12NjT4kCNzZ2bl+0aJF75x11lnfu+OOO/rp6D4OnMJvfvObc1544YXD8vLyKi1xiw3elQaSEegbbrghM+IDFl44VCqOLVrFwhmYbQoFAuRS5E5/Ntjp/H6FEbAihGoTS+lyLUxAaVwLIdIuaggAWNfEAej6Z92ZatY46MnH0TwLzTT9HNvh8xhvEtA8B6alJAVAkUrXBKadHIM2hG0cP358xm/jWQoLC9e99dZbb33/+98//c4773y3L8vNJ2lbzsVxePi6uroR48aNm5OXlzcxPz+/Qhvd0ZOXfPTRR2cKpyNACK8p/8y/gSJmOgKaCSExhQSwGXRESBipTTPhHgBUkCGAFhzkGs6e5ByOg62CwsUsw1Q88cQT8373u99ljqMNaBuENsqKRR17zS3ZvJCQ4Fw0HPv8p92h6RWaepqWocZEa7Ad85ZPa1Hr8/CcFnCkH/knpgPBQttYtvDtt99++bTTTjv/rrvu6p+P80nQ+dc+dvny5Tt9+ctfnltQULBzZ2fnQF4gDA+Ur1nKt9xySyZx04lXCCnmEiYUoEEDOMNRW1661hK5AkCqmfMRUO7Bvyk2aDNiPggb13epEEfp//iP/8j7t3/7t8w5tMcUIIsYZqOR3abJqH8lMCQNBLrACoETJRbYFxIdnIOfQzsgVLiWmtgsbqdse3/6iIFA0JaXl69atGjRb2bOnHnhVVddlUmXzoW/nNQ4r7322vi/+7u/e3LgwIFDY7HYAF6yaTJoEWIkN998c2ZUdLEkYzcKrrM60QpoASlntJasGGaLlV30S/gEAFbxZzRmBOZ8v8PgASCuA0jQfmgezBwEziozxk+ymVpuM52oO+CExIW0tkFMP0P/R3KDfuA7gwF9gBZ2GgPkiUXX1VI8nxPs6FPYSPq6rKzsz2+++ea822+//bIzzjhjeS6AJtOnufIg4XM8++yze3zta197bujQoYXxeLyEUdMoPybQbbfdlpmQRiIjI6TJlggQAkMqDVpHTWMaP8JixRmEDk1j8Q1TUazPFgIQEDkzlOuSRkP6DlqQFauvvvrqzcurWyiekZ3r63NkY8R4ZtsT1ShqE2MtIfhCTQPwJDgEmWadgwHABzTEZzDFOMf1TQUsn5an4p4sntulUZcsWLDgiZ///OfXfvvb316ZK/KWk8B58sknJ0yaNOm5qqqqAlbiGz16dIYpQ4sw1ffGG2/cbK/rXDvX31mjgAq/h+2aI46yJjZyPeMZCrHTjR2xdfAlKNA65n9xD5g97umCTAg1oJGKllzoLoipxunOx7EOXFS7hKaewJGKDil17o/PBSgAjgBEY/LsphM56Jj7BnC6iIV333333YeeeeaZm/fff/+tvma0wM854BDHeeyxxyYcffTRzwwaNKh40KBBhbxgzCMccor4uWqZFDQvnf048/yRc4XpBDD4zshpGSiuxXedfY6XwjWKjwByDqMywAFwCJ9TrJ27Q2203/72t5nUGhd/wvzTRANkAjtkxKKmWyjoUXKA60kGhFU2Nds4N6TTOT80+3g2TDVMNvrPKQ20Tc1Ef5jbZ1wHU626ujrZ0NDwdmNj462//e1vHxwzZsxWXzM6Z4HDg/385z/f8/jjj/95aWlp9ejRowtghBBkNA9xEgQY0KAdEHacdYRHPwZNgEnw3YojAAAgAElEQVSlqQQAnPCl9vF4BNAMaiPqbEOwAKNBRGhtfCo0HsL81FNP5Z166qkZv4ZrInyaSjJ9nK+p1R1BEObGmbEQahC1oyak4DaQGtLRmm2SBAIS7YfDD2gwec1Z89rcT+3LsbSJY3bYYYfWdDr9ypAhQ6545plnns2VYoQ56+Ngqp1wwgkPJBKJ7UeMGFGkY3veeedtXk2NERHBcEUAHFpnfiIIztzEjNKfETyYUjrxCAy/jW0wqhsUlFQwsBj6WjBtaB7OpX2WnHJiGTEnfbBs5EAYh+lJ4xhncuqD4OAcAIIPFdLTXFdQybDxm/QZzoVd4xn5DqjtE1exw7TluQDYTjvt1FBWVvbsh2bb5XfffffrueLf5Cxw5s2b9zeHHHIIplrJqFGjilipDAF5/vnnNxcJN7XfDGULBIZMVuh8I9BWxLEoH0ADeGEajKBDsKSK0TKAA5aJ5NFp06bl/fSnP908xUGtwvX44/pck9/GcboTOu8RxmnUOHw6+ksfCww1FYAK/6JxIttGUNiUIbSjA0dYHdVzA8Kgdrvttnv4/vvvv2bChAk5Q0XnLHAWLly42/jx458ZNWpUeSKRKGJCFk74jBkzNtc6RuCdEmCE32i/aSV0kCYIAmaCI9sRHGuiCRyZNXO5OIb7ED9iUhqfmIxTpkzJmHIAAyHbEuBoVoWsmu1TkE00jZpinOs2weM5/jYIi7YEPBY/MQVHEMnUaW52gWfVV77ylbsefPDBG3NhTZxwgMk5coCHW7p06ZdGjRr14sSJExNLliwp4WXffffdGSfcERoBwe/QV0HTaFLpK3At7PpQ4LgWYHKkNpdM08fRXo1j3AcAUVUUAFE0XROJe2wJcKI+ThirUfuFzr/AEOz6PFFzMAQO33lO+ot2QxK4HIpkgc8rcLoAvWbEiBEPPPPMMz/KhQVzcx44CxYs+NLEiRN/NW7cuKo//elPpUcccUSmvJJ1mc2tcglDhE/g8F3ho6PMgkb4OAbgCCaTR8NYhqN9GEdBqBix582bl5lrw/VdIsMkUM77NKZaNo0TxnxsRzRLINQwoZaJfufZXOsUeh4tbVktsyS685FisVh9Y2PjuoceeujwyZMnv9fv4/TxHli2bNmYo4466qfr1q3bY+nSpaV33nlnZi1KhBSzzBUAdOIRjlDbaHKpPaSjzTnjOggNWiQaR/FcBZV74OQDFFg9fruMOlpL3+rTAsdJZfo4vhrvH2pPARWCqCf/hn2C3sHFJU+I49AP+mESBl67a/Bpbm5u3jB16tQj//Vf//WPfVxsPlHzctJUS6fTiRNPPPEXjz/++H7V1dWlDz74YCamgrmBIEAB8+cSfdLQ0SAigqZpZsUXBcN5OlHBVVsppPpRP/rRjzKBVytmWoKKdm2Jqaaf1J2PowYN26UPRhsBVk8ah+eFFPA42m/BEcDjtSQfQp8pFoul2tra1o4ZM+aS+fPnPzhs2LBNn0g6+/DBOQucAw888Nfz58//6mWXXRY76qijMqM+phlCalVNgKPwhGkmoaljIqaFAxEkswKMtHuu20N/AQ3zyiuv5E2ePHlzMBMQKowWev8sNE7oZ/kMXDeaxyZZoH8XJQZCIPFsIRNHu9HYBpXpF4mSkLnzmmiceDz+2JNPPvnPhx56aP8yH311MCBzYNWqVbvsuOOO/93c3Lztq6++GsM0cu4IUXATEtEazi8J6Vz9FATGUrj6O2wLU244PwqccHRH41AsnaLpbBd4fMfU21IfJwR+NuBoSob72GbheLMeQrCH32mjq1nznX+mGjD4sN0sijBOFFLohYWF9Q0NDe9cc80135sxY0b/DNC+DJynn376wK9//eu/POOMM/IvuOCCAiaoYZu7uJPTfDUzrNIfxjwcZZ2pqQ3Pc2vaIYzmngkCAWEWwXPPPZchBCxPhVBZPoltThDrrj9DIRSQIXkhdd6duWVlHiP6PIeg4Z5mLIRaNrwWpqCLR9FfDDz4ajy7a4aiQWUr0aD0GfegXzs7O9vb2trqx48fP/W11177RSwWS/ZV2fkk7co5U43C6zNnzpx5zz33nPX8888PwtTCtyGthgxf5/iTi2YsB/PNxEsExRJIdKRTCEIaN2TRGLEVbu7jDFLuhbb55je/mUcAFvPGTGaE14xrBbc34IRgiQKnO9AIDI4HYA4QZjI7sU8NE4LH9tBWnlHfhQGIYo3OGXJKOceb8AlwXLmac1taWuqGDRv2k3nz5v3buHHj1n8SAe2rx+YccCAG9ttvv/+bTCYPvPTSSwfzMsnqBTCk8SMcBCJdZxO2y1rNCJgmh2DgXFNaog44L5Vz2U9mgEFCaG+ue9NNN2VqP0PjSt2qITSRessMiAYkowAKf2cDUBhf0TQV7OxTwLvTOF6TT9rO4AB4LA0MSNA4XMu+QIua34dJ19zcXNvR0fHSLbfccuY555zz574Khk/SrpwDzptvvrnHuHHj/vvmm28esP3225cqoMReyIrmhfJPrtgf//jHzPx4XrhFAjVlFBjm5nANtZIslewax7sGD98JsgI+hIeKNV4bTSS9zb3QNOGiUN29tFDTeUw27RMKeHgtQW+WgM6806N7M9XUTpxvH6Cp0aD8Axx9SPuJvmEbfd5lzm5sbm5eedJJJx03d+7cnFixIKeAwzIfDz300N7HHnvsE/Pnz6+AEMAkQ9NgcrF+JoLM6Mh2spUpBGiqDS/cgCcChjBixysQYRUYQcC1nDKNecY1mPjFArcsvmsBdc4FKK4fE5IOn2ik61oPJyQgoqxY6NzzbBIDANuMcIFj0LU7jWPmNteQSHGqAYmoPD99G/o1HMd2+pIBo7Gxsb29vb1+1113Pf3VV1/971zIks414JSfdtppp40aNer8vfbaazQrKFPnC4HGZNBBx2wjy5fJVmb3ml5v2SNTajC7QlMtmllgnps1k2GcqPBy5plnZkw30lMAsIFDfpOij9YL87t6A093Pk5IO0eZMf0OzTXbaiBXs7QnH4dzwpw6MxWIhUEUoG1NgHWtIWl/gMps1y4CZHFRUdHNixYt+mku5K3lFHDq6upGjhs37sZHH330m8uWLSs22Mkn82s0lxBufBcEB+2AFgqDkI7KCJRTmaPkQBhY5FyqVyJUCNFFF12UWfLQEVrtxH5XmdbPsKZZd8AJAcMxUQBlyzWLahwZQtOK+C0J4vndaRyekzZKMEi9Y64xEKF17Cf6l+MgRZxAx8xb/Kj29vZlyWTyofnz51+/1157re5toOjr+3MKOO+8884O559//tWzZs06csmSJYXQppoT+CoIyd5775336quvZjSQDJsmmM6ySZzmp0lbK2QKD5/WTWYE5rwrrrgijxQfhAoThu0ch0ZCA3FftI7TGTi/p7/uNI3be0vStCa0tQvQqLTTKd6hmZeNVUM7SWBwT008zVtmyEpX87wcy7OFwOky2VanUqln5s6d+8+TJ0/+qAbxVvyXU8C5++67WYXtprKysv3q6+uLyEZ2FMRUMkVETYAAuV4Owo1QoWEUZkfbcKRHePxnu84zAIGt23fffTfXV2PkDYGRDQQKpuaU2iEMWIby1R0J0J0Mmh2h1kOww1y18Fm4hlkFTrO2OIcAtQiJqxtwLYgWCRHNUktmAaq33nqLPlm3bNmyBT/84Q/PuPLKK7f6+mo5BZzrrrvub/fee+9b8/Ly9iovL4/x0izshyAg3E4SE1BoJIQBAQI4mBUyTWYY9AQcK7sgoJdeemneo48+mrmGtQOiplg0iPmXBo5FEtUmYbZ09LkEV5h3FtYs4HiBE9ZGgEnkPgxM9oekBJ8AJz8/v2HlypXvXHDBBafcfPPNW30p3JwBDqsUzJs3b8KgQYN+Eo/HD+yKWmcAgYmED8LLxSzrsrkz2kEAITQSAzJNCLUkQSjw4SjNscQ0nn766TymZnt97uWom803UUMAzjAt32N1wqNxnE+qceiHbM5/6LOFDB1tCYHjvCHNNdorLc2zonl4VuJWTp/m08WDOZ6JhC0tLRvXrVu3ZMqUKSfPmTNnwVZspWWankvASdTW1o5fvXr19Rs3bvwaYOGlw2D96le/yhTJwAbHNINipuoMoHEyGwCxuKDTgY199KRxEEyuQ/F2MgT4s1A7Zp8rwHUHnihwoqZaVMA+KXCy1VULwdibqYaGCZm7cAoG+0xWpeAjv2EL6Q9qOPjsFEtZu3btxvr6+qVHHnnkqY8++uhWv2x7LgEn9u677+7V1tZ27QcffLA/JABgwBGHjsaUws8hUxmKGvCw3Dov2WnRFk6P+gA9AYdr3n777Zk1dvBpGG3RQLJxOuXdOfkhcMK5LPo4WwqcMIkzCl59NLdnM9XMjhbQIbtGGwEO90DDWMmHgQfQ0B+cB6X//vvvN65fv37x4YcffsYTTzzxcr/G6SM9kE6nS9544w1IgR8XFRVNIOhpiVuoYcwJqFHoZxe85VMywLpmjsY60Y7Y3ZlqFOA49thjMwAFeAAUwbGGWm+sWE8aJ5yEZjd/Uo0TahTNv+6eJRs5EL7ekBjxO8/L4ED/onXwc/TbTKqlLxcuXLhx1apV7xx99NFTH3zwwVf6iNh86mbkksYZ+Pbbb39j4cKFV+688867uAAUoz8F1KFNedmYDbzQMWPGZLQOwAA0mHEIvgKh32FaTHfCxgQ1arUx2rr4LtdiFGbUlRyIkgK+MRMou2PVQuDpq4Sfvb35UFOoxfyMMoTZgOOco+7ab+IozyrdbpyIvjXes2DBgg3vv//+26eccsrp99xzzxu9tbuv788l4BQ999xzZ9XW1k6rqKjYjqnSLhIFXfr73/8+I8xoIhMb0T5oCswrTDYj5EbWEWZA1pOpxooH3EcSQf8IwPIXJRei5lJvptpnARxNMjVOCJzQJMxmqoXACUkEwWsunqWCrVgqnU0/4O+8/vrrDQsXLnzjzDPPPCMXljTMGeBs3LhxyOLFi49bsWLFRePHjx8BDc1LRMMAED6JMRDbcTkP55rgA7l6QLjKtOVrOY6gnnlnAA2NBggRPAUudOzNpNZsUZAUYmeLhnXNsplh2cy1cDSOsm7RkVqt4lSIsF3s43lDIPksYZqOZmvog5k5wbn0D5oHDYNmx9+h/806Z3t9fX3d888/v2DWrFlTL7nkkq1+gamcAU5jY+PQD9eaPGXVqlXTx40bV+OyHSz+ii+DRoE+5aW6yhkMG/uNfEMfo4146QgV807M1eIY17okHnT99dfnscaOznOYvq+QKvSafVK65r6p2bIBQUBsKXDUcGGb/M4zOkdIgEWBw/lh0FStJQCdDct2vtPX9LE1GiAIGKhWrFix9ne/+93/3HjjjedOmzbt/b5uivXWvpwBzqZNm7ZZunTpqQ0NDefvsssuNQAFYJBqw6fr3ViuVoGng0hERJgYGfFTBAjHIAyYGzr7+EPsZ5kQlzUUGJppoWkURuzD2InC2xNoomZdby8z2/4QgNlMtVAj8T0KHGJbUTratBueIaw6ynbZS/oZLU4fAaT3339/5Ysvvvj8nDlzLjzxxBO3+qqeOQOcpqammhUrVpzW3Nx89pgxY2oQdASe6QOMeAg7AuBye7x0QMKLx9QAPJyDCWZuGhFxswkw+6BVuRbLDlJDgG3ObwmDhgowghhS29kYqt6mPvcGlqgPFD0+6qNECYFw2kE24EirC2LaG2ZZGxCl7xhk6Fc0MvEz/Ef6k/8///nPH7z88su/eOaZZ66cOHHiVl+0I5eAM3zlypVTU6nUGSNHjhzunHdeKKABDIx8CBIjoYE9Zyrq4AMmvsMQobU4R1obhui//uu/MsFOhcQa1N0Bh/tGGanQl+E6UZYs9Fs+jg/TE7ii947S42qM0CTU7HRCWqgpo8DhGK7BAGOWAeYZAWdXhUD7NDY2vvfuu+/e++KLL94xaNCght4GhL6+P2eAs27dum3r6+vPLigoOHXYsGE1ocAJHsCAoEIXm5TIPuxyPtEolrTFR0ITARwAwz7MDoKmXJvRFO2jsJgcGTWNHPGzsVcca4CyO7DoF3UnSL1pHIHZ3fns14QTwJqetElNHT5XaKpxrP6OfQFRgH8old81hWJBIpH48SOPPPJw/0S2PjQssNL0unXrziktLZ0yaNCgGoQBwZf9kRwwQAlBgCYh/sJ3zTMeCUBwLkwcOViWumUJREgBVygwORSh6o4cYF9IBuhse3zU+Y8CaEuBQ1sFRDbWLhrUDH2c8LmiWQ2CxXlF3CccBOhnYmVd1X46Y7HYy3vttdc/XXLJJX/MhUo3OaNxAE5tbe355eXlJ5eVlVXzYqVazXLGhMCkIuETweU3ppovH+HQ5ncym0sRYut/4xvfyLBF+kpmQfdER4cslP6MIFUb9WSqhfNtso1TvWkc8+ZC8ITOflQjRskB/bQos+aAhIamr6xYKsXNdSZMmGBQuT2ZTL5wyimnnHviiSe+EYvF0n1ozP1UTckZ4DQ1NQ1vaWk5K5lMnl5cXJwBDkLHC3QpCsgCQMLsTyeZYXJhglGlBuHAsXUJQUCDzwNJQJkn8ty4BsdxPkLZm0YwOzlkyEJhN7OgO1MtdNij92IfgHYGK9eQ2WMAYLuzN72/GkZpCbVECA7vJavm7ygdTT9bqJBrWkua54aI6crYaO3s7PzDWWeddd4hhxyykNK4n0pa+9BJuQScmpaWlvNTqdSpRUVF2wgcXrT+B8LEb0w0NI2EANsRMOx9NIorriE0MGezZs3KJHJqVgEaSz71VhctzE6O0su2LZSHKIDCJMtQU3iOJXRpu8Bhn8XcQ40VZdT4HWY/h5rTewkEf2cDjtkDIQhpN//0XyKRaI/FYi9OmTLlvO985ztonK2+KGEuAWd4W1vbP6ZSqe8VFhYORcgt9WShPBmursorGSAocDq8AMqsXgQQc++rX/1qZjU1yAWuCXAgFGTrehoIQx8mymiFQOpO40RZNwXY453zIwD0RfhtOk82bWNbQmGPXpvfTrFWGwk+TTXvY6KnLJ2FQCAJiouLk8XFxX864ogjzj399NNzYtWCnAFOOp0evnHjxhnJZPKUgoKCIbxgXp4rPyPwrq+JELj0OsdhViCA/COoHGuglOkCDzzwQMYc4XxXppaqDU2xbAAKTRz3hwDqjVULpyVEzTYE21K7XlNAqRlCPyqbxtHvsm1RABunypY9EGosNCt9wz/XpH8xeQk+d00xeANy4OKLL36q38fpQzZnOp0etmnTpouTyeTJiUQis44Ho6XzYxAANI0jJCBxNDXlhv34NRyLr/PrX/86szK0ZhkUNdsBF/Q0QhY1xaJd0lt2dG9xHEdwR3iZLgkGc+FCwESJgDCWE/o4fA+Bk00jChzvF9LSns8++sFKpjwTvhf96dL0gwcPfu9LX/rSj2644YY5/cDpW8AZ2tzcfEkymTwpkUgMYoTU/0B7oC0IfDpqMyKGfg0vWH8BLQIpcPbZZ2eqfXK+1WwUXATK4u09dUMUOFE/J5xolo0uNtBqUmh4fwTWKeJhBR7uoV8XgiabySZwQm0UgisETpioGpps9DXtEzhqcOus0eaqqqplo0ePnn3TTTfdVVlZWd+HROdTNSWXTLWqlpaWK5LJ5PH5+fkZ4FhhhhcJKFzrRrONl8+Ibh4awqb2IWZz6623ZtJFEADOQfO4gC7CwD6u2dOfAh0VYM/pLo4jiHSy1ZQSANLlAJ7vZlkbW3IqeFTDdMeqadpFAcRzC8JQ6/g8khcAHG0dzsnRz2EAGzp06KqRI0fef/vtt9/E908lrX3opFwCztDW1tZZyWTy2Pz8/EpestnOmBF8dylDhAFhC0vaAg7+oKapAHrooYdmtBSZA5oiHKOAARj2Obenu3ca9XFCcyiqfbJpHM0h2qqQ2n4Ekza4pKA+B58WHIySE92ZamY2hJnTai6BI4iifhTH0cewlADZYCjH0YeYy4MHD64dNWrUI9ddd901o0ePXtqHMPCpmpJLwNlm48aN17a3t39n/fr15ZhR0sy8eIQsfPEKsGDSicaHYbFdCm/wXcHPJtT0uKZYCIIQHLJ2IWMl88U5oY8T3sPvtJ1j0ISabaEgh0miIV3t+Tw3ggwg1Jaafca5BKd5aGo5QRbm+6n5zM2jTQADrc6gw2/6nr7jnpxLGz5kPBvKysrmXX/99Rfvs88+W/1CurkEnJqmpqbrmpubj2xsbCx1Sq9xiChwFHQFEwBRY+3aa6/Nu/rqqzO5VvhEvbFO0ThJVIuEI342yjmaHR2lhKO5ZuGENASb58oGuI8LHNsrWPxUA5lZjuYALG6X6mcQQBMDTkxZ9uMTAiLegdM5NmzY0FRWVvb7qVOnzjzttNO2+hULcgk4o9ra2n5SX18/KZlMFiFU0KDhUnvZNA4jKJQ1L56Rkwo45K/BCDkCR6naEAC9AUdN1p3zLQMWZcLCeyKMjvTh5LhsGia6jWfuSeNETTRz0NyO32LZXMkBnsmBiOPZb6YA++h3si3QOpILtbW1HaWlpQvGjRt31X333cfKbG2fykbqIyflBHBY97Ojo2P3dDr9o7q6uoMLCgoSvDBeoEFKR8jQPOEdcAwzPknm/P73v795ng3LH1rFMpumUNDDNJhsBIBxlnAGptQyxwu8qNbwN+3meGs1c52QkhZIUU0Vnt8TcCQT9N1CH4dt5vdZc04iIjTVeAaBrQanPwFP18JSmcEpHo8vKioqunPOnDn3jhkzZkMfwcCnakauACe/paXlK4lE4qr6+vq/LywsBEibK9joE7AtChx+Y2LMmTMn77LLLsuYGKTkmJMW9mo2P2dLgRP6O1Hh594moNJOjlX7ACQAJXPYHfA4ryfgmIaUTSOyDe0rUAGNJIvaRzbP+9tGzsPcBTyYvF1EwZJkMvnT66+/fva+++679lNJbB85KVeAU9Da2vr3sVjs2ubm5j3NU0PInDLQncbBFKF81OGHH555JZIFCqgjfNRcC00r92XTOL2Zap7TneCzPwSUUxQc4cNVB7KZbr0Bx5XowmcIyQ00jmYbIEGDu3Qh5wgck0tl/vCNAA0rRjipsK6ublkikfj3s88++46jjz56q6akcwU45clk8u+bm5uvicfj4zVv+AyBk41ORTDOPffcTJlcXjpA4lOgWUc66otkA1I24PRGDjDidwcattMOWa/QjIpqv+4IAoDbk8Zxvk53A3loJhr/cmpFaGoCKH5zPfsfqhyTjbQbnrOurm5FaWnpTydPnjz7pJNOWt5HlMenakauAIe4zdcbGxt/VFJSMtZV1tAevWmcF154IbOcOoAx+KlvowMcgqan79mA0xsdna0oengPtadmJuBxygBaB4HtiWDoDTjhOqShL6c0SYVzT3P8nGpA2+hfzoN2pm2mLBkwxuRlCUn+6uvr15SVlf3sO9/5zs2nnHLKVr1GTq4AZ0hzc/PkdDp9USwW244XqRMLO8YLNUjIyybTmdEQwWOlNusf87IRJNggjl+9evXm7OnQDAr9AQKhXN9gqo6/ghdqrGxDW7YAaRikjM7BiV4jNKuykRjhtvDY6Hn0gds0cflNf2gearKFCZ/hwGRbw3gQgxEzQdE8zc3NdXl5eQ+fcMIJPz7++OO36iBorgBnm6ampil5eXnT8vLyqkPgkJjJqA4IXCUZZ5ViErBo8+bN2wwcmTjTWGDbSKux0g2azLwsJ48JHKclhMChHb2tuBYCJ9RYfv+sgNMdaNRWxF74k10zS0Izz/iOwBU8aBq/h0SH96NfqClNUchkMtmQSqWeOP7442edfPLJW3UQNCeAw+zPvLy8M1Op1Fl5eXlVvEA1DiOiL5QRE0FH6J966qm8adOmZUDFqIpgmIbjdGAyoKFTQw1gugvH8p394QjrqOxI/3FScqKACX+HcaJsGqs3jROekw08tJP+4Zn5LnA0vVy9TjIiBHR0YOA65rPJunE8gw+lgktKSjam0+lfH3nkkZedccYZCz+Vc9FHTsoJ4DQ3N49IpVL/xCS2dDq9OTMaDeLIifZAk/ByAc+3vvWtzXQuwo/AG3PBnkcAAB02uyk7+hmOzKFpE0bcQ8atN42Tjc0KgbqlwOlO04QA0A+SAeRZ8J34NEcuDMCGTJ/kBds4n99oaP7dR/9SLriqqqopHo8/c9BBB11y/vnnb9XZA7kCHPyaH3R2dp6UTqcrfHloBbSGyZ68QMw1pgtgouHLMGpaoMNRUgoaoCA8oU3vqKxwW6jdiHsoVJ7X2yDZk8YJc+E+jcYJWb1sIFJDuNYnxwAS+sycNgEUah01ahTkXXlpm/PiJEcofL/tttu2lpaW/nbvvfe+eMaMGS/11i99eX+uAGdkMplkLs6xqVRqYDjq4dvwm7nvAGT27Nl5V111VYYcMPcqmjzJC9PkAnic55qXCArCYcJkmKISRvE/Lmg8JxTAqGnYkwD1ZqpFc+1CkHJdMwDCpR/pDwYE5woJHLVPCEbpdLWN0xnUzprA5AGOHDmyc/DgwX/cbbfdLr700kvn92Vg9Na2XAHOdh++uMs7Ojq+m0qlyhVsXj4T0tAymFzUSWOlNlgeSuOy3fJQBu7MrZKGNdfNkVlzxphK9LfsmxkKvTn3AjQ0/0LhNsDY3Yv8uMCJAsbrGa8KK+IABv092i9wwrQfz4c8CDMzjJX53OxzyjmZBNtvv/1rO+yww/+ZNm3ac9XV1R/N5dgK/3ICOC0tLdt3dHT8S2dn51GpVKosBI6mDlFsQENpKEBBfAGqWsFwdHWkRJAwXwCW/gvC5zwfq/EzcUuHOvQbTJHpzdQKNYKa5rMETjjDVHCGnzyv6Un6JACEbfQTz2EQlN9qZ9sIqRCaxmFKE4OCUxLoT7TO2LFjF40YMeLHs2bNenxrngmaE8Ch3kBdXd3tlZWVhzU1NQ3A+bfuGaYWIx1FN1g5jRfNKIn22XnnnTenkCBMAMmMaulZfRqTRTFpHEURHtkoB81oLFr92PAAAAsbSURBVCUsH5Vt1JeJ4jwFVO3nSB4lIz4JeRCaVZIWYVslH7ozFUPywniOlU3NtJDB5Brmvunr+FyQNJy/4447Lt1+++1vvf/++2/bmkvh5gRwli1bNnHEiBGXdnR0HLRy5cpSgAFwLCDx7LPP5h1zzDGZEQ/qGb+HYxBaXqbTkGWSeNmMkOxDsPgUODrRpphwvWyBR4U0DIBmc84tVq6voKnookwuJ9+dKdebRsuW8hO2tzfgSHbo96HB1DwAh8CpGRZmNfCpCShw7K8ddthhxciRI++85ZZbbuvXOJ+jjcqUgry8vG0aGxvvKi4u/sayZcuKebFkB2Ce8VIJdlJRMqwPgM/DKKgTL22MoDtqIiQSCAJHwFleN0yZyaZ1oj5KFDzRjIRoADUq2FGt1RtdHX010Ry33gKwIXD4HiUK9HG605g8vywd548cOXLtsGHDHrjhhhuu33bbbf/8OYrOFt16q9c46XQ63tzc/OVEInHl+vXrv9Ha2lpAUiEZAxQNJF4zf/78TMoHGQOACq3Bd/wT4zx8AhhnM2r388kIataAwOG3I2xPGicU/NDs8bvxIxMjnS5goNXyU92ZUr0BJwRmNlMtG60cvVf4fAZ7paotXyWNbeqRmk4tzvNwnerq6obKysonf/CDH1yx7777Lt4i6f0cT97qgUPf1dbWTiwtLb1y9erVX0+lUvm8JLQMlWrIDqD4NxPTEEJMCwtz4P+YUoITixCwD2BJx/KJsJgRrGlmBc3eTKGPkyumsAECzUYEUye9Jx+nN1MtTIPJBpwQzKE28zvPF15DP0fgRAOkxnr8dJoG1+M6Q4YMaSoqKnrq7LPP/ucjjjhiq80eyAngQA60t7f/+6ZNmw7YtGlTCcLwy1/+Mu/iiy/OBDkBCHEchJ0R0MAmVLXJjW4TKAgxL9vfZgRLBvA7ZMS60zohgxX9zu8wuZJryEp5rD5SVKj93RtdrUaKmmjRwbo7jWYwWPBorhm/CqlqqXU1MaDiPH0i2lBZWdkWj8d/O3ny5JlTpkx55XNUGlt0660eOJhqq1atmlBTUzNrxYoVe5eWlg5CWPbbb7/NlfOJ1yxbtixjrjG7kz9WKQBUZgsgAILH1Btz3tgXFjfkfIETxmmyCWcY4MxmqplECkAQSule01ac2twdOdBb9nWokbK1L5uWCUEUAieMWemLyQRqsnkM2pJ/yQ+0OH8VFRUfxqqTL0+aNOkiYjlbJL2f48m5AJyCFStWjFu4cOFVAwcOPGjHHXcsOvPMMzOzOnlpsFIID5rCqQUAixdJTId4Dr8tTMh2K1AaBUd4BQ4aIgRO6GNkE8xonCaqdcI0ltBUCx3xnky1jwOcj6MNe9M4oSY0+OunDCDtFKhuQ9vz3ZXuunL/Fhx88MGXXHHFFdSR3iqDoLkAnPh77723S3V19eyysrIDLr/88oxv4wQtzR8pUwOTCqMmWVQbhE6zDnYYc3FbuOKZDJ1ZBhzjfgVTc8aRHvPRwuoyexICgFWghv5JCITegKPG09Sy3eEzCd7QVJQEsE3dmYoykJzrPQQKz851HLgME4waNeqdbbfddtatt976eCwW67kU6ueoVXq69VYPHB5u5cqV233wwQcXvvnmm9+ZOnVqDSnszhPRKQ2FORzBpahDQQqFS1PM0TXMTePaZFB7vTB9RkGPClwUOJoz3DMKIGNJvsBsmiPUBFFQcF6U1Qs1C/vDiqah8Buv8flDk9S+4FpOrQAUZhpo/nJ9GUlMUqh7jhs1atRbsVjsmptvvvnnQ4cO7QfO5zU4pNPpokWLFn331FNPvWzlypVjEW5eEkLtcuNRZsiX35OPgiBpoilwfIbCH6bVCxY1k4mPIVB7A054TxejjQInCqAoYMLf2ZYhcb/XDUsB66MInHD9Hf0d03TUJKHGivo4TqUGOKQvxWKx+qqqqjfb29tvmTt37i+GDx/e/HnJzZbcNyc0Tm1tbc2MGTNOfOCBB/5x9OjR+SUlJQObm5tLncGpCRUG+0LgKOAKhPlqAsCRU9CEI25U2zhqqwn0caLA8zyET00jcxdqnqgpFvWjBEY0MOr1JR2ivpVCY66etLOZC/wGEBAoPIvbQzIAwOEn4hfy7xSCVCrFYrmZ/3Q63YniGzhwYHtra2tTfn7+qpqamkeqqqrmzZ079x2O2RIB/rzOzQng/PKXvyz64Q9/uFcqlTr0jTfeOHr8+PF1bW1tQ+vr60vi8XgilUrxX8B/Op1OsC0Wi8URjjDXLDoSq0FCM04Quk+2yN8KmeALfYSotuIcWadQ04Q+DiN2+BcFjiswdGdKqhFNVDUOo+azJrVsnoOEFLIzWIMBId3Z2dkBNZZMJgFGMj8/H5Cwrb2joyPzGYvFNhUUFGyIx+MNHR0dTYlEYt2IESPe2G677Rbvvvvuy8ePH7920qRJW6W2yQxCnxdiP+v7QksvXry46je/+U3ZkiVLyl977bWd1q1bN/qNN97Yo2tyGzR1RTqdHpBOp/Pj8XiMv7KysuZYLJbPtry8vPxYLAao+KRv4gMGDMh8dvXV5u9d+0Efplusy/dhf4w0oFQqFe8azTMrLGdu9tHf5qnY+kihpomaatlYO0Ea+lHdAacrzkMbNv93LeyUZhHbeDyeys/PR/jTqVQq1d7engYM8Xg8WVBQ0NnQ0NCZSCT4ngYgqVSqra2tram1tXVTW1tbR0tLCwNRXSwWq8vPz6eKzfrBgwevq66uXldZWdmw8847Nw8fPrxthx12aNl1110bRo8e3fpZv/vP43o5A5zuOm/x4sUVdXV1JbW1tUWrVq0qWL58eWLNmjWFaCMyqZcvXz66o6OjsqWlpbK5uXloS0sLq1dv29bWBu8cLygoSHZpCoQMgepEgBA08FBYWBjvCgLyPT+RSOTn52dwl+nbtra2zGcXaD5CayyWASLHNTY25ndppVhRUVEGdF3ncD2Yqv/vHXVpnQwg4/E4n6zinPlMp9P8Z0DB76KiItqf2S9QeA7AgpbYtGlTY35+PjWm2jo7OztbWlpSnZ0okFhrPB7fUF5evgrVkk6n2xKJxKaSkpL1Q4YMqausrNxUUVHRNnTo0LaysrLkqFGjOmtqatpramradt9997at1QT7uCDMeeD01hGYbqtWrSosLi4uaG5uTmzYsKGgs7MzQc5bMpnMX7JkSay9vT2/ubk5tmHDhtimTZvidXV1+U1NTaT2FGzYsGEAx7e0tBS1trYypWHAhg0bipqbmwva2triiUQiAxK0EiRGxj7s+s3Xzs7OeHFxMcLOPQvRekVFRfEP62AXtrW1JQoLCzMA7RL8DFgARCqVAggdBQUFLel0GvOoI5VKJTs7OxH8JAfgW7S1tXUC9sLCwuSAAQPaBgwY0FpSUoKwA4zWbbbZZsOAAQPahwwZ0jF48GCOSQ8dOjQ9aNCgZEVFRcewYcPa8/PzKZjeCThyHRC9yYv7v/DA+bgd1dNxXRnaAIKYEmCJ8Y9GWbRoUbylpSUOiDZu3Ih2QctkGD8+GxoaUgRp+eOT49rb2+NNTU0AN84/plWXZsloGH/jTowePTrjYxDILSkpibmALdcrLi5O77HHHp2YX+Xl5amhQ4emli9fnjzwwANTXVros3j8L+Q1+oHzhXzt/Q+9pT3QD5wt7cH+87+QPdAPnC/ka+9/6C3tgX7gbGkP9p//heyBfuB8IV97/0NvaQ/0A2dLe7D//C9kD/QD5wv52vsfekt7oB84W9qD/ed/IXugHzhfyNfe/9Bb2gP9wNnSHuw//wvZA/3A+UK+9v6H3tIe+H9r2U5W5aLjDQAAAABJRU5ErkJggg==;" vertex="1" parent="1">
          <mxGeometry x="460" y="410" width="75.48" height="90" as="geometry" />
        </mxCell>
      </root>
    </mxGraphModel>
  </diagram>
</mxfile>
